<?xml version="1.0" encoding="utf-8"?>
<!-- Generator: Adobe Illustrator 26.0.1, SVG Export Plug-In . SVG Version: 6.00 Build 0)  -->
<svg version="1.1" id="Layer_1" xmlns="http://www.w3.org/2000/svg" xmlns:xlink="http://www.w3.org/1999/xlink" x="0px" y="0px"
	 viewBox="0 0 2160 2160" style="enable-background:new 0 0 2160 2160;" xml:space="preserve">
<style type="text/css">
	.st0{fill:#03A9F4;}
</style>
<g>
	<path class="st0" d="M1075,496c61.42,0,121.14,13.17,177.51,39.16c27.96,12.88,55.1,28.97,80.69,47.81
		c26.08,19.2,50.76,41.42,73.34,66.03c23.12,25.2,44.21,53.08,62.67,82.86c18.95,30.57,35.27,63.36,48.51,97.47
		C1545.78,901.6,1560,978.87,1560,1059s-14.22,157.4-42.27,229.67c-13.24,34.11-29.56,66.91-48.51,97.47
		c-18.46,29.78-39.55,57.66-62.67,82.86c-22.59,24.61-47.26,46.83-73.34,66.03c-25.59,18.84-52.73,34.92-80.69,47.81
		c-56.37,25.98-116.09,39.16-177.51,39.16s-121.14-13.17-177.51-39.16c-27.96-12.88-55.1-28.97-80.69-47.81
		c-26.08-19.2-50.76-41.42-73.34-66.03c-23.12-25.2-44.21-53.08-62.67-82.86c-18.95-30.57-35.27-63.36-48.51-97.47
		C604.22,1216.4,590,1139.13,590,1059s14.22-157.4,42.27-229.67c13.24-34.11,29.56-66.91,48.51-97.47
		c18.46-29.78,39.55-57.66,62.67-82.86c22.59-24.61,47.26-46.83,73.34-66.03c25.59-18.84,52.73-34.92,80.69-47.81
		C953.86,509.17,1013.58,496,1075,496 M1075,112c-479.94,0-869,423.99-869,947s389.06,947,869,947s869-423.99,869-947
		S1554.94,112,1075,112L1075,112z"/>
</g>
</svg>
