<svg id="svg" xmlns="http://www.w3.org/2000/svg" xmlns:xlink="http://www.w3.org/1999/xlink" width="400" height="400" viewBox="0, 0, 400,400" version="1.1"><g id="svgg"><path id="path0" d="M189.013 1.532 C 189.847 2.047,151.801 16.503,104.467 33.656 C 57.133 50.809,17.682 65.111,16.798 65.437 C 15.817 65.799,15.696 65.190,16.489 63.875 C 17.591 62.045,17.387 62.044,15.144 63.863 C 13.690 65.043,12.549 67.152,12.610 68.551 C 12.694 70.507,13.029 70.373,14.063 67.969 C 14.801 66.250,15.455 65.308,15.515 65.874 C 18.429 93.218,43.860 313.104,44.134 313.319 C 44.352 313.491,77.395 332.089,117.561 354.648 C 157.728 377.208,190.211 396.281,189.746 397.034 C 189.281 397.786,190.107 397.939,191.581 397.373 C 193.159 396.768,193.874 396.973,193.318 397.872 C 192.742 398.805,195.839 399.354,201.265 399.281 C 207.095 399.202,210.035 398.539,209.805 397.356 C 209.342 394.970,232.394 382.370,234.661 383.770 C 235.668 384.393,235.990 384.161,235.414 383.229 C 234.823 382.273,259.397 367.570,294.938 347.615 C 328.230 328.924,355.648 313.490,355.866 313.319 C 356.140 313.104,381.571 93.221,384.485 65.874 C 384.545 65.308,385.199 66.250,385.938 67.969 C 386.971 70.373,387.306 70.507,387.390 68.551 C 387.451 67.152,386.310 65.043,384.856 63.863 C 382.613 62.044,382.409 62.045,383.511 63.875 C 384.299 65.183,384.184 65.797,383.219 65.437 C 382.343 65.111,342.900 50.804,295.567 33.645 C 248.234 16.486,210.180 2.030,211.004 1.521 C 211.828 1.012,206.876 0.595,200.000 0.595 C 193.124 0.595,188.180 1.017,189.013 1.532 M174.219 5.524 C 170.312 7.406,170.181 7.623,173.438 6.827 C 177.865 5.745,182.841 3.208,180.469 3.243 C 179.609 3.256,176.797 4.282,174.219 5.524 M220.313 4.424 C 221.602 5.220,224.414 6.342,226.563 6.917 C 229.277 7.643,229.754 7.520,228.125 6.514 C 226.836 5.717,224.023 4.595,221.875 4.021 C 219.160 3.294,218.684 3.417,220.313 4.424 M157.031 11.774 C 153.124 13.656,152.994 13.873,156.250 13.077 C 160.677 11.995,165.654 9.458,163.281 9.493 C 162.422 9.506,159.609 10.532,157.031 11.774 M276.563 24.736 C 277.852 25.533,280.664 26.655,282.813 27.229 C 285.527 27.956,286.004 27.833,284.375 26.826 C 283.086 26.030,280.273 24.908,278.125 24.333 C 275.410 23.607,274.934 23.730,276.563 24.736 M100.781 32.086 C 96.874 33.968,96.744 34.185,100.000 33.389 C 104.427 32.307,109.404 29.771,107.031 29.805 C 106.172 29.818,103.359 30.844,100.781 32.086 M293.750 30.986 C 295.039 31.783,297.852 32.905,300.000 33.479 C 302.715 34.206,303.191 34.083,301.563 33.076 C 300.273 32.280,297.461 31.158,295.313 30.583 C 292.598 29.857,292.121 29.980,293.750 30.986 M83.594 38.336 C 79.687 40.218,79.556 40.435,82.813 39.639 C 87.240 38.557,92.216 36.021,89.844 36.055 C 88.984 36.068,86.172 37.094,83.594 38.336 M310.938 37.236 C 312.227 38.033,315.039 39.155,317.188 39.729 C 319.902 40.456,320.379 40.333,318.750 39.326 C 317.461 38.530,314.648 37.408,312.500 36.833 C 309.785 36.107,309.309 36.230,310.938 37.236 M66.406 44.586 C 62.499 46.468,62.369 46.685,65.625 45.889 C 70.052 44.807,75.029 42.271,72.656 42.305 C 71.797 42.318,68.984 43.344,66.406 44.586 M328.125 43.486 C 329.414 44.283,332.227 45.405,334.375 45.979 C 337.090 46.706,337.566 46.583,335.938 45.576 C 334.648 44.780,331.836 43.658,329.688 43.083 C 326.973 42.357,326.496 42.480,328.125 43.486 M49.219 50.836 C 45.312 52.718,45.181 52.935,48.438 52.139 C 52.865 51.057,57.841 48.521,55.469 48.555 C 54.609 48.568,51.797 49.594,49.219 50.836 M257.243 176.563 L 313.649 304.688 293.150 304.688 L 272.651 304.687 261.983 277.395 C 256.115 262.384,251.831 249.268,252.461 248.247 C 253.183 247.080,252.939 246.805,251.804 247.507 C 250.812 248.120,250.000 247.877,250.000 246.967 C 250.000 245.837,234.265 245.313,200.391 245.313 L 150.781 245.313 139.102 275.000 L 127.423 304.688 106.870 304.688 L 86.317 304.687 100.690 272.266 C 108.595 254.434,133.976 196.777,157.091 144.141 C 180.206 91.504,199.505 48.438,199.977 48.438 C 200.450 48.438,226.219 106.094,257.243 176.563 M194.004 63.348 C 191.386 69.094,191.885 70.320,194.716 65.096 C 196.038 62.657,196.827 60.369,196.470 60.012 C 196.112 59.654,195.003 61.156,194.004 63.348 M203.236 60.156 C 203.236 61.016,204.241 63.477,205.469 65.625 C 206.697 67.773,207.702 68.828,207.702 67.969 C 207.702 67.109,206.697 64.648,205.469 62.500 C 204.241 60.352,203.236 59.297,203.236 60.156 M189.316 74.286 C 186.698 80.031,187.198 81.257,190.029 76.034 C 191.350 73.594,192.140 71.306,191.782 70.949 C 191.425 70.592,190.315 72.093,189.316 74.286 M207.923 71.094 C 207.923 71.953,208.928 74.414,210.156 76.563 C 211.384 78.711,212.389 79.766,212.389 78.906 C 212.389 78.047,211.384 75.586,210.156 73.438 C 208.928 71.289,207.923 70.234,207.923 71.094 M14.425 79.688 C 14.425 82.695,14.747 83.926,15.140 82.422 C 15.533 80.918,15.533 78.457,15.140 76.953 C 14.747 75.449,14.425 76.680,14.425 79.688 M384.738 79.688 C 384.738 82.695,385.059 83.926,385.452 82.422 C 385.845 80.918,385.845 78.457,385.452 76.953 C 385.059 75.449,384.738 76.680,384.738 79.688 M183.066 88.348 C 180.448 94.094,180.948 95.320,183.779 90.096 C 185.100 87.657,185.890 85.369,185.532 85.012 C 185.175 84.654,184.065 86.156,183.066 88.348 M214.173 85.156 C 214.173 86.016,215.178 88.477,216.406 90.625 C 217.634 92.773,218.639 93.828,218.639 92.969 C 218.639 92.109,217.634 89.648,216.406 87.500 C 215.178 85.352,214.173 84.297,214.173 85.156 M15.988 93.750 C 15.988 96.758,16.309 97.988,16.702 96.484 C 17.095 94.980,17.095 92.520,16.702 91.016 C 16.309 89.512,15.988 90.742,15.988 93.750 M383.175 93.750 C 383.175 96.758,383.497 97.988,383.890 96.484 C 384.283 94.980,384.283 92.520,383.890 91.016 C 383.497 89.512,383.175 90.742,383.175 93.750 M177.624 100.854 C 173.953 108.551,174.470 109.861,178.307 102.587 C 180.050 99.283,181.200 96.304,180.862 95.966 C 180.524 95.628,179.067 97.828,177.624 100.854 M220.423 99.219 C 220.423 100.078,221.428 102.539,222.656 104.688 C 223.884 106.836,224.889 107.891,224.889 107.031 C 224.889 106.172,223.884 103.711,222.656 101.563 C 221.428 99.414,220.423 98.359,220.423 99.219 M17.582 107.031 C 17.599 110.469,17.919 111.691,18.293 109.747 C 18.666 107.804,18.652 104.991,18.261 103.497 C 17.870 102.004,17.564 103.594,17.582 107.031 M381.644 107.031 C 381.661 110.469,381.981 111.691,382.355 109.747 C 382.729 107.804,382.715 104.991,382.324 103.497 C 381.932 102.004,381.627 103.594,381.644 107.031 M172.129 113.348 C 169.511 119.094,170.010 120.320,172.841 115.096 C 174.163 112.657,174.952 110.369,174.595 110.012 C 174.237 109.654,173.128 111.156,172.129 113.348 M225.111 110.156 C 225.111 111.016,226.116 113.477,227.344 115.625 C 228.572 117.773,229.577 118.828,229.577 117.969 C 229.577 117.109,228.572 114.648,227.344 112.500 C 226.116 110.352,225.111 109.297,225.111 110.156 M19.144 121.094 C 19.161 124.531,19.481 125.754,19.855 123.810 C 20.229 121.866,20.215 119.054,19.824 117.560 C 19.432 116.066,19.127 117.656,19.144 121.094 M380.082 121.094 C 380.099 124.531,380.419 125.754,380.793 123.810 C 381.166 121.866,381.152 119.054,380.761 117.560 C 380.370 116.066,380.064 117.656,380.082 121.094 M165.879 127.411 C 163.261 133.156,163.760 134.382,166.591 129.159 C 167.913 126.719,168.702 124.431,168.345 124.074 C 167.987 123.717,166.878 125.218,165.879 127.411 M231.361 124.219 C 231.361 125.078,232.366 127.539,233.594 129.688 C 234.822 131.836,235.827 132.891,235.827 132.031 C 235.827 131.172,234.822 128.711,233.594 126.563 C 232.366 124.414,231.361 123.359,231.361 124.219 M182.422 169.175 C 173.184 191.740,165.625 210.718,165.625 211.351 C 165.625 211.983,181.094 212.500,200.000 212.500 C 218.906 212.500,234.375 211.983,234.375 211.351 C 234.375 209.363,200.821 128.149,200.000 128.149 C 199.570 128.149,191.660 146.611,182.422 169.175 M20.675 134.375 C 20.675 137.383,20.997 138.613,21.390 137.109 C 21.783 135.605,21.783 133.145,21.390 131.641 C 20.997 130.137,20.675 131.367,20.675 134.375 M378.488 134.375 C 378.488 137.383,378.809 138.613,379.202 137.109 C 379.595 135.605,379.595 133.145,379.202 131.641 C 378.809 130.137,378.488 131.367,378.488 134.375 M160.436 139.916 C 156.766 147.614,157.282 148.923,161.120 141.649 C 162.862 138.346,164.012 135.366,163.674 135.028 C 163.336 134.691,161.879 136.890,160.436 139.916 M237.611 138.281 C 237.611 139.141,238.616 141.602,239.844 143.750 C 241.072 145.898,242.077 146.953,242.077 146.094 C 242.077 145.234,241.072 142.773,239.844 140.625 C 238.616 138.477,237.611 137.422,237.611 138.281 M22.238 148.438 C 22.238 151.445,22.559 152.676,22.952 151.172 C 23.345 149.668,23.345 147.207,22.952 145.703 C 22.559 144.199,22.238 145.430,22.238 148.438 M376.925 148.438 C 376.925 151.445,377.247 152.676,377.640 151.172 C 378.033 149.668,378.033 147.207,377.640 145.703 C 377.247 144.199,376.925 145.430,376.925 148.438 M154.941 152.411 C 152.323 158.156,152.823 159.382,155.654 154.159 C 156.975 151.719,157.765 149.431,157.407 149.074 C 157.050 148.717,155.940 150.218,154.941 152.411 M242.318 149.219 C 242.318 150.078,243.666 153.242,245.313 156.250 C 246.959 159.258,248.307 161.016,248.307 160.156 C 248.307 159.297,246.959 156.133,245.313 153.125 C 243.666 150.117,242.318 148.359,242.318 149.219 M23.800 162.500 C 23.800 165.508,24.122 166.738,24.515 165.234 C 24.908 163.730,24.908 161.270,24.515 159.766 C 24.122 158.262,23.800 159.492,23.800 162.500 M375.363 162.500 C 375.363 165.508,375.684 166.738,376.077 165.234 C 376.470 163.730,376.470 161.270,376.077 159.766 C 375.684 158.262,375.363 159.492,375.363 162.500 M148.691 166.473 C 146.073 172.219,146.573 173.445,149.404 168.221 C 150.725 165.782,151.515 163.494,151.157 163.137 C 150.800 162.779,149.690 164.281,148.691 166.473 M248.548 163.281 C 248.548 164.141,249.553 166.602,250.781 168.750 C 252.009 170.898,253.014 171.953,253.014 171.094 C 253.014 170.234,252.009 167.773,250.781 165.625 C 249.553 163.477,248.548 162.422,248.548 163.281 M25.394 175.781 C 25.411 179.219,25.731 180.441,26.105 178.497 C 26.479 176.554,26.465 173.741,26.074 172.247 C 25.682 170.754,25.377 172.344,25.394 175.781 M373.832 175.781 C 373.849 179.219,374.169 180.441,374.543 178.497 C 374.916 176.554,374.902 173.741,374.511 172.247 C 374.120 170.754,373.814 172.344,373.832 175.781 M143.249 178.979 C 139.578 186.676,140.095 187.986,143.932 180.712 C 145.675 177.408,146.825 174.429,146.487 174.091 C 146.149 173.753,144.692 175.953,143.249 178.979 M254.798 177.344 C 254.798 178.203,255.803 180.664,257.031 182.813 C 258.259 184.961,259.264 186.016,259.264 185.156 C 259.264 184.297,258.259 181.836,257.031 179.688 C 255.803 177.539,254.798 176.484,254.798 177.344 M172.129 186.786 C 169.511 192.531,170.010 193.757,172.841 188.534 C 174.163 186.094,174.952 183.806,174.595 183.449 C 174.237 183.092,173.128 184.593,172.129 186.786 M26.925 189.063 C 26.925 192.070,27.247 193.301,27.640 191.797 C 28.033 190.293,28.033 187.832,27.640 186.328 C 27.247 184.824,26.925 186.055,26.925 189.063 M372.238 189.063 C 372.238 192.070,372.559 193.301,372.952 191.797 C 373.345 190.293,373.345 187.832,372.952 186.328 C 372.559 184.824,372.238 186.055,372.238 189.063 M137.754 191.473 C 135.136 197.219,135.635 198.445,138.466 193.221 C 139.788 190.782,140.577 188.494,140.220 188.137 C 139.862 187.779,138.753 189.281,137.754 191.473 M259.506 188.281 C 259.506 189.141,260.853 192.305,262.500 195.313 C 264.147 198.320,265.494 200.078,265.494 199.219 C 265.494 198.359,264.147 195.195,262.500 192.188 C 260.853 189.180,259.506 187.422,259.506 188.281 M28.488 203.125 C 28.488 206.133,28.809 207.363,29.202 205.859 C 29.595 204.355,29.595 201.895,29.202 200.391 C 28.809 198.887,28.488 200.117,28.488 203.125 M370.675 203.125 C 370.675 206.133,370.997 207.363,371.390 205.859 C 371.783 204.355,371.783 201.895,371.390 200.391 C 370.997 198.887,370.675 200.117,370.675 203.125 M131.504 205.536 C 128.886 211.281,129.385 212.507,132.216 207.284 C 133.538 204.844,134.327 202.556,133.970 202.199 C 133.612 201.842,132.503 203.343,131.504 205.536 M164.316 205.536 C 161.698 211.281,162.198 212.507,165.029 207.284 C 166.350 204.844,167.140 202.556,166.782 202.199 C 166.425 201.842,165.315 203.343,164.316 205.536 M232.923 202.344 C 232.923 203.203,233.928 205.664,235.156 207.813 C 236.384 209.961,237.389 211.016,237.389 210.156 C 237.389 209.297,236.384 206.836,235.156 204.688 C 233.928 202.539,232.923 201.484,232.923 202.344 M265.736 202.344 C 265.736 203.203,266.741 205.664,267.969 207.813 C 269.197 209.961,270.202 211.016,270.202 210.156 C 270.202 209.297,269.197 206.836,267.969 204.688 C 266.741 202.539,265.736 201.484,265.736 202.344 M30.050 217.188 C 30.050 220.195,30.372 221.426,30.765 219.922 C 31.158 218.418,31.158 215.957,30.765 214.453 C 30.372 212.949,30.050 214.180,30.050 217.188 M126.816 216.473 C 124.198 222.219,124.698 223.445,127.529 218.221 C 128.850 215.782,129.640 213.494,129.282 213.137 C 128.925 212.779,127.815 214.281,126.816 216.473 M369.113 217.188 C 369.113 220.195,369.434 221.426,369.827 219.922 C 370.220 218.418,370.220 215.957,369.827 214.453 C 369.434 212.949,369.113 214.180,369.113 217.188 M271.986 216.406 C 271.986 217.266,272.991 219.727,274.219 221.875 C 275.447 224.023,276.452 225.078,276.452 224.219 C 276.452 223.359,275.447 220.898,274.219 218.750 C 272.991 216.602,271.986 215.547,271.986 216.406 M31.644 230.469 C 31.661 233.906,31.981 235.129,32.355 233.185 C 32.729 231.241,32.715 228.429,32.324 226.935 C 31.932 225.441,31.627 227.031,31.644 230.469 M367.582 230.469 C 367.599 233.906,367.919 235.129,368.293 233.185 C 368.666 231.241,368.652 228.429,368.261 226.935 C 367.870 225.441,367.564 227.031,367.582 230.469 M120.566 230.536 C 117.948 236.281,118.448 237.507,121.279 232.284 C 122.600 229.844,123.390 227.556,123.032 227.199 C 122.675 226.842,121.565 228.343,120.566 230.536 M276.693 227.344 C 276.693 228.203,278.041 231.367,279.688 234.375 C 281.334 237.383,282.682 239.141,282.682 238.281 C 282.682 237.422,281.334 234.258,279.688 231.250 C 278.041 228.242,276.693 226.484,276.693 227.344 M33.175 243.750 C 33.175 246.758,33.497 247.988,33.890 246.484 C 34.283 244.980,34.283 242.520,33.890 241.016 C 33.497 239.512,33.175 240.742,33.175 243.750 M365.988 243.750 C 365.988 246.758,366.309 247.988,366.702 246.484 C 367.095 244.980,367.095 242.520,366.702 241.016 C 366.309 239.512,365.988 240.742,365.988 243.750 M114.316 244.598 C 111.698 250.344,112.198 251.570,115.029 246.346 C 116.350 243.907,117.140 241.619,116.782 241.262 C 116.425 240.904,115.315 242.406,114.316 244.598 M282.923 241.406 C 282.923 242.266,283.928 244.727,285.156 246.875 C 286.384 249.023,287.389 250.078,287.389 249.219 C 287.389 248.359,286.384 245.898,285.156 243.750 C 283.928 241.602,282.923 240.547,282.923 241.406 M175.391 243.356 C 188.926 243.617,211.074 243.617,224.609 243.356 C 238.145 243.096,227.070 242.883,200.000 242.883 C 172.930 242.883,161.855 243.096,175.391 243.356 M109.629 255.536 C 107.011 261.281,107.510 262.507,110.341 257.284 C 111.663 254.844,112.452 252.556,112.095 252.199 C 111.737 251.842,110.628 253.343,109.629 255.536 M34.738 257.813 C 34.738 260.820,35.059 262.051,35.452 260.547 C 35.845 259.043,35.845 256.582,35.452 255.078 C 35.059 253.574,34.738 254.805,34.738 257.813 M364.425 257.813 C 364.425 260.820,364.747 262.051,365.140 260.547 C 365.533 259.043,365.533 256.582,365.140 255.078 C 364.747 253.574,364.425 254.805,364.425 257.813 M289.173 255.469 C 289.173 256.328,290.178 258.789,291.406 260.938 C 292.634 263.086,293.639 264.141,293.639 263.281 C 293.639 262.422,292.634 259.961,291.406 257.813 C 290.178 255.664,289.173 254.609,289.173 255.469 M103.379 269.598 C 100.761 275.344,101.260 276.570,104.091 271.346 C 105.413 268.907,106.202 266.619,105.845 266.262 C 105.487 265.904,104.378 267.406,103.379 269.598 M293.881 266.406 C 293.881 267.266,295.228 270.430,296.875 273.438 C 298.522 276.445,299.869 278.203,299.869 277.344 C 299.869 276.484,298.522 273.320,296.875 270.313 C 295.228 267.305,293.881 265.547,293.881 266.406 M36.300 271.875 C 36.300 274.883,36.622 276.113,37.015 274.609 C 37.408 273.105,37.408 270.645,37.015 269.141 C 36.622 267.637,36.300 268.867,36.300 271.875 M362.863 271.875 C 362.863 274.883,363.184 276.113,363.577 274.609 C 363.970 273.105,363.970 270.645,363.577 269.141 C 363.184 267.637,362.863 268.867,362.863 271.875 M37.894 285.156 C 37.911 288.594,38.231 289.816,38.605 287.872 C 38.979 285.929,38.965 283.116,38.574 281.622 C 38.182 280.129,37.877 281.719,37.894 285.156 M97.129 283.661 C 94.511 289.406,95.010 290.632,97.841 285.409 C 99.163 282.969,99.952 280.681,99.595 280.324 C 99.237 279.967,98.128 281.468,97.129 283.661 M300.111 280.469 C 300.111 281.328,301.116 283.789,302.344 285.938 C 303.572 288.086,304.577 289.141,304.577 288.281 C 304.577 287.422,303.572 284.961,302.344 282.813 C 301.116 280.664,300.111 279.609,300.111 280.469 M361.332 285.156 C 361.349 288.594,361.669 289.816,362.043 287.872 C 362.416 285.929,362.402 283.116,362.011 281.622 C 361.620 280.129,361.314 281.719,361.332 285.156 M91.686 296.166 C 90.243 299.193,89.063 301.996,89.063 302.397 C 89.063 302.797,97.676 302.974,108.203 302.789 L 127.344 302.453 108.970 301.958 L 90.596 301.463 93.070 296.680 C 94.430 294.049,95.266 291.620,94.927 291.281 C 94.587 290.942,93.129 293.140,91.686 296.166 M39.457 299.219 C 39.474 302.656,39.794 303.879,40.168 301.935 C 40.541 299.991,40.527 297.179,40.136 295.685 C 39.745 294.191,39.439 295.781,39.457 299.219 M306.305 294.243 C 306.275 294.944,306.978 296.878,307.867 298.540 C 310.232 302.958,276.235 303.242,273.397 298.828 C 271.755 296.274,271.698 296.283,272.538 298.956 C 273.033 300.530,273.438 302.112,273.438 302.472 C 273.438 302.831,281.875 303.125,292.188 303.125 C 302.500 303.125,310.913 302.598,310.882 301.953 C 310.800 300.216,306.370 292.754,306.305 294.243 M359.769 299.219 C 359.786 302.656,360.106 303.879,360.480 301.935 C 360.854 299.991,360.840 297.179,360.449 295.685 C 360.057 294.191,359.752 295.781,359.769 299.219 M53.125 321.030 C 53.125 321.460,55.937 323.246,59.375 325.000 C 62.813 326.754,65.625 327.837,65.625 327.407 C 65.625 326.978,62.813 325.191,59.375 323.438 C 55.937 321.684,53.125 320.601,53.125 321.030 M340.234 323.544 C 337.012 325.245,334.375 326.986,334.375 327.413 C 334.375 327.839,337.188 326.754,340.625 325.000 C 344.063 323.246,346.875 321.474,346.875 321.062 C 346.875 320.040,346.864 320.044,340.234 323.544 M67.188 328.826 C 67.188 329.256,69.297 330.698,71.875 332.031 C 74.453 333.364,76.563 334.104,76.563 333.674 C 76.563 333.244,74.453 331.802,71.875 330.469 C 69.297 329.136,67.188 328.396,67.188 328.826 M327.734 330.581 C 321.893 333.750,322.249 335.070,328.125 332.031 C 330.703 330.698,332.813 329.274,332.813 328.866 C 332.813 327.861,332.645 327.917,327.734 330.581 M78.125 335.093 C 78.125 335.522,80.938 337.309,84.375 339.063 C 87.813 340.816,90.625 341.899,90.625 341.470 C 90.625 341.040,87.813 339.254,84.375 337.500 C 80.938 335.746,78.125 334.663,78.125 335.093 M315.234 337.606 C 312.012 339.308,309.375 341.049,309.375 341.475 C 309.375 341.902,312.188 340.816,315.625 339.063 C 319.063 337.309,321.875 335.537,321.875 335.124 C 321.875 334.102,321.864 334.106,315.234 337.606 M92.188 342.888 C 92.188 343.318,94.297 344.761,96.875 346.094 C 99.453 347.427,101.563 348.166,101.563 347.737 C 101.563 347.307,99.453 345.864,96.875 344.531 C 94.297 343.198,92.188 342.459,92.188 342.888 M302.734 344.644 C 296.893 347.813,297.249 349.133,303.125 346.094 C 305.703 344.761,307.813 343.336,307.813 342.929 C 307.813 341.923,307.645 341.980,302.734 344.644 M103.125 349.155 C 103.125 349.585,105.938 351.371,109.375 353.125 C 112.813 354.879,115.625 355.962,115.625 355.532 C 115.625 355.103,112.813 353.316,109.375 351.563 C 105.938 349.809,103.125 348.726,103.125 349.155 M290.234 351.669 C 287.012 353.370,284.375 355.111,284.375 355.538 C 284.375 355.964,287.188 354.879,290.625 353.125 C 294.063 351.371,296.875 349.599,296.875 349.187 C 296.875 348.165,296.864 348.169,290.234 351.669 M117.188 356.951 C 117.188 357.381,119.297 358.823,121.875 360.156 C 124.453 361.489,126.563 362.229,126.563 361.799 C 126.563 361.369,124.453 359.927,121.875 358.594 C 119.297 357.261,117.188 356.521,117.188 356.951 M277.734 358.706 C 271.893 361.875,272.249 363.195,278.125 360.156 C 280.703 358.823,282.813 357.399,282.813 356.991 C 282.813 355.986,282.645 356.042,277.734 358.706 M128.125 363.218 C 128.125 363.647,130.938 365.434,134.375 367.188 C 137.813 368.941,140.625 370.024,140.625 369.595 C 140.625 369.165,137.813 367.379,134.375 365.625 C 130.938 363.871,128.125 362.788,128.125 363.218 M265.234 365.731 C 262.012 367.433,259.375 369.174,259.375 369.600 C 259.375 370.027,262.188 368.941,265.625 367.188 C 269.063 365.434,271.875 363.662,271.875 363.249 C 271.875 362.227,271.864 362.231,265.234 365.731 M142.188 371.013 C 142.188 371.443,144.297 372.886,146.875 374.219 C 149.453 375.552,151.563 376.291,151.563 375.862 C 151.563 375.432,149.453 373.989,146.875 372.656 C 144.297 371.323,142.188 370.584,142.188 371.013 M252.734 372.769 C 246.893 375.938,247.249 377.258,253.125 374.219 C 255.703 372.886,257.813 371.461,257.813 371.054 C 257.813 370.048,257.645 370.105,252.734 372.769 M153.125 377.280 C 153.125 377.710,155.938 379.496,159.375 381.250 C 162.813 383.004,165.625 384.087,165.625 383.657 C 165.625 383.228,162.813 381.441,159.375 379.688 C 155.938 377.934,153.125 376.851,153.125 377.280 M241.797 379.019 C 235.956 382.188,236.311 383.508,242.188 380.469 C 244.766 379.136,246.875 377.711,246.875 377.304 C 246.875 376.298,246.707 376.355,241.797 379.019 M167.188 385.076 C 167.188 385.506,169.297 386.948,171.875 388.281 C 174.453 389.614,176.563 390.354,176.563 389.924 C 176.563 389.494,174.453 388.052,171.875 386.719 C 169.297 385.386,167.188 384.646,167.188 385.076 M227.734 386.831 C 221.893 390.000,222.249 391.320,228.125 388.281 C 230.703 386.948,232.813 385.524,232.813 385.116 C 232.813 384.111,232.645 384.167,227.734 386.831 M178.125 391.326 C 178.125 391.756,180.234 393.198,182.813 394.531 C 185.391 395.864,187.500 396.604,187.500 396.174 C 187.500 395.744,185.391 394.302,182.813 392.969 C 180.234 391.636,178.125 390.896,178.125 391.326 M216.797 393.081 C 210.956 396.250,211.311 397.570,217.188 394.531 C 219.766 393.198,221.875 391.774,221.875 391.366 C 221.875 390.361,221.707 390.417,216.797 393.081 " stroke="none" fill="#000000" fill-rule="evenodd"></path></g></svg>