<svg id="svg" version="1.1" xmlns="http://www.w3.org/2000/svg" xmlns:xlink="http://www.w3.org/1999/xlink" width="400" height="400" viewBox="0, 0, 400,400"><g id="svgg"><path id="path0" d="M105.309 59.200 C 105.309 60.190,105.387 60.595,105.482 60.100 C 105.578 59.605,105.578 58.795,105.482 58.300 C 105.387 57.805,105.309 58.210,105.309 59.200 M173.523 109.871 C 172.871 110.043,172.130 111.137,169.782 115.400 C 166.437 121.470,165.539 123.167,164.807 124.800 C 164.364 125.790,163.829 126.870,163.618 127.200 C 162.260 129.327,160.000 133.655,160.000 134.127 C 160.000 134.438,159.666 135.121,159.257 135.646 C 158.513 136.601,155.938 141.340,153.304 146.600 C 152.533 148.140,151.752 149.670,151.567 150.000 C 148.950 154.691,147.600 157.429,147.600 158.045 C 147.600 158.460,147.278 159.122,146.884 159.516 C 146.491 159.909,145.796 160.944,145.340 161.816 C 144.535 163.355,141.612 168.883,138.157 175.400 C 137.224 177.160,135.846 179.860,135.096 181.400 C 134.346 182.940,133.432 184.447,133.066 184.749 C 132.700 185.051,132.399 185.591,132.399 185.949 C 132.398 186.307,132.016 187.225,131.550 187.990 C 131.084 188.754,128.826 193.069,126.533 197.578 C 124.240 202.087,122.108 206.060,121.794 206.406 C 121.481 206.753,120.672 208.198,119.996 209.618 C 119.321 211.038,117.876 213.885,116.784 215.943 C 115.693 218.002,114.800 219.915,114.800 220.194 C 114.800 220.474,114.522 220.932,114.183 221.214 C 113.844 221.496,112.651 223.543,111.533 225.763 C 110.415 227.983,108.551 231.600,107.390 233.800 C 106.230 236.000,104.238 239.850,102.964 242.357 C 101.690 244.863,100.209 247.559,99.674 248.348 C 99.138 249.137,98.448 250.498,98.139 251.372 C 97.831 252.245,97.321 253.245,97.006 253.594 C 96.690 253.942,95.972 255.211,95.409 256.414 C 94.846 257.616,93.921 259.410,93.354 260.400 C 92.787 261.390,90.389 265.980,88.024 270.600 C 83.578 279.287,82.071 282.109,81.035 283.690 C 80.703 284.198,80.174 285.340,79.861 286.227 C 79.548 287.115,78.674 288.822,77.919 290.021 C 77.165 291.219,76.248 292.850,75.881 293.645 C 75.515 294.440,74.941 295.317,74.607 295.594 C 74.273 295.871,74.000 296.455,74.000 296.891 C 74.000 297.328,73.550 298.219,73.000 298.873 C 72.450 299.527,72.000 300.299,72.000 300.590 C 72.000 300.881,71.493 302.082,70.874 303.259 C 70.255 304.437,69.501 306.030,69.200 306.800 C 68.899 307.570,68.580 308.335,68.493 308.500 C 66.973 311.361,78.430 300.147,136.128 242.300 C 205.250 173.000,206.558 171.678,209.805 167.845 C 210.902 166.550,212.110 165.159,212.490 164.755 C 213.499 163.680,213.851 162.000,213.067 162.000 C 212.726 162.000,212.336 162.180,212.200 162.400 C 212.064 162.620,211.603 162.800,211.176 162.800 C 210.749 162.800,210.397 163.025,210.394 163.300 C 210.390 163.610,210.276 163.648,210.094 163.400 C 209.932 163.180,209.442 162.802,209.004 162.559 C 208.503 162.282,208.101 161.492,207.920 160.429 C 207.735 159.344,207.278 158.462,206.645 157.964 C 206.102 157.537,205.443 156.515,205.180 155.694 C 204.917 154.872,203.986 153.238,203.110 152.063 C 202.235 150.888,200.984 148.908,200.331 147.663 C 199.678 146.418,198.526 144.605,197.772 143.634 C 197.017 142.663,196.400 141.650,196.400 141.383 C 196.400 141.116,196.130 140.674,195.800 140.400 C 195.470 140.126,195.200 139.480,195.200 138.963 C 195.200 137.993,193.792 134.966,193.159 134.574 C 192.961 134.453,192.800 133.915,192.800 133.380 C 192.800 132.727,192.373 132.123,191.500 131.541 C 190.293 130.737,187.600 126.061,187.600 124.768 C 187.600 124.501,186.994 123.364,186.254 122.241 C 185.514 121.119,184.142 118.760,183.204 117.000 C 181.079 113.011,180.994 112.906,179.614 112.603 C 178.992 112.466,178.166 112.005,177.779 111.577 C 177.393 111.150,176.911 110.800,176.709 110.800 C 176.508 110.800,176.073 110.530,175.743 110.200 C 175.140 109.597,174.771 109.542,173.523 109.871 M85.314 186.600 C 85.317 187.700,85.395 188.103,85.487 187.495 C 85.579 186.886,85.577 185.986,85.482 185.495 C 85.387 185.003,85.311 185.500,85.314 186.600 " stroke="none" fill="#f4840c" fill-rule="evenodd"></path><path id="path1" d="M116.690 19.446 C 114.071 20.668,112.402 23.191,112.398 25.933 C 112.395 27.718,111.689 30.400,111.223 30.400 C 111.036 30.400,110.861 32.087,110.835 34.150 C 110.808 36.212,110.532 38.777,110.220 39.850 C 109.908 40.922,109.527 43.476,109.373 45.525 C 109.185 48.025,108.892 49.451,108.482 49.861 C 108.043 50.300,107.828 51.562,107.721 54.336 C 107.530 59.229,107.361 60.000,106.474 60.000 C 105.831 60.000,105.779 60.363,105.929 63.785 C 106.137 68.549,105.882 69.744,104.737 69.380 C 104.181 69.203,103.991 69.261,104.170 69.552 C 105.220 71.250,104.365 79.600,103.141 79.600 C 102.436 79.600,102.375 79.761,102.647 80.900 C 102.980 82.295,103.006 82.929,102.881 86.513 C 102.800 88.832,101.948 90.011,101.213 88.822 C 101.010 88.493,100.842 88.671,100.712 89.349 C 100.604 89.912,100.695 90.432,100.913 90.504 C 102.374 90.991,101.478 98.800,99.961 98.800 C 99.245 98.800,99.184 98.899,99.598 99.397 C 100.915 100.985,99.641 109.498,98.171 108.933 C 97.489 108.672,97.402 109.642,98.049 110.289 C 98.784 111.024,98.324 118.179,97.483 119.109 C 96.961 119.685,96.799 120.612,96.795 123.031 C 96.788 127.023,96.515 128.123,95.592 127.882 C 94.959 127.716,94.914 128.002,95.100 130.995 C 95.409 135.935,94.953 138.933,93.935 138.667 C 93.303 138.502,93.199 138.598,93.435 139.129 C 94.314 141.104,93.738 147.467,92.625 148.090 C 92.034 148.421,91.976 148.873,92.208 151.350 C 92.548 154.973,91.911 157.775,90.812 157.487 C 90.015 157.279,89.354 159.451,90.136 159.712 C 90.575 159.858,90.645 165.397,90.226 166.719 C 89.953 167.579,88.988 167.546,88.685 166.666 C 88.596 166.410,88.631 166.740,88.762 167.400 C 89.662 171.940,88.658 178.610,87.336 176.871 C 86.873 176.262,86.824 176.281,86.813 177.076 C 86.806 177.558,86.980 178.064,87.200 178.200 C 88.261 178.856,87.549 187.600,86.435 187.600 C 85.841 187.600,85.782 188.042,85.929 191.385 C 86.134 196.090,85.871 197.364,84.752 197.071 C 83.996 196.874,83.962 196.974,84.270 198.530 C 85.118 202.822,84.399 207.481,82.972 206.934 C 82.438 206.729,82.443 209.439,82.985 213.800 C 83.136 215.016,82.416 216.741,81.657 216.982 C 81.076 217.166,81.017 217.575,81.234 219.898 C 81.679 224.660,81.091 227.471,79.863 226.452 C 79.462 226.120,79.437 226.551,79.741 228.582 C 80.311 232.399,79.688 236.240,78.525 236.079 C 77.661 235.960,77.383 237.516,78.134 238.267 C 78.466 238.599,78.474 242.499,78.147 244.476 C 77.891 246.027,76.917 246.785,76.301 245.914 C 76.069 245.587,76.032 245.836,76.198 246.600 C 77.178 251.101,76.851 256.211,75.605 255.885 C 74.904 255.702,74.873 255.940,75.072 259.945 C 75.291 264.320,74.856 266.661,73.894 266.291 C 73.517 266.147,73.455 266.778,73.632 268.951 C 73.989 273.323,73.640 276.351,72.722 276.842 C 72.078 277.186,72.000 277.526,72.223 279.011 C 72.570 281.327,71.739 284.839,70.785 285.088 C 69.912 285.316,69.530 286.570,70.146 287.188 C 71.383 288.428,70.342 295.914,69.078 294.865 C 68.608 294.475,68.552 295.167,68.715 299.394 C 68.907 304.377,68.346 306.255,67.213 304.422 C 67.010 304.093,66.841 304.271,66.711 304.951 C 66.604 305.515,66.649 305.893,66.812 305.793 C 66.975 305.692,67.233 306.776,67.385 308.201 C 67.538 309.626,67.834 310.897,68.043 311.027 C 68.425 311.263,204.659 175.152,211.400 167.798 C 213.380 165.639,220.625 158.260,227.500 151.402 L 240.000 138.933 240.000 137.067 C 240.000 136.040,239.846 135.200,239.657 135.200 C 239.258 135.200,237.200 131.368,237.200 130.625 C 237.200 130.349,236.840 129.798,236.400 129.400 C 235.960 129.002,235.600 128.458,235.600 128.192 C 235.600 127.926,235.240 127.250,234.800 126.691 C 234.360 126.131,234.000 125.202,234.000 124.624 C 234.000 124.047,233.722 123.468,233.381 123.338 C 232.764 123.101,230.800 119.630,230.800 118.776 C 230.800 118.529,230.440 117.869,230.000 117.309 C 229.560 116.750,229.200 115.956,229.200 115.546 C 229.200 115.136,229.018 114.800,228.796 114.800 C 228.574 114.800,227.765 113.462,226.999 111.826 C 226.233 110.190,225.425 108.739,225.203 108.602 C 224.982 108.465,224.800 108.031,224.800 107.638 C 224.800 107.245,224.440 106.598,224.000 106.200 C 223.560 105.802,223.200 105.065,223.200 104.562 C 223.200 104.059,223.005 103.527,222.767 103.380 C 222.529 103.232,221.991 102.367,221.572 101.456 C 221.153 100.545,220.628 99.485,220.405 99.100 C 220.182 98.715,219.816 98.085,219.592 97.700 C 219.368 97.315,218.915 96.460,218.586 95.800 C 218.257 95.140,217.821 94.330,217.616 94.000 C 216.052 91.480,214.000 87.559,214.000 87.091 C 214.000 86.778,213.640 86.107,213.200 85.600 C 212.760 85.093,212.400 84.404,212.400 84.070 C 212.400 83.736,212.152 83.179,211.849 82.831 C 211.119 81.995,209.200 78.325,209.200 77.765 C 209.200 77.523,208.840 76.998,208.400 76.600 C 207.960 76.202,207.600 75.717,207.600 75.522 C 207.600 75.116,206.130 72.998,205.117 71.944 C 204.079 70.864,201.369 69.599,200.116 69.609 C 197.550 69.629,192.400 73.330,192.400 75.153 C 192.400 75.602,192.055 76.291,191.632 76.684 C 191.210 77.078,190.744 77.882,190.596 78.471 C 190.449 79.060,190.074 79.639,189.764 79.759 C 189.454 79.878,189.200 80.232,189.200 80.546 C 189.200 80.861,188.625 82.261,187.923 83.659 C 187.220 85.057,186.601 86.455,186.548 86.767 C 186.495 87.079,186.105 87.803,185.682 88.375 C 185.259 88.947,184.790 89.801,184.641 90.272 C 184.491 90.742,184.106 91.346,183.785 91.613 C 183.463 91.880,183.200 92.353,183.200 92.666 C 183.200 92.978,182.840 93.620,182.400 94.092 C 181.960 94.564,181.600 95.267,181.600 95.653 C 181.600 96.039,181.249 96.601,180.819 96.902 C 180.389 97.203,179.870 98.196,179.665 99.109 C 179.460 100.022,178.731 101.531,178.046 102.463 C 177.361 103.395,176.800 104.379,176.800 104.650 C 176.800 104.921,176.575 105.388,176.300 105.688 C 176.025 105.988,175.602 106.586,175.360 107.017 C 174.693 108.203,172.939 108.270,172.579 107.123 C 172.420 106.615,171.955 105.771,171.545 105.246 C 171.135 104.721,170.800 103.956,170.800 103.546 C 170.800 103.136,170.652 102.800,170.471 102.800 C 169.956 102.800,168.100 99.767,167.812 98.452 C 167.668 97.800,167.315 97.176,167.027 97.066 C 166.739 96.955,166.379 96.369,166.227 95.764 C 166.075 95.158,165.602 94.220,165.175 93.678 C 164.749 93.136,164.400 92.427,164.400 92.104 C 164.400 91.781,163.877 90.742,163.239 89.796 C 162.600 88.849,161.945 87.653,161.784 87.138 C 161.622 86.622,161.155 85.771,160.745 85.246 C 160.335 84.721,160.000 83.965,160.000 83.566 C 160.000 83.167,159.765 82.696,159.478 82.520 C 158.779 82.091,157.200 79.455,157.200 78.715 C 157.200 78.390,156.861 77.817,156.446 77.442 C 156.031 77.066,155.592 76.261,155.470 75.652 C 155.348 75.042,154.608 73.571,153.824 72.381 C 153.041 71.192,152.400 69.927,152.400 69.571 C 152.400 69.215,152.040 68.598,151.600 68.200 C 151.160 67.802,150.800 67.076,150.800 66.587 C 150.800 66.098,150.534 65.477,150.210 65.208 C 149.885 64.938,149.082 63.582,148.426 62.193 C 147.770 60.804,147.046 59.552,146.816 59.410 C 146.587 59.269,146.400 58.802,146.400 58.372 C 146.400 57.943,146.040 57.284,145.600 56.907 C 145.160 56.530,144.800 55.966,144.800 55.653 C 144.800 55.339,144.196 54.164,143.458 53.041 C 142.721 51.919,141.988 50.468,141.830 49.818 C 141.673 49.168,141.196 48.393,140.772 48.095 C 140.347 47.798,140.000 47.288,140.000 46.961 C 140.000 46.635,139.678 45.880,139.284 45.284 C 138.157 43.578,137.654 42.694,137.047 41.349 C 136.736 40.661,136.283 39.975,136.041 39.825 C 135.798 39.675,135.600 39.113,135.600 38.576 C 135.600 38.039,135.280 37.280,134.890 36.890 C 134.196 36.196,132.256 32.799,130.959 30.007 C 130.603 29.240,129.971 28.181,129.556 27.653 C 129.140 27.124,128.800 26.371,128.800 25.979 C 128.800 25.587,128.663 25.207,128.496 25.133 C 128.329 25.060,127.594 24.003,126.863 22.785 C 124.354 18.603,120.914 17.474,116.690 19.446 M175.743 110.200 C 176.073 110.530,176.508 110.800,176.709 110.800 C 176.911 110.800,177.393 111.150,177.779 111.577 C 178.166 112.005,178.992 112.466,179.614 112.603 C 180.994 112.906,181.079 113.011,183.204 117.000 C 184.142 118.760,185.514 121.119,186.254 122.241 C 186.994 123.364,187.600 124.501,187.600 124.768 C 187.600 126.061,190.293 130.737,191.500 131.541 C 192.373 132.123,192.800 132.727,192.800 133.380 C 192.800 133.915,192.961 134.453,193.159 134.574 C 193.792 134.966,195.200 137.993,195.200 138.963 C 195.200 139.480,195.470 140.126,195.800 140.400 C 196.130 140.674,196.400 141.116,196.400 141.383 C 196.400 141.650,197.017 142.663,197.772 143.634 C 198.526 144.605,199.678 146.418,200.331 147.663 C 200.984 148.908,202.235 150.888,203.110 152.063 C 203.986 153.238,204.917 154.872,205.180 155.694 C 205.443 156.515,206.102 157.537,206.645 157.964 C 207.278 158.462,207.735 159.344,207.920 160.429 C 208.101 161.492,208.503 162.282,209.004 162.559 C 209.442 162.802,209.932 163.180,210.094 163.400 C 210.276 163.648,210.390 163.610,210.394 163.300 C 210.397 163.025,210.749 162.800,211.176 162.800 C 211.603 162.800,212.064 162.620,212.200 162.400 C 212.336 162.180,212.726 162.000,213.067 162.000 C 213.851 162.000,213.499 163.680,212.490 164.755 C 212.110 165.159,210.902 166.550,209.805 167.845 C 200.660 178.641,66.584 312.094,68.493 308.500 C 68.580 308.335,68.899 307.570,69.200 306.800 C 69.501 306.030,70.255 304.437,70.874 303.259 C 71.493 302.082,72.000 300.881,72.000 300.590 C 72.000 300.299,72.450 299.527,73.000 298.873 C 73.550 298.219,74.000 297.328,74.000 296.891 C 74.000 296.455,74.273 295.871,74.607 295.594 C 74.941 295.317,75.515 294.440,75.881 293.645 C 76.248 292.850,77.165 291.219,77.919 290.021 C 78.674 288.822,79.548 287.115,79.861 286.227 C 80.174 285.340,80.703 284.198,81.035 283.690 C 82.071 282.109,83.578 279.287,88.024 270.600 C 90.389 265.980,92.787 261.390,93.354 260.400 C 93.921 259.410,94.846 257.616,95.409 256.414 C 95.972 255.211,96.690 253.942,97.006 253.594 C 97.321 253.245,97.831 252.245,98.139 251.372 C 98.448 250.498,99.138 249.137,99.674 248.348 C 100.209 247.559,101.690 244.863,102.964 242.357 C 104.238 239.850,106.230 236.000,107.390 233.800 C 108.551 231.600,110.415 227.983,111.533 225.763 C 112.651 223.543,113.844 221.496,114.183 221.214 C 114.522 220.932,114.800 220.474,114.800 220.194 C 114.800 219.915,115.693 218.002,116.784 215.943 C 117.876 213.885,119.321 211.038,119.996 209.618 C 120.672 208.198,121.481 206.753,121.794 206.406 C 122.108 206.060,124.240 202.087,126.533 197.578 C 128.826 193.069,131.084 188.754,131.550 187.990 C 132.016 187.225,132.398 186.307,132.399 185.949 C 132.399 185.591,132.700 185.051,133.066 184.749 C 133.432 184.447,134.346 182.940,135.096 181.400 C 135.846 179.860,137.224 177.160,138.157 175.400 C 141.612 168.883,144.535 163.355,145.340 161.816 C 145.796 160.944,146.491 159.909,146.884 159.516 C 147.278 159.122,147.600 158.460,147.600 158.045 C 147.600 157.429,148.950 154.691,151.567 150.000 C 151.752 149.670,152.533 148.140,153.304 146.600 C 155.938 141.340,158.513 136.601,159.257 135.646 C 159.666 135.121,160.000 134.438,160.000 134.127 C 160.000 133.655,162.260 129.327,163.618 127.200 C 163.829 126.870,164.364 125.790,164.807 124.800 C 165.539 123.167,166.437 121.470,169.782 115.400 C 173.033 109.499,174.106 108.563,175.743 110.200 M72.720 314.880 C 73.093 315.253,73.307 315.253,73.680 314.880 C 74.053 314.507,73.947 314.400,73.200 314.400 C 72.453 314.400,72.347 314.507,72.720 314.880 M326.320 314.880 C 326.693 315.253,326.907 315.253,327.280 314.880 C 327.653 314.507,327.547 314.400,326.800 314.400 C 326.053 314.400,325.947 314.507,326.320 314.880 M320.278 317.456 C 320.137 317.596,320.113 317.859,320.224 318.038 C 320.473 318.442,321.600 318.048,321.600 317.557 C 321.600 317.147,320.659 317.075,320.278 317.456 M315.000 320.800 C 314.864 321.020,315.123 321.200,315.576 321.200 C 316.029 321.200,316.400 321.020,316.400 320.800 C 316.400 320.580,316.141 320.400,315.824 320.400 C 315.507 320.400,315.136 320.580,315.000 320.800 M312.200 322.400 C 312.060 322.627,312.396 322.800,312.976 322.800 C 313.539 322.800,314.000 322.620,314.000 322.400 C 314.000 322.180,313.651 322.000,313.224 322.000 C 312.797 322.000,312.336 322.180,312.200 322.400 M309.600 324.000 C 309.600 324.220,309.870 324.400,310.200 324.400 C 310.530 324.400,310.800 324.220,310.800 324.000 C 310.800 323.780,310.530 323.600,310.200 323.600 C 309.870 323.600,309.600 323.780,309.600 324.000 M306.623 325.110 C 306.121 325.613,306.459 326.000,307.400 326.000 C 307.950 326.000,308.400 325.841,308.400 325.647 C 308.400 325.228,306.945 324.788,306.623 325.110 M295.600 331.533 C 295.600 332.097,296.051 332.355,296.639 332.130 C 297.474 331.809,297.317 331.200,296.400 331.200 C 295.960 331.200,295.600 331.350,295.600 331.533 M294.000 332.806 C 293.478 333.149,293.475 333.248,293.981 333.574 C 294.678 334.022,295.200 333.766,295.200 332.976 C 295.200 332.306,294.840 332.255,294.000 332.806 M290.446 334.363 C 290.006 334.642,290.076 334.813,290.789 335.194 C 291.762 335.715,292.704 335.216,292.222 334.435 C 291.899 333.913,291.201 333.885,290.446 334.363 M288.100 335.887 C 287.311 336.170,287.518 336.800,288.400 336.800 C 288.840 336.800,289.200 336.631,289.200 336.424 C 289.200 335.912,288.705 335.670,288.100 335.887 M281.604 338.995 C 281.294 339.369,281.344 339.570,281.790 339.741 C 282.480 340.006,283.600 339.673,283.600 339.204 C 283.600 338.638,282.037 338.474,281.604 338.995 M118.800 340.800 C 118.800 341.020,119.261 341.200,119.824 341.200 C 120.404 341.200,120.740 341.027,120.600 340.800 C 120.464 340.580,120.003 340.400,119.576 340.400 C 119.149 340.400,118.800 340.580,118.800 340.800 M274.094 343.483 C 273.033 343.687,273.290 344.400,274.424 344.400 C 274.851 344.400,275.200 344.130,275.200 343.800 C 275.200 343.470,275.155 343.225,275.100 343.254 C 275.045 343.284,274.592 343.387,274.094 343.483 M270.984 345.227 C 270.615 345.822,271.042 346.146,271.808 345.852 C 272.162 345.717,272.339 345.424,272.202 345.203 C 271.878 344.678,271.316 344.689,270.984 345.227 M126.800 345.600 C 126.800 346.106,127.617 346.106,128.400 345.600 C 128.868 345.298,128.757 345.211,127.900 345.206 C 127.295 345.203,126.800 345.380,126.800 345.600 M129.907 347.267 C 130.252 347.612,130.612 347.619,131.287 347.294 C 132.144 346.881,132.116 346.852,130.820 346.827 C 129.768 346.806,129.551 346.911,129.907 347.267 M265.400 348.400 C 265.260 348.627,265.596 348.800,266.176 348.800 C 266.739 348.800,267.200 348.620,267.200 348.400 C 267.200 348.180,266.851 348.000,266.424 348.000 C 265.997 348.000,265.536 348.180,265.400 348.400 M135.400 350.000 C 135.264 350.220,135.523 350.400,135.976 350.400 C 136.429 350.400,136.800 350.220,136.800 350.000 C 136.800 349.780,136.541 349.600,136.224 349.600 C 135.907 349.600,135.536 349.780,135.400 350.000 M263.000 350.000 C 262.864 350.220,262.839 350.400,262.944 350.400 C 263.049 350.400,263.396 350.500,263.716 350.623 C 264.035 350.746,264.404 350.566,264.536 350.223 C 264.807 349.517,263.423 349.316,263.000 350.000 M138.600 351.600 C 138.464 351.820,138.734 352.000,139.200 352.000 C 139.666 352.000,139.936 351.820,139.800 351.600 C 139.664 351.380,139.394 351.200,139.200 351.200 C 139.006 351.200,138.736 351.380,138.600 351.600 M260.200 351.600 C 260.064 351.820,260.334 352.000,260.800 352.000 C 261.266 352.000,261.536 351.820,261.400 351.600 C 261.264 351.380,260.994 351.200,260.800 351.200 C 260.606 351.200,260.336 351.380,260.200 351.600 M257.300 352.665 C 256.448 353.009,256.749 353.600,257.776 353.600 C 258.944 353.600,259.452 352.982,258.565 352.642 C 258.218 352.509,257.904 352.414,257.867 352.432 C 257.830 352.449,257.575 352.554,257.300 352.665 M140.800 353.200 C 140.800 353.420,141.250 353.600,141.800 353.600 C 142.350 353.600,142.800 353.420,142.800 353.200 C 142.800 352.980,142.350 352.800,141.800 352.800 C 141.250 352.800,140.800 352.980,140.800 353.200 M143.375 354.440 C 143.051 354.965,144.376 355.384,144.853 354.907 C 145.119 354.641,144.977 354.435,144.427 354.291 C 143.973 354.172,143.499 354.239,143.375 354.440 M254.275 354.258 C 253.753 354.780,254.002 355.200,254.833 355.200 C 255.299 355.200,255.597 354.990,255.508 354.725 C 255.313 354.140,254.646 353.888,254.275 354.258 M146.213 355.979 C 145.861 356.548,146.310 357.200,147.053 357.200 C 147.403 357.200,147.604 356.919,147.529 356.533 C 147.374 355.730,146.575 355.393,146.213 355.979 M251.481 356.441 C 251.798 356.758,252.132 356.761,252.661 356.454 C 253.309 356.077,253.254 356.023,252.220 356.012 C 251.359 356.003,251.160 356.120,251.481 356.441 M249.000 357.600 C 248.316 357.894,248.301 357.948,248.900 357.972 C 249.285 357.987,249.731 358.014,249.890 358.030 C 250.050 358.047,250.245 357.867,250.323 357.630 C 250.490 357.129,250.116 357.121,249.000 357.600 M246.184 359.227 C 246.039 359.461,246.020 359.753,246.143 359.876 C 246.472 360.205,247.600 359.691,247.600 359.213 C 247.600 358.670,246.521 358.680,246.184 359.227 M154.400 360.800 C 154.400 361.020,154.850 361.200,155.400 361.200 C 155.950 361.200,156.400 361.020,156.400 360.800 C 156.400 360.580,155.950 360.400,155.400 360.400 C 154.850 360.400,154.400 360.580,154.400 360.800 M240.900 361.867 C 240.027 362.216,240.361 362.800,241.433 362.800 C 242.053 362.800,242.403 362.610,242.308 362.325 C 242.121 361.762,241.592 361.590,240.900 361.867 M160.275 363.458 C 159.753 363.980,160.002 364.400,160.833 364.400 C 161.299 364.400,161.597 364.190,161.508 363.925 C 161.313 363.340,160.646 363.088,160.275 363.458 M237.400 364.000 C 237.536 364.220,237.986 364.400,238.400 364.400 C 238.814 364.400,239.264 364.220,239.400 364.000 C 239.545 363.766,239.130 363.600,238.400 363.600 C 237.670 363.600,237.255 363.766,237.400 364.000 M235.300 365.112 C 234.805 365.191,234.400 365.435,234.400 365.655 C 234.400 366.005,235.898 365.773,236.367 365.350 C 236.675 365.072,236.206 364.967,235.300 365.112 M168.184 368.426 C 167.848 368.969,168.681 369.218,169.642 368.863 C 170.550 368.527,170.548 368.522,169.470 368.315 C 168.871 368.201,168.292 368.251,168.184 368.426 M229.400 368.400 C 229.264 368.620,229.534 368.800,230.000 368.800 C 230.466 368.800,230.736 368.620,230.600 368.400 C 230.464 368.180,230.194 368.000,230.000 368.000 C 229.806 368.000,229.536 368.180,229.400 368.400 M224.200 371.600 C 224.064 371.820,224.323 372.000,224.776 372.000 C 225.229 372.000,225.600 371.820,225.600 371.600 C 225.600 371.380,225.341 371.200,225.024 371.200 C 224.707 371.200,224.336 371.380,224.200 371.600 M176.000 373.200 C 176.000 373.420,176.450 373.600,177.000 373.600 C 177.550 373.600,178.000 373.420,178.000 373.200 C 178.000 372.980,177.550 372.800,177.000 372.800 C 176.450 372.800,176.000 372.980,176.000 373.200 M221.520 373.280 C 221.893 373.653,222.107 373.653,222.480 373.280 C 222.853 372.907,222.747 372.800,222.000 372.800 C 221.253 372.800,221.147 372.907,221.520 373.280 M179.056 374.278 C 178.605 374.728,178.781 375.200,179.400 375.200 C 179.730 375.200,180.000 375.031,180.000 374.824 C 180.000 374.319,179.375 373.958,179.056 374.278 M217.600 375.014 C 217.600 375.523,217.754 375.548,218.500 375.160 C 219.824 374.471,219.839 374.400,218.667 374.400 C 217.974 374.400,217.600 374.615,217.600 375.014 M181.815 375.976 C 181.699 376.163,181.868 376.417,182.189 376.541 C 182.511 376.664,182.869 376.612,182.985 376.424 C 183.101 376.237,182.932 375.983,182.611 375.859 C 182.289 375.736,181.931 375.788,181.815 375.976 M215.398 376.003 C 215.081 376.517,216.204 376.961,217.025 376.646 C 217.827 376.338,217.385 375.600,216.400 375.600 C 215.986 375.600,215.535 375.781,215.398 376.003 M212.678 377.456 C 212.206 377.928,212.792 378.327,213.634 378.107 C 214.268 377.941,214.340 377.808,213.934 377.551 C 213.287 377.141,213.013 377.120,212.678 377.456 M191.000 380.800 C 190.856 381.033,191.255 381.200,191.953 381.200 C 192.613 381.200,193.264 381.020,193.400 380.800 C 193.544 380.567,193.145 380.400,192.447 380.400 C 191.787 380.400,191.136 380.580,191.000 380.800 M206.220 380.765 C 206.906 381.426,209.406 381.457,209.000 380.800 C 208.864 380.580,208.097 380.400,207.296 380.400 C 206.407 380.400,205.988 380.542,206.220 380.765 M196.000 382.237 C 196.000 382.510,195.879 383.051,195.731 383.437 C 195.522 383.980,195.614 384.080,196.136 383.880 C 196.507 383.738,197.663 383.513,198.705 383.382 C 202.417 382.914,203.241 382.683,202.767 382.246 C 202.266 381.785,196.000 381.776,196.000 382.237 " stroke="none" fill="#fba410" fill-rule="evenodd"></path><path id="path2" d="M119.200 15.400 C 119.200 15.789,118.778 16.018,118.000 16.050 C 115.847 16.140,115.407 16.208,114.900 16.530 C 114.625 16.704,114.400 16.747,114.400 16.624 C 114.400 16.501,114.040 16.760,113.600 17.200 C 113.160 17.640,112.530 18.000,112.200 18.000 C 111.783 18.000,111.600 18.420,111.600 19.377 C 111.600 20.310,111.337 20.939,110.785 21.326 C 110.043 21.845,109.980 22.254,110.085 25.848 C 110.190 29.460,110.131 29.835,109.400 30.211 C 108.683 30.579,108.588 31.089,108.487 35.111 C 108.402 38.471,108.243 39.600,107.854 39.600 C 107.234 39.600,107.244 39.542,106.954 44.583 C 106.805 47.170,106.540 48.713,106.196 48.983 C 105.833 49.269,105.639 50.654,105.576 53.400 C 105.434 59.626,105.480 60.000,106.392 60.000 C 107.372 60.000,107.526 59.342,107.721 54.336 C 107.828 51.562,108.043 50.300,108.482 49.861 C 108.892 49.451,109.185 48.025,109.373 45.525 C 109.527 43.476,109.908 40.922,110.220 39.850 C 110.532 38.777,110.808 36.212,110.835 34.150 C 110.861 32.087,111.036 30.400,111.223 30.400 C 111.689 30.400,112.395 27.718,112.398 25.933 C 112.410 18.074,122.693 15.837,126.863 22.785 C 127.594 24.003,128.329 25.060,128.496 25.133 C 128.663 25.207,128.800 25.587,128.800 25.979 C 128.800 26.371,129.140 27.124,129.556 27.653 C 129.971 28.181,130.603 29.240,130.959 30.007 C 132.256 32.799,134.196 36.196,134.890 36.890 C 135.280 37.280,135.600 37.967,135.600 38.416 C 135.600 38.865,135.922 39.720,136.316 40.316 C 137.443 42.022,137.946 42.906,138.553 44.251 C 138.864 44.939,139.317 45.625,139.559 45.775 C 139.802 45.925,140.000 46.386,140.000 46.801 C 140.000 47.215,140.347 47.798,140.772 48.095 C 141.196 48.393,141.673 49.168,141.830 49.818 C 141.988 50.468,142.721 51.919,143.458 53.041 C 144.196 54.164,144.800 55.339,144.800 55.653 C 144.800 55.966,145.160 56.530,145.600 56.907 C 146.040 57.284,146.400 57.943,146.400 58.372 C 146.400 58.802,146.587 59.269,146.816 59.410 C 147.046 59.552,147.770 60.804,148.426 62.193 C 149.082 63.582,149.885 64.938,150.210 65.208 C 150.534 65.477,150.800 66.098,150.800 66.587 C 150.800 67.076,151.160 67.802,151.600 68.200 C 152.040 68.598,152.400 69.215,152.400 69.571 C 152.400 69.927,153.041 71.192,153.824 72.381 C 154.608 73.571,155.348 75.042,155.470 75.652 C 155.592 76.261,156.031 77.066,156.446 77.442 C 156.861 77.817,157.200 78.390,157.200 78.715 C 157.200 79.455,158.779 82.091,159.478 82.520 C 159.765 82.696,160.000 83.167,160.000 83.566 C 160.000 83.965,160.335 84.721,160.745 85.246 C 161.155 85.771,161.622 86.622,161.784 87.138 C 161.945 87.653,162.600 88.849,163.239 89.796 C 163.877 90.742,164.400 91.781,164.400 92.104 C 164.400 92.427,164.749 93.136,165.175 93.678 C 165.602 94.220,166.075 95.158,166.227 95.764 C 166.379 96.369,166.739 96.955,167.027 97.066 C 167.315 97.176,167.668 97.800,167.812 98.452 C 168.100 99.767,169.956 102.800,170.471 102.800 C 170.652 102.800,170.800 103.136,170.800 103.546 C 170.800 103.956,171.135 104.721,171.545 105.246 C 171.955 105.771,172.420 106.615,172.579 107.123 C 172.939 108.270,174.693 108.203,175.360 107.017 C 175.602 106.586,176.025 105.988,176.300 105.688 C 176.575 105.388,176.800 104.921,176.800 104.650 C 176.800 104.379,177.361 103.395,178.046 102.463 C 178.731 101.531,179.460 100.022,179.665 99.109 C 179.870 98.196,180.389 97.203,180.819 96.902 C 181.249 96.601,181.600 96.039,181.600 95.653 C 181.600 95.267,181.960 94.564,182.400 94.092 C 182.840 93.620,183.200 92.978,183.200 92.666 C 183.200 92.353,183.463 91.880,183.785 91.613 C 184.106 91.346,184.491 90.742,184.641 90.272 C 184.790 89.801,185.259 88.947,185.682 88.375 C 186.105 87.803,186.495 87.079,186.548 86.767 C 186.601 86.455,187.220 85.057,187.923 83.659 C 188.625 82.261,189.200 80.861,189.200 80.546 C 189.200 80.232,189.454 79.878,189.764 79.759 C 190.074 79.639,190.449 79.060,190.596 78.471 C 190.744 77.882,191.210 77.078,191.632 76.684 C 192.055 76.291,192.400 75.602,192.400 75.153 C 192.400 73.330,197.550 69.629,200.116 69.609 C 201.369 69.599,204.079 70.864,205.117 71.944 C 206.130 72.998,207.600 75.116,207.600 75.522 C 207.600 75.717,207.960 76.202,208.400 76.600 C 208.840 76.998,209.200 77.523,209.200 77.765 C 209.200 78.325,211.119 81.995,211.849 82.831 C 212.152 83.179,212.400 83.736,212.400 84.070 C 212.400 84.404,212.760 85.093,213.200 85.600 C 213.640 86.107,214.000 86.778,214.000 87.091 C 214.000 87.559,216.052 91.480,217.616 94.000 C 217.821 94.330,218.257 95.140,218.586 95.800 C 218.915 96.460,219.368 97.315,219.592 97.700 C 219.816 98.085,220.182 98.715,220.405 99.100 C 220.628 99.485,221.153 100.545,221.572 101.456 C 221.991 102.367,222.529 103.232,222.767 103.380 C 223.005 103.527,223.200 104.059,223.200 104.562 C 223.200 105.065,223.560 105.802,224.000 106.200 C 224.440 106.598,224.800 107.245,224.800 107.638 C 224.800 108.031,224.982 108.465,225.203 108.602 C 225.425 108.739,226.233 110.190,226.999 111.826 C 227.765 113.462,228.574 114.800,228.796 114.800 C 229.018 114.800,229.200 115.136,229.200 115.546 C 229.200 115.956,229.560 116.750,230.000 117.309 C 230.440 117.869,230.800 118.529,230.800 118.776 C 230.800 119.630,232.764 123.101,233.381 123.338 C 233.722 123.468,234.000 124.047,234.000 124.624 C 234.000 125.202,234.360 126.131,234.800 126.691 C 235.240 127.250,235.600 127.926,235.600 128.192 C 235.600 128.458,235.960 129.002,236.400 129.400 C 236.840 129.798,237.200 130.349,237.200 130.625 C 237.200 131.368,239.258 135.200,239.657 135.200 C 239.846 135.200,240.000 136.040,240.000 137.067 L 240.000 138.933 227.500 151.402 C 220.625 158.260,213.380 165.639,211.400 167.798 C 204.659 175.152,68.425 311.263,68.043 311.027 C 67.834 310.897,67.540 309.642,67.389 308.237 C 66.913 303.788,65.833 304.834,65.672 309.901 L 65.545 313.928 66.972 314.444 C 67.758 314.728,68.400 315.195,68.400 315.480 C 68.400 315.766,68.807 316.000,69.304 316.000 C 69.801 316.000,70.425 316.347,70.690 316.772 C 70.955 317.197,71.673 317.602,72.286 317.672 C 72.953 317.749,73.400 318.041,73.400 318.400 C 73.400 318.998,73.549 319.055,75.353 319.150 C 75.944 319.181,76.386 319.504,76.516 320.000 C 76.667 320.578,77.062 320.800,77.936 320.800 C 78.795 320.800,79.220 321.032,79.400 321.600 C 79.587 322.188,80.005 322.400,80.980 322.400 C 81.995 322.400,82.359 322.599,82.528 323.247 C 82.713 323.953,82.986 324.066,84.175 323.927 C 85.342 323.791,85.600 323.891,85.600 324.480 C 85.600 324.925,85.895 325.200,86.373 325.200 C 86.798 325.200,87.260 325.560,87.400 326.000 C 87.578 326.560,88.005 326.800,88.827 326.800 C 89.563 326.800,90.000 327.008,90.000 327.357 C 90.000 328.002,90.852 328.400,92.233 328.400 C 92.835 328.400,93.200 328.631,93.200 329.013 C 93.200 329.349,93.515 329.741,93.900 329.883 C 94.285 330.025,94.728 330.335,94.885 330.571 C 95.042 330.807,95.312 331.016,95.485 331.035 C 96.103 331.102,97.417 331.758,98.462 332.520 C 99.046 332.946,99.709 333.180,99.935 333.040 C 100.160 332.901,100.605 333.157,100.922 333.611 C 101.240 334.064,102.017 334.529,102.648 334.643 C 103.280 334.758,103.942 335.110,104.118 335.426 C 104.302 335.754,105.039 336.000,105.837 336.000 C 106.947 336.000,107.211 336.144,107.118 336.700 C 107.026 337.246,107.329 337.427,108.500 337.524 C 109.654 337.620,110.000 337.821,110.000 338.396 C 110.000 338.865,110.336 339.196,110.900 339.282 C 111.395 339.357,111.755 339.640,111.700 339.909 C 111.645 340.179,111.780 340.422,112.000 340.450 C 112.220 340.478,112.580 340.545,112.800 340.600 C 113.020 340.655,113.548 340.723,113.973 340.750 C 114.398 340.777,114.859 341.156,114.997 341.592 C 115.136 342.027,115.373 342.366,115.524 342.345 C 116.921 342.146,118.022 342.473,117.918 343.055 C 117.846 343.451,118.111 343.758,118.589 343.832 C 119.023 343.900,119.583 344.235,119.833 344.578 C 120.083 344.920,120.853 345.200,121.544 345.200 C 122.351 345.200,122.800 345.399,122.800 345.757 C 122.800 346.369,123.641 346.800,124.833 346.800 C 125.333 346.800,125.600 347.078,125.600 347.600 C 125.600 348.245,125.867 348.400,126.973 348.400 C 127.995 348.400,128.411 348.605,128.600 349.200 C 128.789 349.795,129.205 350.000,130.227 350.000 C 131.134 350.000,131.600 350.189,131.600 350.557 C 131.600 351.202,132.452 351.600,133.833 351.600 C 134.533 351.600,134.800 351.821,134.800 352.400 C 134.800 352.933,135.067 353.200,135.600 353.200 C 136.040 353.200,136.400 353.462,136.400 353.782 C 136.400 354.133,136.969 354.470,137.832 354.632 C 138.619 354.780,139.359 355.148,139.475 355.451 C 139.594 355.762,140.254 356.000,140.996 356.000 C 141.970 356.000,142.360 356.205,142.516 356.800 C 142.676 357.413,143.062 357.600,144.163 357.600 C 145.333 357.600,145.600 357.748,145.600 358.400 C 145.600 358.987,145.867 359.200,146.600 359.200 C 147.150 359.200,147.600 359.380,147.600 359.600 C 147.600 359.820,147.870 360.000,148.200 360.000 C 148.530 360.000,148.800 360.180,148.800 360.400 C 148.800 360.620,149.171 360.800,149.624 360.800 C 150.077 360.800,150.344 360.968,150.217 361.172 C 149.945 361.612,150.677 362.130,151.800 362.293 C 153.144 362.488,153.662 362.776,153.409 363.185 C 153.129 363.639,154.963 364.194,155.548 363.832 C 155.765 363.698,156.057 363.951,156.198 364.394 C 156.389 364.996,156.802 365.200,157.827 365.200 C 158.817 365.200,159.200 365.378,159.200 365.837 C 159.200 366.188,159.554 366.567,159.987 366.681 C 160.419 366.794,160.883 367.232,161.017 367.654 C 161.151 368.076,161.472 368.395,161.730 368.363 C 163.117 368.192,163.927 368.476,164.116 369.200 C 164.267 369.778,164.662 370.000,165.536 370.000 C 166.347 370.000,166.821 370.236,166.973 370.715 C 167.098 371.108,167.578 371.458,168.040 371.493 C 168.502 371.528,169.109 371.869,169.388 372.252 C 169.672 372.639,170.496 372.980,171.248 373.020 C 173.165 373.124,173.200 373.138,173.200 373.773 C 173.200 374.088,173.543 374.455,173.963 374.588 C 174.383 374.721,174.827 375.094,174.950 375.415 C 175.081 375.756,175.697 376.000,176.425 376.000 C 177.338 376.000,177.731 376.215,177.884 376.800 C 178.041 377.401,178.430 377.600,179.447 377.600 C 180.672 377.600,181.004 377.908,180.847 378.900 C 180.821 379.065,181.520 379.200,182.400 379.200 C 183.570 379.200,184.000 379.365,184.000 379.813 C 184.000 380.149,184.315 380.545,184.700 380.692 C 185.085 380.839,185.749 381.284,186.175 381.680 C 186.602 382.076,187.294 382.400,187.712 382.400 C 188.131 382.400,188.925 382.755,189.476 383.189 C 191.140 384.498,195.575 384.225,195.861 382.797 C 196.054 381.830,201.817 381.371,202.767 382.246 C 203.244 382.686,202.430 382.911,198.610 383.395 C 196.297 383.688,196.128 383.791,196.742 384.530 C 197.454 385.388,203.112 385.312,203.579 384.439 C 203.860 383.915,204.490 383.787,206.587 383.827 C 208.666 383.867,209.344 383.731,209.720 383.200 C 209.984 382.827,210.867 382.398,211.682 382.246 C 212.757 382.046,213.102 381.810,212.939 381.385 C 212.740 380.866,213.898 380.548,215.276 380.745 C 215.427 380.766,215.664 380.427,215.803 379.992 C 215.941 379.556,216.402 379.200,216.827 379.200 C 217.367 379.200,217.600 378.923,217.600 378.280 C 217.600 377.462,217.757 377.379,219.025 377.527 C 220.214 377.666,220.487 377.553,220.672 376.847 C 220.842 376.198,221.205 376.000,222.227 376.000 C 223.020 376.000,223.702 375.747,223.910 375.375 C 224.225 374.812,224.954 374.518,226.253 374.431 C 226.503 374.414,226.804 374.026,226.924 373.570 C 227.055 373.068,227.429 372.770,227.870 372.816 C 229.355 372.971,230.000 372.784,230.000 372.200 C 230.000 371.668,230.237 371.536,231.030 371.626 C 231.157 371.641,231.583 371.281,231.977 370.826 C 232.371 370.372,233.168 370.000,233.747 370.000 C 234.533 370.000,234.800 369.797,234.800 369.200 C 234.800 368.572,235.067 368.400,236.037 368.400 C 236.938 368.400,237.332 368.183,237.484 367.600 C 237.648 366.973,238.030 366.800,239.247 366.800 C 240.533 366.800,240.800 366.663,240.800 366.000 C 240.800 365.355,241.067 365.200,242.173 365.200 C 243.211 365.200,243.610 364.998,243.809 364.371 C 243.967 363.873,244.297 363.628,244.636 363.759 C 245.017 363.905,245.200 363.686,245.200 363.085 C 245.200 362.275,245.363 362.207,246.992 362.337 C 248.641 362.468,248.914 362.348,250.408 360.840 C 251.564 359.672,252.364 359.200,253.189 359.200 C 253.995 359.200,254.423 358.957,254.600 358.400 C 254.789 357.805,255.205 357.600,256.227 357.600 C 257.333 357.600,257.600 357.445,257.600 356.800 C 257.600 356.267,257.867 356.000,258.400 356.000 C 258.844 356.000,259.200 355.733,259.200 355.400 C 259.200 354.886,260.413 354.565,261.676 354.745 C 261.827 354.766,262.064 354.427,262.203 353.992 C 262.432 353.269,262.950 353.045,264.288 353.091 C 264.556 353.100,264.883 352.768,265.015 352.354 C 265.233 351.667,266.137 351.388,267.531 351.577 C 267.823 351.617,268.156 351.288,268.272 350.846 C 268.425 350.260,268.876 350.011,269.941 349.922 C 270.917 349.840,271.400 349.601,271.400 349.200 C 271.400 348.795,271.889 348.560,272.900 348.476 C 273.927 348.391,274.400 348.158,274.400 347.738 C 274.400 347.401,274.760 347.031,275.200 346.916 C 275.643 346.800,276.000 346.370,276.000 345.953 C 276.000 345.369,276.294 345.200,277.311 345.200 C 278.136 345.200,278.881 344.897,279.322 344.383 C 279.707 343.934,280.198 343.675,280.414 343.809 C 281.027 344.188,282.400 343.610,282.400 342.973 C 282.400 342.658,282.760 342.400,283.200 342.400 C 283.640 342.400,284.360 342.040,284.800 341.600 C 285.240 341.160,285.870 340.800,286.200 340.800 C 286.533 340.800,286.800 340.444,286.800 340.000 C 286.800 339.348,287.067 339.200,288.237 339.200 C 289.338 339.200,289.724 339.013,289.884 338.400 C 290.041 337.799,290.430 337.600,291.447 337.600 C 292.672 337.600,293.004 337.292,292.847 336.300 C 292.821 336.135,293.520 336.000,294.400 336.000 C 295.556 336.000,296.000 335.833,296.000 335.400 C 296.000 335.070,296.225 334.773,296.500 334.739 C 296.775 334.706,297.180 334.636,297.400 334.585 C 297.620 334.534,298.115 334.472,298.500 334.446 C 298.885 334.421,299.200 334.152,299.200 333.849 C 299.200 333.545,299.740 333.073,300.400 332.800 C 301.060 332.527,301.600 332.159,301.600 331.983 C 301.600 331.807,302.136 331.546,302.790 331.402 C 303.445 331.258,303.940 330.929,303.890 330.670 C 303.837 330.394,304.419 330.149,305.300 330.076 C 306.475 329.979,306.800 329.784,306.800 329.176 C 306.800 328.667,307.075 328.400,307.600 328.400 C 308.093 328.400,308.402 328.131,308.406 327.700 C 308.411 327.102,308.469 327.087,308.800 327.600 C 309.149 328.140,309.372 327.890,309.247 327.100 C 309.221 326.935,309.937 326.800,310.837 326.800 C 312.138 326.800,312.518 326.636,312.684 326.000 C 312.821 325.475,313.230 325.200,313.870 325.200 C 314.408 325.200,314.743 325.031,314.615 324.825 C 314.287 324.294,315.564 323.665,316.480 323.905 C 317.022 324.047,317.313 323.855,317.470 323.253 C 317.644 322.589,318.001 322.400,319.084 322.400 C 320.138 322.400,320.525 322.206,320.684 321.600 C 320.817 321.092,321.230 320.800,321.814 320.800 C 323.130 320.800,324.000 320.398,324.000 319.789 C 324.000 319.500,324.525 319.148,325.167 319.007 C 325.808 318.866,326.433 318.492,326.554 318.176 C 326.676 317.859,327.141 317.600,327.587 317.600 C 328.133 317.600,328.400 317.337,328.400 316.800 C 328.400 316.151,328.667 316.000,329.813 316.000 C 330.699 316.000,331.311 315.777,331.455 315.400 C 331.582 315.070,332.103 314.800,332.614 314.800 C 334.761 314.800,335.919 308.668,334.046 307.219 C 333.352 306.683,333.232 306.065,333.152 302.600 C 333.079 299.413,332.921 298.477,332.377 297.994 C 331.833 297.511,331.663 296.498,331.540 292.994 C 331.381 288.502,331.022 287.006,330.356 288.057 C 330.154 288.376,330.010 286.425,330.006 283.327 C 330.000 278.408,329.946 278.037,329.200 277.800 C 328.467 277.567,328.400 277.195,328.400 273.336 C 328.400 269.462,328.336 269.108,327.600 268.916 C 326.857 268.722,326.800 268.370,326.800 263.957 C 326.800 259.640,326.727 259.161,326.000 258.707 C 325.277 258.256,325.200 257.774,325.200 253.724 C 325.200 250.277,325.069 249.166,324.634 248.920 C 324.216 248.683,324.032 247.471,323.928 244.269 C 323.812 240.667,323.671 239.872,323.094 239.549 C 322.504 239.219,322.400 238.532,322.400 234.984 C 322.400 231.240,322.317 230.755,321.600 230.307 C 320.881 229.858,320.800 229.374,320.800 225.531 C 320.800 221.605,320.734 221.233,320.000 221.000 C 319.265 220.767,319.200 220.395,319.200 216.400 C 319.200 212.405,319.135 212.033,318.400 211.800 C 317.661 211.566,317.600 211.195,317.600 206.973 C 317.600 202.667,317.553 202.400,316.800 202.400 C 316.041 202.400,316.000 202.133,316.000 197.187 C 316.000 192.923,315.891 191.933,315.400 191.745 C 314.928 191.564,314.800 190.746,314.800 187.920 C 314.800 184.662,314.725 184.306,314.000 184.116 C 313.252 183.920,312.805 179.286,313.173 175.535 C 313.209 175.170,313.047 174.752,312.813 174.608 C 312.578 174.463,312.491 174.176,312.619 173.970 C 312.746 173.763,312.569 173.486,312.225 173.354 C 311.709 173.156,311.600 172.321,311.600 168.557 C 311.600 164.533,311.506 163.906,310.800 163.200 C 310.107 162.507,310.000 161.867,310.000 158.400 C 310.000 155.851,309.846 154.400,309.576 154.400 C 309.343 154.400,309.283 154.189,309.442 153.932 C 309.632 153.625,309.520 153.545,309.118 153.700 C 308.599 153.899,308.491 153.399,308.421 150.468 C 308.306 145.676,308.151 144.717,307.428 144.312 C 306.914 144.024,306.800 143.125,306.800 139.380 C 306.800 135.067,306.753 134.800,306.000 134.800 C 305.254 134.800,305.200 134.533,305.200 130.829 C 305.200 127.832,305.053 126.710,304.600 126.257 C 304.153 125.811,303.999 124.704,303.995 121.929 C 303.988 117.689,303.746 116.400,302.953 116.400 C 302.516 116.400,302.400 115.487,302.400 112.049 C 302.400 108.167,302.315 107.638,301.610 107.149 C 300.913 106.665,300.813 106.093,300.762 102.312 C 300.711 98.494,300.622 97.997,299.952 97.785 C 299.408 97.612,299.200 97.166,299.200 96.173 C 299.200 95.333,298.889 94.489,298.400 94.000 C 297.960 93.560,297.600 92.941,297.600 92.624 C 297.600 91.809,297.151 91.620,295.029 91.539 C 294.004 91.501,293.377 91.338,293.636 91.177 C 294.511 90.637,292.538 90.000,289.989 90.000 C 287.862 90.000,287.497 90.109,287.316 90.800 C 287.157 91.406,286.770 91.600,285.716 91.600 C 284.662 91.600,284.275 91.794,284.116 92.400 C 284.000 92.843,283.570 93.200,283.153 93.200 C 282.667 93.200,282.400 93.483,282.400 94.000 C 282.400 94.533,282.133 94.800,281.600 94.800 C 281.160 94.800,280.800 95.058,280.800 95.373 C 280.800 95.688,280.440 96.060,280.000 96.200 C 279.560 96.340,279.200 96.712,279.200 97.027 C 279.200 97.342,278.913 97.600,278.563 97.600 C 278.212 97.600,277.831 97.960,277.716 98.400 C 277.601 98.840,277.258 99.200,276.953 99.200 C 276.649 99.200,276.400 99.468,276.400 99.797 C 276.400 100.125,276.040 100.618,275.600 100.893 C 275.160 101.168,274.800 101.619,274.800 101.896 C 274.800 102.173,274.440 102.400,274.000 102.400 C 273.467 102.400,273.200 102.667,273.200 103.200 C 273.200 103.665,272.933 104.000,272.563 104.000 C 272.212 104.000,271.831 104.360,271.716 104.800 C 271.601 105.240,271.252 105.600,270.941 105.600 C 270.630 105.600,270.274 105.863,270.150 106.185 C 270.027 106.506,269.583 106.879,269.163 107.012 C 268.743 107.145,268.400 107.512,268.400 107.827 C 268.400 108.142,268.130 108.400,267.800 108.400 C 267.259 108.400,267.022 108.875,267.153 109.700 C 267.179 109.865,266.840 110.000,266.400 110.000 C 265.867 110.000,265.600 110.267,265.600 110.800 C 265.600 111.516,265.184 111.787,264.300 111.647 C 264.135 111.621,264.000 111.960,264.000 112.400 C 264.000 112.933,263.733 113.200,263.200 113.200 C 262.667 113.200,262.400 113.467,262.400 114.000 C 262.400 114.533,262.133 114.800,261.600 114.800 C 261.135 114.800,260.800 115.067,260.800 115.437 C 260.800 115.788,260.457 116.165,260.037 116.274 C 259.617 116.384,259.183 116.822,259.071 117.248 C 258.960 117.674,258.637 117.973,258.353 117.911 C 258.069 117.850,257.829 118.160,257.819 118.600 C 257.807 119.111,257.564 119.362,257.148 119.294 C 256.775 119.233,256.407 119.532,256.286 119.994 C 256.170 120.437,255.788 120.800,255.437 120.800 C 255.067 120.800,254.800 121.135,254.800 121.600 C 254.800 122.133,254.533 122.400,254.000 122.400 C 253.467 122.400,253.200 122.667,253.200 123.200 C 253.200 123.733,252.933 124.000,252.400 124.000 C 251.867 124.000,251.600 124.267,251.600 124.800 C 251.600 125.333,251.333 125.600,250.800 125.600 C 250.360 125.600,250.000 125.858,250.000 126.173 C 250.000 126.488,249.637 126.861,249.194 127.002 C 248.751 127.143,248.499 127.437,248.634 127.656 C 248.770 127.875,248.502 128.153,248.040 128.274 C 247.276 128.474,247.023 128.879,247.153 129.700 C 247.179 129.865,246.840 130.000,246.400 130.000 C 245.867 130.000,245.600 130.267,245.600 130.800 C 245.600 131.333,245.333 131.600,244.800 131.600 C 244.267 131.600,244.000 131.867,244.000 132.400 C 244.000 132.933,243.733 133.200,243.200 133.200 C 242.667 133.200,242.400 133.467,242.400 134.000 C 242.400 134.533,242.133 134.800,241.600 134.800 C 240.933 134.800,240.800 134.533,240.800 133.200 C 240.800 131.867,240.667 131.600,240.000 131.600 C 239.355 131.600,239.200 131.333,239.200 130.227 C 239.200 129.205,238.995 128.789,238.400 128.600 C 237.805 128.411,237.600 127.995,237.600 126.973 C 237.600 125.867,237.445 125.600,236.800 125.600 C 236.151 125.600,236.000 125.333,236.000 124.187 C 236.000 123.301,235.777 122.689,235.400 122.545 C 235.025 122.401,234.800 121.790,234.800 120.920 C 234.800 119.862,234.607 119.475,234.000 119.316 C 233.560 119.201,233.178 118.948,233.150 118.753 C 233.123 118.559,233.055 118.220,233.000 118.000 C 232.945 117.780,232.878 117.330,232.850 117.000 C 232.822 116.670,232.530 116.400,232.200 116.400 C 231.778 116.400,231.600 115.974,231.600 114.963 C 231.600 113.862,231.413 113.476,230.800 113.316 C 230.203 113.160,230.000 112.770,230.000 111.780 C 230.000 110.805,229.788 110.387,229.200 110.200 C 228.612 110.013,228.400 109.595,228.400 108.620 C 228.400 107.630,228.197 107.240,227.600 107.084 C 227.160 106.969,226.800 106.588,226.800 106.237 C 226.800 105.867,226.465 105.600,226.000 105.600 C 225.333 105.600,225.200 105.333,225.200 104.000 C 225.200 102.691,225.061 102.400,224.435 102.400 C 223.847 102.400,223.697 102.157,223.786 101.350 C 223.854 100.731,223.593 99.993,223.150 99.550 C 222.702 99.102,222.400 98.236,222.400 97.400 C 222.400 96.533,222.095 95.695,221.600 95.200 C 221.160 94.760,220.800 94.130,220.800 93.800 C 220.800 93.467,220.444 93.200,220.000 93.200 C 219.355 93.200,219.200 92.933,219.200 91.827 C 219.200 90.805,218.995 90.389,218.400 90.200 C 217.805 90.011,217.600 89.595,217.600 88.573 C 217.600 87.328,217.296 86.995,216.300 87.153 C 216.135 87.179,216.000 86.840,216.000 86.400 C 216.000 85.887,215.733 85.600,215.256 85.600 C 214.641 85.600,214.531 85.334,214.622 84.062 C 214.704 82.908,214.490 82.242,213.766 81.399 C 213.235 80.781,212.800 79.894,212.800 79.427 C 212.800 78.960,212.432 78.263,211.983 77.878 C 211.534 77.493,211.266 77.016,211.389 76.818 C 211.511 76.620,211.249 76.343,210.806 76.202 C 210.204 76.011,210.000 75.598,210.000 74.573 C 210.000 73.467,209.845 73.200,209.200 73.200 C 208.533 73.200,208.400 72.933,208.400 71.600 C 208.400 70.267,208.267 70.000,207.600 70.000 C 207.160 70.000,206.800 69.742,206.800 69.427 C 206.800 69.112,206.440 68.740,206.000 68.600 C 205.560 68.460,205.200 68.111,205.200 67.823 C 205.200 66.214,195.097 66.420,194.674 68.037 C 194.565 68.457,194.188 68.800,193.837 68.800 C 193.487 68.800,193.200 68.974,193.200 69.187 C 193.200 69.399,192.577 70.197,191.815 70.959 C 191.053 71.721,190.303 72.852,190.148 73.472 C 189.994 74.092,189.634 74.780,189.349 75.000 C 189.064 75.220,188.724 76.027,188.593 76.793 C 188.463 77.559,188.060 78.513,187.699 78.912 C 187.337 79.312,187.003 79.896,186.957 80.211 C 186.911 80.526,186.587 81.070,186.237 81.421 C 185.678 81.979,185.435 83.045,185.491 84.688 C 185.500 84.956,185.187 85.277,184.797 85.401 C 184.406 85.525,183.994 85.981,183.881 86.413 C 183.767 86.846,183.388 87.200,183.037 87.200 C 182.585 87.200,182.400 87.577,182.400 88.504 C 182.400 89.374,182.134 89.974,181.600 90.307 C 181.090 90.626,180.800 91.240,180.800 92.003 C 180.800 92.933,180.622 93.200,180.000 93.200 C 179.333 93.200,179.200 93.467,179.200 94.800 C 179.200 95.900,179.026 96.400,178.643 96.400 C 178.072 96.400,177.417 98.181,177.775 98.760 C 177.885 98.938,177.511 99.294,176.944 99.553 C 176.182 99.900,175.969 100.236,176.127 100.841 C 176.261 101.356,176.056 101.903,175.570 102.318 C 175.147 102.681,174.786 103.433,174.768 103.989 C 174.751 104.545,174.646 104.775,174.535 104.500 C 174.424 104.225,174.078 104.000,173.767 104.000 C 173.455 104.000,173.200 103.705,173.200 103.344 C 173.200 102.983,172.885 102.430,172.500 102.114 C 172.042 101.739,172.007 101.630,172.400 101.800 C 172.793 101.970,172.758 101.861,172.300 101.486 C 171.915 101.170,171.600 100.605,171.600 100.230 C 171.600 99.230,170.820 97.940,170.380 98.212 C 170.164 98.346,170.000 97.757,170.000 96.851 C 170.000 95.605,169.824 95.198,169.200 95.000 C 168.760 94.860,168.400 94.471,168.400 94.136 C 168.400 93.800,168.040 93.431,167.600 93.316 C 166.973 93.152,166.800 92.770,166.800 91.553 C 166.800 90.267,166.663 90.000,166.000 90.000 C 165.370 90.000,165.200 89.733,165.200 88.744 C 165.200 88.053,164.933 87.288,164.607 87.044 C 164.282 86.800,163.952 86.170,163.874 85.643 C 163.797 85.117,163.448 84.478,163.098 84.222 C 162.748 83.967,162.403 83.137,162.331 82.379 C 162.246 81.484,161.991 81.000,161.605 81.000 C 161.278 81.000,160.946 80.640,160.866 80.200 C 160.786 79.760,160.390 79.040,159.986 78.600 C 159.372 77.931,159.029 76.890,158.833 75.100 C 158.815 74.935,158.530 74.800,158.200 74.800 C 157.867 74.800,157.600 74.444,157.600 74.000 C 157.600 73.467,157.333 73.200,156.800 73.200 C 156.151 73.200,156.000 72.933,156.000 71.787 C 156.000 70.901,155.777 70.289,155.400 70.145 C 155.060 70.014,154.800 69.418,154.800 68.771 C 154.800 68.038,154.514 67.475,154.000 67.200 C 153.560 66.965,153.200 66.433,153.200 66.019 C 153.200 64.868,152.771 64.000,152.202 64.000 C 151.920 64.000,151.574 63.387,151.434 62.639 C 151.293 61.890,150.913 61.176,150.589 61.051 C 150.229 60.913,150.000 60.293,150.000 59.459 C 150.000 58.430,149.803 58.042,149.200 57.884 C 148.760 57.769,148.400 57.400,148.400 57.064 C 148.400 56.729,148.040 56.340,147.600 56.200 C 147.005 56.011,146.800 55.595,146.800 54.573 C 146.800 53.467,146.645 53.200,146.000 53.200 C 145.354 53.200,145.200 52.933,145.200 51.814 C 145.200 50.827,144.964 50.302,144.381 49.990 C 143.821 49.690,143.638 49.310,143.803 48.791 C 143.959 48.298,143.755 47.782,143.222 47.326 C 142.770 46.939,142.400 46.317,142.400 45.944 C 142.400 44.850,141.955 44.000,141.381 44.000 C 141.054 44.000,140.800 43.421,140.724 42.500 C 140.640 41.489,140.405 41.000,140.000 41.000 C 139.595 41.000,139.360 40.511,139.276 39.500 C 139.194 38.506,138.954 38.000,138.566 38.000 C 138.244 38.000,137.802 37.532,137.585 36.959 C 137.325 36.277,136.984 35.997,136.594 36.147 C 136.131 36.325,136.000 36.031,136.000 34.816 C 136.000 33.959,135.730 32.987,135.400 32.657 C 135.070 32.327,134.800 31.713,134.800 31.293 C 134.800 30.872,134.379 30.337,133.864 30.102 C 133.223 29.810,132.954 29.380,133.009 28.738 C 133.101 27.682,132.493 26.696,131.955 27.028 C 131.660 27.210,131.386 25.355,131.553 24.300 C 131.579 24.135,131.240 24.000,130.800 24.000 C 130.148 24.000,130.000 23.733,130.000 22.563 C 130.000 21.492,129.808 21.075,129.248 20.928 C 128.835 20.820,128.334 20.167,128.136 19.478 C 127.871 18.553,127.447 18.129,126.522 17.864 C 125.833 17.666,125.181 17.172,125.075 16.767 C 124.950 16.287,124.606 16.083,124.090 16.183 C 123.654 16.267,122.819 16.088,122.235 15.785 C 121.651 15.482,121.280 15.406,121.410 15.617 C 121.541 15.828,121.457 16.000,121.224 16.000 C 120.991 16.000,120.800 15.730,120.800 15.400 C 120.800 15.067,120.444 14.800,120.000 14.800 C 119.556 14.800,119.200 15.067,119.200 15.400 M104.000 65.012 C 104.000 69.126,104.640 70.699,105.670 69.114 C 106.501 67.833,105.857 61.003,104.900 60.955 C 104.022 60.910,104.000 61.010,104.000 65.012 M102.880 69.680 C 102.561 69.999,102.400 71.742,102.400 74.880 C 102.400 79.106,102.327 79.601,101.700 79.606 C 101.164 79.611,101.125 79.691,101.534 79.950 C 101.963 80.223,101.944 80.336,101.434 80.532 C 100.720 80.806,100.495 87.699,101.166 88.758 C 101.950 89.997,102.798 88.886,102.881 86.513 C 103.006 82.929,102.980 82.295,102.647 80.900 C 102.375 79.761,102.436 79.600,103.141 79.600 C 104.252 79.600,104.501 78.536,104.469 73.928 C 104.436 69.251,104.129 68.431,102.880 69.680 M99.478 90.300 C 98.811 91.483,99.287 98.800,100.031 98.800 C 102.215 98.800,102.108 90.055,99.924 90.006 C 99.772 90.003,99.571 90.135,99.478 90.300 M98.040 100.070 C 97.460 101.586,97.604 108.716,98.220 108.952 C 99.369 109.393,99.800 107.946,99.800 103.647 C 99.800 99.231,98.991 97.587,98.040 100.070 M96.542 110.478 C 96.359 110.765,96.178 112.440,96.139 114.200 C 96.049 118.253,96.095 118.000,95.444 118.000 C 94.559 118.000,94.516 127.516,95.399 127.855 C 96.429 128.250,96.593 127.738,96.737 123.667 C 96.840 120.777,97.042 119.613,97.537 119.058 C 98.515 117.964,98.515 110.279,97.537 110.086 C 97.173 110.015,96.725 110.191,96.542 110.478 M93.900 128.848 C 92.914 129.400,92.839 138.287,93.817 138.662 C 94.812 139.044,94.931 138.621,95.119 134.049 C 95.313 129.343,95.047 128.206,93.900 128.848 M91.867 139.467 C 91.720 139.613,91.600 141.404,91.600 143.447 C 91.600 146.568,91.488 147.223,90.900 147.552 C 89.861 148.133,89.840 157.314,90.878 157.517 C 91.905 157.719,92.545 154.819,92.213 151.458 C 91.971 148.999,92.029 148.632,92.771 147.941 C 93.227 147.516,93.607 146.681,93.615 146.084 C 93.623 145.488,93.730 144.308,93.853 143.463 C 94.297 140.398,93.181 138.153,91.867 139.467 M88.583 159.701 C 87.687 162.035,89.121 168.756,90.130 166.954 C 90.739 165.865,90.612 159.979,89.970 159.573 C 89.186 159.077,88.809 159.112,88.583 159.701 M87.353 167.677 C 86.868 168.461,86.910 176.262,87.402 176.935 C 88.204 178.032,88.746 177.032,89.026 173.932 C 89.474 168.997,88.586 165.680,87.353 167.677 M86.091 178.095 C 85.709 178.558,85.452 182.421,85.557 186.100 C 85.607 187.850,86.922 188.291,87.348 186.700 C 88.284 183.207,87.319 176.603,86.091 178.095 M84.280 188.653 C 83.647 189.286,83.969 196.813,84.640 197.071 C 85.709 197.481,86.008 196.377,85.902 192.405 C 85.802 188.702,85.329 187.605,84.280 188.653 M83.100 198.048 C 82.156 198.577,82.039 206.576,82.971 206.933 C 84.103 207.368,84.600 205.990,84.592 202.439 C 84.584 198.579,84.195 197.435,83.100 198.048 M81.300 208.665 C 80.947 208.807,80.800 210.039,80.800 212.857 C 80.800 215.438,80.657 216.759,80.397 216.598 C 79.676 216.152,79.304 218.114,79.284 222.467 C 79.267 226.203,79.164 226.836,78.456 227.544 C 77.288 228.712,77.325 235.835,78.501 236.142 C 79.592 236.428,79.803 235.541,79.780 230.758 C 79.763 227.193,79.858 226.522,80.371 226.558 C 81.202 226.615,81.574 223.818,81.230 220.101 C 80.995 217.553,81.047 217.176,81.661 216.981 C 82.661 216.663,82.959 215.414,82.845 212.017 C 82.722 208.352,82.621 208.132,81.300 208.665 M77.020 237.233 C 77.122 237.397,76.993 237.602,76.734 237.689 C 76.228 237.857,75.939 245.255,76.409 246.015 C 76.905 246.818,77.907 245.931,78.147 244.476 C 78.522 242.208,78.445 238.475,78.017 238.211 C 77.807 238.081,77.725 237.740,77.835 237.454 C 77.945 237.168,77.765 236.933,77.435 236.933 C 77.105 236.933,76.918 237.068,77.020 237.233 M75.067 247.467 C 74.461 248.073,74.776 255.616,75.417 255.862 C 76.425 256.249,76.596 255.716,76.676 251.937 C 76.769 247.543,76.298 246.235,75.067 247.467 M73.700 257.867 C 73.350 258.007,73.200 259.189,73.200 261.813 C 73.200 264.966,73.089 265.622,72.500 265.951 C 71.903 266.285,71.780 267.083,71.668 271.354 C 71.548 275.881,71.461 276.390,70.768 276.610 C 69.751 276.933,69.612 283.155,70.599 284.142 C 71.132 284.675,71.131 284.763,70.592 284.930 C 70.149 285.067,70.172 285.102,70.675 285.057 C 71.673 284.968,72.502 281.893,72.222 279.315 C 72.031 277.551,72.111 277.169,72.741 276.831 C 73.638 276.351,73.985 273.281,73.632 268.951 C 73.455 266.778,73.517 266.147,73.894 266.291 C 74.727 266.611,75.236 264.434,75.115 261.066 C 75.004 257.975,74.767 257.440,73.700 257.867 M68.881 287.142 C 68.185 287.583,68.341 294.253,69.062 294.852 C 69.927 295.570,70.286 294.908,70.551 292.109 C 70.918 288.228,70.260 286.268,68.881 287.142 M67.587 297.015 C 66.988 297.737,66.659 303.538,67.171 304.358 C 68.175 305.967,68.800 304.453,68.800 300.413 C 68.800 296.441,68.579 295.821,67.587 297.015 M73.680 314.880 C 73.307 315.253,73.093 315.253,72.720 314.880 C 72.347 314.507,72.453 314.400,73.200 314.400 C 73.947 314.400,74.053 314.507,73.680 314.880 M327.280 314.880 C 326.907 315.253,326.693 315.253,326.320 314.880 C 325.947 314.507,326.053 314.400,326.800 314.400 C 327.547 314.400,327.653 314.507,327.280 314.880 M321.600 317.557 C 321.600 318.048,320.473 318.442,320.224 318.038 C 320.113 317.859,320.137 317.596,320.278 317.456 C 320.659 317.075,321.600 317.147,321.600 317.557 M316.400 320.800 C 316.400 321.020,316.029 321.200,315.576 321.200 C 315.123 321.200,314.864 321.020,315.000 320.800 C 315.136 320.580,315.507 320.400,315.824 320.400 C 316.141 320.400,316.400 320.580,316.400 320.800 M314.000 322.400 C 314.000 322.620,313.539 322.800,312.976 322.800 C 312.396 322.800,312.060 322.627,312.200 322.400 C 312.336 322.180,312.797 322.000,313.224 322.000 C 313.651 322.000,314.000 322.180,314.000 322.400 M310.800 324.000 C 310.800 324.220,310.530 324.400,310.200 324.400 C 309.870 324.400,309.600 324.220,309.600 324.000 C 309.600 323.780,309.870 323.600,310.200 323.600 C 310.530 323.600,310.800 323.780,310.800 324.000 M308.400 325.647 C 308.400 325.841,307.950 326.000,307.400 326.000 C 306.459 326.000,306.121 325.613,306.623 325.110 C 306.945 324.788,308.400 325.228,308.400 325.647 M297.200 331.557 C 297.200 332.007,296.160 332.426,295.839 332.106 C 295.358 331.624,295.620 331.200,296.400 331.200 C 296.840 331.200,297.200 331.361,297.200 331.557 M295.200 332.976 C 295.200 333.766,294.678 334.022,293.981 333.574 C 293.475 333.248,293.478 333.149,294.000 332.806 C 294.840 332.255,295.200 332.306,295.200 332.976 M292.222 334.435 C 292.704 335.216,291.762 335.715,290.789 335.194 C 290.076 334.813,290.006 334.642,290.446 334.363 C 291.201 333.885,291.899 333.913,292.222 334.435 M289.200 336.424 C 289.200 336.631,288.840 336.800,288.400 336.800 C 287.518 336.800,287.311 336.170,288.100 335.887 C 288.705 335.670,289.200 335.912,289.200 336.424 M283.600 339.204 C 283.600 339.673,282.480 340.006,281.790 339.741 C 281.344 339.570,281.294 339.369,281.604 338.995 C 282.037 338.474,283.600 338.638,283.600 339.204 M120.600 340.800 C 120.740 341.027,120.404 341.200,119.824 341.200 C 119.261 341.200,118.800 341.020,118.800 340.800 C 118.800 340.580,119.149 340.400,119.576 340.400 C 120.003 340.400,120.464 340.580,120.600 340.800 M275.200 343.800 C 275.200 344.130,274.851 344.400,274.424 344.400 C 273.290 344.400,273.033 343.687,274.094 343.483 C 274.592 343.387,275.045 343.284,275.100 343.254 C 275.155 343.225,275.200 343.470,275.200 343.800 M272.202 345.203 C 272.339 345.424,272.162 345.717,271.808 345.852 C 271.042 346.146,270.615 345.822,270.984 345.227 C 271.316 344.689,271.878 344.678,272.202 345.203 M128.400 345.600 C 127.617 346.106,126.800 346.106,126.800 345.600 C 126.800 345.380,127.295 345.203,127.900 345.206 C 128.757 345.211,128.868 345.298,128.400 345.600 M131.287 347.294 C 130.612 347.619,130.252 347.612,129.907 347.267 C 129.551 346.911,129.768 346.806,130.820 346.827 C 132.116 346.852,132.144 346.881,131.287 347.294 M267.200 348.400 C 267.200 348.620,266.739 348.800,266.176 348.800 C 265.596 348.800,265.260 348.627,265.400 348.400 C 265.536 348.180,265.997 348.000,266.424 348.000 C 266.851 348.000,267.200 348.180,267.200 348.400 M136.800 350.000 C 136.800 350.220,136.429 350.400,135.976 350.400 C 135.523 350.400,135.264 350.220,135.400 350.000 C 135.536 349.780,135.907 349.600,136.224 349.600 C 136.541 349.600,136.800 349.780,136.800 350.000 M264.536 350.223 C 264.404 350.566,264.035 350.746,263.716 350.623 C 263.396 350.500,263.049 350.400,262.944 350.400 C 262.839 350.400,262.864 350.220,263.000 350.000 C 263.423 349.316,264.807 349.517,264.536 350.223 M139.800 351.600 C 139.936 351.820,139.666 352.000,139.200 352.000 C 138.734 352.000,138.464 351.820,138.600 351.600 C 138.736 351.380,139.006 351.200,139.200 351.200 C 139.394 351.200,139.664 351.380,139.800 351.600 M261.400 351.600 C 261.536 351.820,261.266 352.000,260.800 352.000 C 260.334 352.000,260.064 351.820,260.200 351.600 C 260.336 351.380,260.606 351.200,260.800 351.200 C 260.994 351.200,261.264 351.380,261.400 351.600 M258.565 352.642 C 259.452 352.982,258.944 353.600,257.776 353.600 C 256.749 353.600,256.448 353.009,257.300 352.665 C 257.575 352.554,257.830 352.449,257.867 352.432 C 257.904 352.414,258.218 352.509,258.565 352.642 M142.800 353.200 C 142.800 353.420,142.350 353.600,141.800 353.600 C 141.250 353.600,140.800 353.420,140.800 353.200 C 140.800 352.980,141.250 352.800,141.800 352.800 C 142.350 352.800,142.800 352.980,142.800 353.200 M144.853 354.907 C 144.376 355.384,143.051 354.965,143.375 354.440 C 143.499 354.239,143.973 354.172,144.427 354.291 C 144.977 354.435,145.119 354.641,144.853 354.907 M255.508 354.725 C 255.597 354.990,255.299 355.200,254.833 355.200 C 254.002 355.200,253.753 354.780,254.275 354.258 C 254.646 353.888,255.313 354.140,255.508 354.725 M147.529 356.533 C 147.604 356.919,147.403 357.200,147.053 357.200 C 146.310 357.200,145.861 356.548,146.213 355.979 C 146.575 355.393,147.374 355.730,147.529 356.533 M252.661 356.454 C 252.132 356.761,251.798 356.758,251.481 356.441 C 251.160 356.120,251.359 356.003,252.220 356.012 C 253.254 356.023,253.309 356.077,252.661 356.454 M250.323 357.630 C 250.245 357.867,250.050 358.047,249.890 358.030 C 249.731 358.014,249.285 357.987,248.900 357.972 C 248.301 357.948,248.316 357.894,249.000 357.600 C 250.116 357.121,250.490 357.129,250.323 357.630 M247.600 359.213 C 247.600 359.691,246.472 360.205,246.143 359.876 C 245.792 359.526,246.387 358.800,247.024 358.800 C 247.341 358.800,247.600 358.986,247.600 359.213 M156.400 360.800 C 156.400 361.020,155.950 361.200,155.400 361.200 C 154.850 361.200,154.400 361.020,154.400 360.800 C 154.400 360.580,154.850 360.400,155.400 360.400 C 155.950 360.400,156.400 360.580,156.400 360.800 M242.308 362.325 C 242.403 362.610,242.053 362.800,241.433 362.800 C 240.361 362.800,240.027 362.216,240.900 361.867 C 241.592 361.590,242.121 361.762,242.308 362.325 M161.508 363.925 C 161.597 364.190,161.299 364.400,160.833 364.400 C 160.002 364.400,159.753 363.980,160.275 363.458 C 160.646 363.088,161.313 363.340,161.508 363.925 M239.400 364.000 C 239.264 364.220,238.814 364.400,238.400 364.400 C 237.986 364.400,237.536 364.220,237.400 364.000 C 237.255 363.766,237.670 363.600,238.400 363.600 C 239.130 363.600,239.545 363.766,239.400 364.000 M236.367 365.350 C 235.898 365.773,234.400 366.005,234.400 365.655 C 234.400 365.435,234.805 365.191,235.300 365.112 C 236.206 364.967,236.675 365.072,236.367 365.350 M169.642 368.863 C 168.681 369.218,167.848 368.969,168.184 368.426 C 168.292 368.251,168.871 368.201,169.470 368.315 C 170.548 368.522,170.550 368.527,169.642 368.863 M230.600 368.400 C 230.736 368.620,230.466 368.800,230.000 368.800 C 229.534 368.800,229.264 368.620,229.400 368.400 C 229.536 368.180,229.806 368.000,230.000 368.000 C 230.194 368.000,230.464 368.180,230.600 368.400 M225.600 371.600 C 225.600 371.820,225.229 372.000,224.776 372.000 C 224.323 372.000,224.064 371.820,224.200 371.600 C 224.336 371.380,224.707 371.200,225.024 371.200 C 225.341 371.200,225.600 371.380,225.600 371.600 M178.000 373.200 C 178.000 373.420,177.550 373.600,177.000 373.600 C 176.450 373.600,176.000 373.420,176.000 373.200 C 176.000 372.980,176.450 372.800,177.000 372.800 C 177.550 372.800,178.000 372.980,178.000 373.200 M222.480 373.280 C 222.107 373.653,221.893 373.653,221.520 373.280 C 221.147 372.907,221.253 372.800,222.000 372.800 C 222.747 372.800,222.853 372.907,222.480 373.280 M180.000 374.824 C 180.000 375.031,179.730 375.200,179.400 375.200 C 178.781 375.200,178.605 374.728,179.056 374.278 C 179.375 373.958,180.000 374.319,180.000 374.824 M219.567 374.546 C 218.687 375.315,217.600 375.574,217.600 375.014 C 217.600 374.615,217.974 374.400,218.667 374.400 C 219.253 374.400,219.658 374.466,219.567 374.546 M182.985 376.424 C 182.869 376.612,182.511 376.664,182.189 376.541 C 181.868 376.417,181.699 376.163,181.815 375.976 C 181.931 375.788,182.289 375.736,182.611 375.859 C 182.932 375.983,183.101 376.237,182.985 376.424 M217.402 376.003 C 217.719 376.517,216.596 376.961,215.775 376.646 C 214.973 376.338,215.415 375.600,216.400 375.600 C 216.814 375.600,217.265 375.781,217.402 376.003 M213.934 377.551 C 214.340 377.808,214.268 377.941,213.634 378.107 C 212.792 378.327,212.206 377.928,212.678 377.456 C 213.013 377.120,213.287 377.141,213.934 377.551 M193.400 380.800 C 193.264 381.020,192.613 381.200,191.953 381.200 C 191.255 381.200,190.856 381.033,191.000 380.800 C 191.136 380.580,191.787 380.400,192.447 380.400 C 193.145 380.400,193.544 380.567,193.400 380.800 M209.000 380.800 C 209.406 381.457,206.906 381.426,206.220 380.765 C 205.988 380.542,206.407 380.400,207.296 380.400 C 208.097 380.400,208.864 380.580,209.000 380.800 " stroke="none" fill="#fbcb2c" fill-rule="evenodd"></path></g></svg>