<svg id="svg" version="1.1" xmlns="http://www.w3.org/2000/svg" xmlns:xlink="http://www.w3.org/1999/xlink" width="400" height="400" viewBox="0, 0, 400,400"><g id="svgg"><path id="path0" d="M265.093 314.944 C 264.787 315.108,263.732 316.042,262.747 317.019 C 261.762 317.997,260.637 319.094,260.247 319.457 C 259.857 319.820,257.725 321.964,255.510 324.221 C 253.294 326.478,251.253 328.471,250.973 328.650 C 250.357 329.044,247.523 331.890,246.786 332.856 C 246.495 333.237,245.783 333.897,245.204 334.323 C 244.626 334.749,243.505 335.800,242.715 336.658 C 241.925 337.517,240.992 338.413,240.643 338.651 C 240.294 338.888,239.819 339.353,239.587 339.685 C 239.214 340.220,232.600 346.772,231.230 347.963 C 230.937 348.218,230.436 348.696,230.117 349.026 C 229.473 349.693,228.052 351.091,223.629 355.413 C 221.990 357.015,220.440 358.530,220.185 358.780 C 219.931 359.030,218.629 360.344,217.292 361.700 C 215.955 363.057,214.143 364.854,213.264 365.694 C 212.386 366.534,211.667 367.297,211.667 367.390 C 211.667 367.483,211.302 367.789,210.857 368.071 C 210.412 368.352,209.851 368.902,209.610 369.291 C 209.369 369.681,209.114 370.000,209.043 370.000 C 208.972 370.000,208.324 370.562,207.603 371.250 C 205.636 373.127,200.515 378.077,200.093 378.512 C 199.889 378.721,198.184 380.412,196.303 382.270 C 189.409 389.081,189.463 388.984,191.667 390.501 C 192.540 391.102,197.547 396.053,198.089 396.852 C 198.262 397.106,198.534 397.392,198.693 397.486 C 199.473 397.948,200.185 398.874,200.185 399.426 L 200.185 400.000 275.731 400.000 L 351.277 400.000 351.078 399.429 C 350.951 399.065,349.728 397.784,347.708 395.901 C 345.964 394.275,343.870 392.196,343.056 391.281 C 342.241 390.366,339.855 387.994,337.754 386.009 C 335.653 384.024,333.269 381.673,332.456 380.784 C 331.643 379.894,325.414 373.625,318.614 366.852 C 311.814 360.079,305.922 354.204,305.521 353.796 C 297.743 345.904,267.031 315.190,266.683 314.955 C 266.097 314.560,265.809 314.558,265.093 314.944 " stroke="none" fill="#045298" fill-rule="evenodd"></path><path id="path1" d="M199.735 0.645 C 199.646 1.120,199.363 1.497,198.658 2.080 C 198.133 2.515,197.366 3.245,196.955 3.704 C 195.982 4.789,192.916 7.853,191.852 8.805 C 191.394 9.214,190.516 10.088,189.901 10.747 C 189.287 11.406,188.276 12.444,187.655 13.056 C 183.988 16.663,181.710 18.930,179.207 21.460 C 177.657 23.027,175.406 25.277,174.206 26.460 C 171.909 28.723,167.838 32.784,164.722 35.920 C 163.704 36.945,155.133 45.470,145.676 54.864 C 136.219 64.258,126.886 73.562,124.935 75.538 C 122.985 77.515,120.764 79.737,120.000 80.476 C 118.822 81.616,89.498 110.771,88.148 112.145 C 87.894 112.404,85.685 114.609,83.241 117.045 C 80.796 119.481,78.546 121.729,78.241 122.040 C 77.504 122.791,68.948 131.301,68.253 131.974 C 67.954 132.263,66.704 133.545,65.475 134.823 C 64.246 136.100,62.032 138.313,60.556 139.740 C 59.079 141.167,56.829 143.416,55.556 144.738 C 54.282 146.059,52.074 148.266,50.648 149.643 C 49.222 151.019,47.011 153.225,45.735 154.545 C 43.944 156.398,34.238 165.986,28.704 171.370 C 28.347 171.717,27.556 172.571,26.944 173.269 C 26.333 173.966,24.856 175.454,23.661 176.574 C 21.182 178.900,19.392 180.683,15.242 184.964 C 13.632 186.625,11.977 188.198,11.565 188.460 C 11.153 188.722,10.631 189.217,10.407 189.560 C 10.182 189.903,9.717 190.367,9.374 190.592 C 9.032 190.817,8.532 191.347,8.264 191.770 C 7.996 192.194,6.536 193.747,5.019 195.222 C 1.545 198.601,1.470 198.732,2.228 200.075 C 2.541 200.628,3.105 201.315,3.481 201.600 C 4.769 202.574,9.638 207.688,10.201 208.659 C 10.394 208.991,10.824 209.420,11.156 209.613 C 11.896 210.043,13.073 211.116,15.846 213.889 C 18.900 216.942,19.530 217.627,20.072 218.485 C 20.337 218.905,20.825 219.389,21.156 219.560 C 21.803 219.894,22.405 220.450,25.786 223.839 C 28.960 227.020,29.503 227.609,29.978 228.384 C 30.213 228.769,30.669 229.217,30.990 229.381 C 31.628 229.707,32.115 230.157,35.513 233.558 C 39.048 237.097,39.551 237.642,39.888 238.295 C 40.062 238.631,40.470 239.058,40.796 239.245 C 41.362 239.569,41.891 240.023,43.994 241.992 C 44.511 242.475,45.407 243.271,45.986 243.761 C 46.565 244.251,47.373 245.145,47.783 245.748 C 48.192 246.350,48.682 246.926,48.873 247.028 C 49.063 247.130,49.440 247.590,49.709 248.050 C 49.979 248.511,50.467 249.022,50.794 249.187 C 51.121 249.352,51.734 249.831,52.157 250.253 C 52.579 250.674,53.489 251.519,54.178 252.130 C 56.803 254.456,59.080 256.886,59.611 257.926 C 59.871 258.437,60.252 258.825,60.733 259.070 C 61.133 259.274,61.680 259.730,61.949 260.082 C 62.218 260.435,62.786 260.929,63.210 261.179 C 63.634 261.429,64.815 262.501,65.833 263.561 C 68.585 266.423,69.220 267.160,69.632 267.967 C 69.873 268.440,70.265 268.831,70.741 269.074 C 71.145 269.280,71.616 269.663,71.787 269.923 C 71.958 270.184,72.563 270.716,73.132 271.105 C 73.701 271.495,74.417 272.078,74.722 272.401 C 75.762 273.501,76.404 273.785,77.268 273.527 C 77.912 273.334,109.575 242.089,123.148 228.252 C 123.810 227.577,126.052 225.340,128.130 223.281 C 130.208 221.222,132.541 218.879,133.315 218.075 C 134.089 217.270,135.419 215.937,136.271 215.112 C 137.123 214.286,138.515 212.903,139.366 212.037 C 140.217 211.171,140.979 210.403,141.058 210.329 C 141.195 210.202,150.331 201.063,150.926 200.458 C 151.280 200.098,160.369 191.017,160.741 190.653 C 160.894 190.503,174.519 176.920,191.019 160.469 C 207.519 144.018,234.519 117.112,251.019 100.677 C 267.519 84.243,281.394 70.419,281.852 69.958 C 282.310 69.497,284.516 67.297,286.753 65.069 C 288.990 62.841,291.365 60.449,292.030 59.753 C 292.696 59.058,294.489 57.266,296.015 55.772 C 297.541 54.278,299.807 52.014,301.050 50.741 C 302.294 49.468,303.906 47.843,304.634 47.130 C 305.774 46.011,309.399 42.397,314.444 37.347 C 315.208 36.583,317.458 34.338,319.444 32.359 C 321.431 30.380,323.639 28.172,324.352 27.453 C 325.065 26.734,327.743 24.045,330.304 21.478 C 332.864 18.911,335.156 16.610,335.396 16.365 C 335.637 16.120,337.491 14.317,339.516 12.358 C 341.542 10.399,343.615 8.296,344.123 7.685 C 344.631 7.074,345.432 6.253,345.903 5.861 C 347.249 4.741,350.185 1.886,350.185 1.698 C 350.185 1.503,350.168 1.499,345.477 0.641 L 341.972 0.000 270.914 -0.000 L 199.856 -0.000 199.735 0.645 M246.759 180.496 C 246.556 180.542,246.115 180.665,245.780 180.770 C 245.335 180.908,239.899 186.216,225.595 200.480 C 194.399 231.587,189.573 236.344,188.411 237.130 C 187.786 237.553,182.633 242.538,176.390 248.759 C 163.302 261.802,161.608 263.493,158.214 266.904 C 156.774 268.352,154.524 270.588,153.214 271.873 C 151.905 273.158,149.730 275.325,148.380 276.688 C 147.031 278.051,144.823 280.262,143.473 281.600 C 142.123 282.939,139.875 285.189,138.476 286.600 C 137.078 288.012,134.412 290.679,132.551 292.527 C 130.689 294.374,128.481 296.583,127.643 297.434 C 126.805 298.285,124.532 300.565,122.592 302.500 C 120.653 304.435,118.448 306.644,117.693 307.407 C 116.939 308.171,115.653 309.421,114.836 310.185 C 112.607 312.269,112.657 312.886,115.261 315.472 C 116.120 316.326,116.966 317.266,117.141 317.561 C 117.315 317.857,117.715 318.250,118.030 318.436 C 118.550 318.743,124.131 324.235,145.125 345.093 C 149.021 348.963,156.839 356.713,162.498 362.315 C 175.226 374.913,189.561 389.199,190.200 389.922 C 190.463 390.220,192.650 392.413,195.061 394.797 C 198.304 398.004,199.444 399.244,199.444 399.566 C 199.444 399.877,199.550 400.000,199.815 400.000 C 200.745 400.000,199.956 398.234,198.693 397.486 C 198.534 397.392,198.262 397.106,198.089 396.852 C 197.522 396.016,192.333 390.914,191.537 390.410 C 190.764 389.920,190.615 389.717,190.182 388.566 C 190.058 388.236,189.679 387.795,189.340 387.585 C 189.000 387.375,188.670 387.036,188.604 386.831 C 188.539 386.625,188.081 386.166,187.585 385.810 C 187.090 385.455,186.632 384.997,186.567 384.794 C 186.503 384.590,186.110 384.177,185.694 383.876 C 185.278 383.575,184.784 383.076,184.597 382.768 C 184.409 382.460,183.970 382.039,183.621 381.833 C 183.272 381.627,182.820 381.176,182.616 380.832 C 182.413 380.487,181.914 379.995,181.508 379.739 C 181.102 379.483,180.715 379.099,180.647 378.886 C 180.579 378.672,180.219 378.273,179.845 377.998 C 179.472 377.722,178.652 376.956,178.023 376.295 C 177.394 375.634,176.572 374.790,176.196 374.419 C 175.821 374.049,175.335 373.566,175.118 373.346 C 174.900 373.126,174.448 372.679,174.112 372.353 C 173.776 372.026,172.859 371.113,172.075 370.324 C 170.428 368.667,170.796 369.036,167.216 365.463 C 165.685 363.935,164.373 362.625,164.300 362.552 C 164.226 362.479,162.495 360.770,160.452 358.756 C 158.408 356.741,156.658 354.967,156.563 354.814 C 156.467 354.660,156.071 354.298,155.682 354.008 C 155.293 353.718,154.883 353.279,154.770 353.032 C 154.658 352.785,154.310 352.423,153.996 352.226 C 153.682 352.029,152.843 351.267,152.130 350.531 C 151.417 349.796,150.519 348.896,150.136 348.532 C 149.752 348.168,148.905 347.329,148.252 346.667 C 144.930 343.296,143.655 342.011,142.397 340.764 C 141.639 340.013,140.769 339.151,140.463 338.848 C 127.202 325.690,120.048 318.651,119.370 318.091 C 118.899 317.703,118.389 317.085,118.235 316.717 C 118.082 316.350,117.249 315.316,116.385 314.420 C 115.346 313.342,114.815 312.647,114.815 312.366 C 114.815 311.849,187.996 238.564,188.880 238.197 C 189.523 237.929,190.198 238.117,190.586 238.671 C 190.725 238.870,191.284 239.295,191.828 239.616 C 193.191 240.419,199.408 246.673,200.091 247.926 C 200.494 248.668,200.844 249.017,201.631 249.460 C 203.346 250.428,264.210 311.399,264.976 312.916 C 265.310 313.577,265.837 314.272,266.233 314.574 C 266.730 314.952,298.381 346.551,305.521 353.796 C 305.922 354.204,311.814 360.079,318.614 366.852 C 325.414 373.625,331.643 379.894,332.456 380.784 C 333.269 381.673,335.653 384.024,337.754 386.008 C 339.855 387.992,342.282 390.408,343.148 391.377 C 344.014 392.346,346.086 394.403,347.752 395.948 C 349.612 397.672,350.883 398.998,351.042 399.379 C 351.368 400.160,352.037 400.258,352.037 399.524 C 352.037 399.154,351.489 398.526,349.583 396.711 C 348.234 395.426,346.046 393.248,344.722 391.873 C 343.398 390.497,341.648 388.744,340.833 387.976 C 340.019 387.209,336.862 384.079,333.818 381.022 C 315.525 362.646,311.340 358.453,308.205 355.362 C 291.030 338.428,267.064 314.111,266.874 313.426 C 266.527 312.172,266.724 311.561,267.654 311.012 C 267.976 310.822,269.380 309.495,270.774 308.065 C 274.222 304.526,275.464 303.293,278.023 300.870 C 279.227 299.729,280.436 298.560,280.708 298.272 C 280.981 297.983,281.620 297.308,282.130 296.771 C 282.639 296.233,283.425 295.356,283.876 294.821 C 284.327 294.286,285.139 293.554,285.681 293.194 C 286.223 292.835,286.667 292.469,286.667 292.383 C 286.667 292.297,287.479 291.441,288.472 290.481 C 289.465 289.522,290.444 288.546,290.648 288.314 C 290.852 288.082,291.290 287.637,291.621 287.325 C 291.953 287.014,292.828 286.148,293.566 285.400 C 294.304 284.652,295.616 283.349,296.481 282.505 C 297.347 281.660,298.264 280.738,298.519 280.457 C 298.773 280.176,299.217 279.729,299.504 279.464 C 299.791 279.198,301.518 277.481,303.341 275.648 C 305.164 273.815,307.325 271.648,308.143 270.833 C 308.961 270.019,309.901 269.073,310.232 268.733 C 310.563 268.393,311.104 267.851,311.435 267.529 C 311.927 267.050,317.829 261.147,319.167 259.796 C 319.370 259.591,321.620 257.342,324.167 254.801 C 326.713 252.259,328.940 250.034,329.116 249.858 C 331.137 247.827,338.587 240.360,338.917 240.034 C 339.156 239.798,351.901 227.089,367.238 211.793 C 382.575 196.497,395.721 183.425,396.451 182.745 C 397.882 181.410,397.909 181.362,397.515 180.822 C 397.267 180.483,248.244 180.161,246.759 180.496 " stroke="none" fill="#44c4fb" fill-rule="evenodd"></path><path id="path2" d="M197.744 0.503 C 197.704 0.842,197.411 1.219,196.842 1.660 C 196.378 2.020,195.378 2.979,194.619 3.791 C 193.861 4.603,192.534 5.924,191.671 6.726 C 190.808 7.529,189.913 8.448,189.683 8.769 C 189.453 9.089,188.681 9.894,187.967 10.556 C 186.813 11.625,182.831 15.581,178.333 20.126 C 178.079 20.383,177.638 20.814,177.354 21.084 C 176.626 21.774,170.194 28.210,169.607 28.835 C 169.341 29.119,168.882 29.578,168.589 29.855 C 168.296 30.132,167.889 30.531,167.685 30.743 C 167.481 30.955,165.673 32.770,163.667 34.777 C 161.660 36.784,159.785 38.661,159.500 38.949 C 159.215 39.237,158.773 39.683,158.519 39.941 C 158.264 40.198,157.815 40.629,157.521 40.899 C 154.709 43.475,150.702 47.484,150.229 48.195 C 149.974 48.577,149.483 49.064,149.137 49.277 C 148.792 49.491,148.391 49.895,148.246 50.176 C 148.101 50.456,147.748 50.833,147.463 51.013 C 147.178 51.194,146.527 51.768,146.017 52.291 C 145.508 52.813,144.081 54.202,142.848 55.377 C 141.615 56.552,140.465 57.787,140.292 58.121 C 140.119 58.456,139.700 58.893,139.361 59.093 C 139.022 59.293,138.526 59.787,138.259 60.191 C 137.991 60.595,137.677 60.926,137.561 60.926 C 137.444 60.926,136.875 61.405,136.295 61.991 C 135.715 62.576,134.194 64.066,132.915 65.301 C 131.636 66.535,130.455 67.805,130.292 68.121 C 130.128 68.438,129.745 68.826,129.441 68.984 C 129.136 69.141,128.668 69.601,128.401 70.005 C 128.133 70.410,127.838 70.741,127.746 70.741 C 127.597 70.741,126.009 72.241,122.026 76.145 C 121.331 76.826,120.639 77.623,120.486 77.918 C 120.334 78.212,119.867 78.680,119.449 78.956 C 119.031 79.233,118.595 79.666,118.479 79.919 C 118.364 80.172,117.983 80.557,117.632 80.774 C 116.896 81.228,111.000 87.070,110.496 87.844 C 110.310 88.129,109.885 88.523,109.552 88.720 C 109.218 88.916,108.794 89.358,108.609 89.702 C 108.424 90.045,108.037 90.465,107.750 90.635 C 107.137 90.997,101.178 96.904,100.584 97.738 C 100.361 98.051,99.909 98.474,99.580 98.678 C 99.251 98.883,98.831 99.332,98.646 99.677 C 98.462 100.022,98.045 100.459,97.720 100.649 C 97.238 100.931,92.262 105.829,90.351 107.903 C 90.086 108.190,89.650 108.634,89.382 108.889 C 88.322 109.898,87.429 110.782,84.146 114.074 C 82.267 115.958,80.503 117.730,80.226 118.010 C 79.949 118.291,79.578 118.666,79.401 118.843 C 79.224 119.021,78.808 119.442,78.475 119.779 C 78.142 120.115,76.995 121.222,75.926 122.239 C 72.543 125.453,71.094 126.930,70.825 127.436 C 70.682 127.706,70.292 128.096,69.958 128.303 C 69.625 128.509,69.204 128.930,69.023 129.238 C 68.841 129.545,68.425 129.982,68.097 130.209 C 67.424 130.674,66.608 131.449,63.437 134.635 C 62.221 135.858,61.092 137.061,60.929 137.311 C 60.765 137.560,60.344 137.957,59.992 138.194 C 59.640 138.431,59.243 138.850,59.111 139.126 C 58.979 139.401,58.652 139.773,58.385 139.952 C 57.832 140.323,57.001 141.110,53.449 144.626 C 52.061 145.999,50.926 147.181,50.926 147.253 C 50.926 147.325,50.596 147.618,50.192 147.905 C 49.788 148.191,49.358 148.665,49.235 148.957 C 49.112 149.249,48.673 149.732,48.260 150.032 C 47.430 150.633,47.053 150.987,43.741 154.279 C 42.489 155.523,41.297 156.776,41.093 157.062 C 40.890 157.348,40.478 157.727,40.179 157.903 C 39.880 158.080,39.506 158.497,39.348 158.831 C 39.189 159.165,38.843 159.585,38.577 159.765 C 37.732 160.339,32.265 165.612,30.922 167.150 C 30.665 167.445,30.248 167.860,29.996 168.075 C 29.743 168.289,29.398 168.721,29.228 169.035 C 29.058 169.350,28.581 169.779,28.167 169.990 C 27.754 170.201,27.293 170.611,27.143 170.900 C 26.993 171.190,26.637 171.574,26.352 171.755 C 25.692 172.173,21.296 176.590,21.296 176.835 C 21.296 176.936,20.921 177.278,20.461 177.594 C 19.984 177.922,19.514 178.436,19.365 178.794 C 19.212 179.159,18.851 179.551,18.496 179.734 C 17.728 180.131,9.539 188.300,9.367 188.840 C 9.297 189.060,8.932 189.429,8.555 189.658 C 8.179 189.887,6.216 191.725,4.194 193.741 C 2.173 195.758,0.402 197.407,0.259 197.407 C -0.326 197.407,-0.084 200.476,0.520 200.726 C 0.806 200.845,1.176 201.171,1.341 201.451 C 1.507 201.731,3.377 203.688,5.497 205.800 C 7.617 207.912,9.532 209.825,9.753 210.051 C 9.974 210.278,12.245 212.539,14.799 215.077 C 17.354 217.615,19.444 219.745,19.444 219.811 C 19.444 219.878,19.772 220.116,20.173 220.341 C 20.574 220.567,21.073 221.028,21.282 221.365 C 21.491 221.703,23.361 223.650,25.439 225.690 C 27.517 227.731,29.289 229.516,29.377 229.656 C 29.465 229.796,29.891 230.141,30.324 230.421 C 30.757 230.702,31.111 231.017,31.111 231.123 C 31.111 231.274,34.891 235.104,38.433 238.542 C 38.709 238.810,39.225 239.321,39.581 239.678 C 39.936 240.036,40.405 240.504,40.623 240.720 C 41.349 241.438,48.050 248.137,48.401 248.494 C 48.591 248.688,49.038 249.138,49.396 249.493 C 50.698 250.789,51.071 251.166,54.074 254.216 C 55.755 255.922,57.405 257.514,57.742 257.753 C 58.078 257.992,58.558 258.511,58.806 258.905 C 59.055 259.299,59.586 259.789,59.986 259.993 C 60.387 260.197,60.771 260.546,60.842 260.768 C 60.979 261.198,66.883 267.176,67.700 267.712 C 67.967 267.887,68.382 268.341,68.622 268.721 C 68.862 269.101,69.382 269.594,69.777 269.816 C 70.173 270.038,70.652 270.483,70.841 270.804 C 71.758 272.358,75.491 275.741,76.289 275.741 C 77.781 275.741,77.825 275.700,95.998 257.560 C 110.648 242.935,163.231 190.536,164.032 189.764 C 164.161 189.639,165.474 188.329,166.949 186.852 C 168.424 185.375,169.757 184.042,169.912 183.889 C 170.066 183.736,171.003 182.796,171.994 181.800 C 172.985 180.804,173.870 179.919,173.959 179.833 C 174.101 179.697,179.410 174.393,179.838 173.959 C 179.926 173.870,180.692 173.088,181.540 172.222 C 182.388 171.356,183.326 170.429,183.624 170.161 C 184.072 169.759,188.691 165.159,189.781 164.029 C 190.021 163.781,192.257 161.538,193.774 160.025 C 195.311 158.491,199.539 154.259,199.674 154.118 C 199.921 153.861,203.269 150.532,203.629 150.185 C 203.787 150.032,205.098 148.717,206.542 147.261 C 207.985 145.805,215.917 137.907,224.167 129.709 C 232.417 121.511,239.250 114.715,239.352 114.607 C 239.454 114.499,243.912 110.043,249.259 104.705 C 254.606 99.367,259.065 94.908,259.167 94.796 C 259.269 94.685,261.019 92.941,263.056 90.919 C 265.093 88.898,267.343 86.636,268.056 85.893 C 268.769 85.149,270.967 82.956,272.941 81.020 C 274.915 79.084,277.165 76.835,277.941 76.023 C 278.717 75.210,280.041 73.877,280.884 73.060 C 281.727 72.243,283.935 70.043,285.791 68.171 C 287.648 66.299,289.855 64.091,290.697 63.263 C 291.538 62.436,293.799 60.176,295.721 58.241 C 297.643 56.306,299.436 54.514,299.706 54.259 C 300.108 53.881,301.144 52.857,301.811 52.179 C 304.073 49.878,308.537 45.556,308.651 45.556 C 308.735 45.556,308.960 45.268,309.149 44.916 C 309.339 44.564,309.810 44.067,310.195 43.812 C 310.581 43.556,311.046 43.094,311.229 42.785 C 311.412 42.475,311.626 42.222,311.705 42.222 C 311.784 42.222,313.298 40.764,315.069 38.981 C 316.841 37.199,318.363 35.741,318.453 35.741 C 318.543 35.741,318.822 35.407,319.074 35.000 C 319.326 34.593,319.595 34.259,319.671 34.259 C 319.748 34.259,321.738 32.343,324.094 30.000 C 326.450 27.657,328.432 25.741,328.499 25.741 C 328.565 25.741,328.777 25.449,328.969 25.093 C 329.161 24.736,329.383 24.444,329.463 24.444 C 329.543 24.444,330.610 23.465,331.834 22.269 C 333.058 21.072,334.334 19.843,334.669 19.537 C 335.004 19.231,335.861 18.356,336.575 17.593 C 337.288 16.829,338.012 16.079,338.184 15.926 C 338.356 15.773,339.731 14.417,341.239 12.912 C 342.748 11.406,345.023 9.136,346.296 7.867 C 347.569 6.597,348.866 5.287,349.177 4.955 C 349.489 4.623,349.924 4.185,350.144 3.981 C 350.364 3.778,350.820 3.319,351.156 2.963 C 351.493 2.606,351.933 2.222,352.134 2.108 C 352.526 1.887,349.206 0.973,348.671 1.155 C 348.536 1.200,348.822 1.298,349.306 1.371 C 349.789 1.444,350.185 1.586,350.185 1.686 C 350.185 1.884,347.288 4.708,345.903 5.861 C 345.432 6.253,344.631 7.074,344.123 7.685 C 343.615 8.296,341.542 10.399,339.516 12.358 C 337.491 14.317,335.648 16.108,335.422 16.339 C 335.196 16.570,332.904 18.871,330.329 21.452 C 327.755 24.033,325.065 26.734,324.352 27.453 C 323.639 28.172,321.431 30.380,319.444 32.359 C 317.458 34.338,315.208 36.583,314.444 37.347 C 309.399 42.397,305.774 46.011,304.634 47.130 C 303.906 47.843,302.294 49.468,301.050 50.741 C 299.807 52.014,297.541 54.278,296.015 55.772 C 294.489 57.266,292.696 59.058,292.030 59.753 C 291.365 60.449,288.990 62.841,286.753 65.069 C 284.516 67.297,282.310 69.497,281.852 69.958 C 281.394 70.419,267.519 84.243,251.019 100.677 C 234.519 117.112,207.519 144.018,191.019 160.469 C 174.519 176.920,160.894 190.503,160.741 190.653 C 160.369 191.017,151.280 200.098,150.926 200.458 C 150.331 201.063,141.195 210.202,141.058 210.329 C 140.979 210.403,140.217 211.171,139.366 212.037 C 138.515 212.903,137.123 214.286,136.271 215.112 C 135.419 215.937,134.089 217.270,133.315 218.075 C 132.541 218.879,130.208 221.222,128.130 223.281 C 126.052 225.340,123.810 227.577,123.148 228.252 C 109.575 242.089,77.912 273.334,77.268 273.527 C 76.404 273.785,75.762 273.501,74.722 272.401 C 74.417 272.078,73.701 271.495,73.132 271.105 C 72.563 270.716,71.958 270.184,71.787 269.923 C 71.616 269.663,71.145 269.280,70.741 269.074 C 70.265 268.831,69.873 268.440,69.632 267.967 C 69.220 267.160,68.585 266.423,65.833 263.561 C 64.815 262.501,63.634 261.429,63.210 261.179 C 62.786 260.929,62.218 260.435,61.949 260.082 C 61.680 259.730,61.133 259.274,60.733 259.070 C 60.252 258.825,59.871 258.437,59.611 257.926 C 59.080 256.886,56.803 254.456,54.178 252.130 C 53.489 251.519,52.579 250.674,52.157 250.253 C 51.734 249.831,51.121 249.352,50.794 249.187 C 50.467 249.022,49.979 248.511,49.709 248.050 C 49.440 247.590,49.063 247.130,48.873 247.028 C 48.682 246.926,48.192 246.350,47.783 245.748 C 47.373 245.145,46.565 244.251,45.986 243.761 C 45.407 243.271,44.511 242.475,43.994 241.992 C 41.891 240.023,41.362 239.569,40.796 239.245 C 40.470 239.058,40.062 238.631,39.888 238.295 C 39.551 237.642,39.048 237.097,35.513 233.558 C 32.115 230.157,31.628 229.707,30.990 229.381 C 30.669 229.217,30.213 228.769,29.978 228.384 C 29.503 227.609,28.960 227.020,25.786 223.839 C 22.405 220.450,21.803 219.894,21.156 219.560 C 20.825 219.389,20.337 218.905,20.072 218.485 C 19.530 217.627,18.900 216.942,15.846 213.889 C 13.073 211.116,11.896 210.043,11.156 209.613 C 10.824 209.420,10.394 208.991,10.201 208.659 C 9.638 207.688,4.769 202.574,3.481 201.600 C 3.105 201.315,2.541 200.628,2.228 200.075 C 1.470 198.732,1.545 198.601,5.019 195.222 C 6.536 193.747,7.996 192.194,8.264 191.770 C 8.532 191.347,9.032 190.817,9.374 190.592 C 9.717 190.367,10.182 189.903,10.407 189.560 C 10.631 189.217,11.153 188.722,11.565 188.460 C 11.977 188.198,13.632 186.625,15.242 184.964 C 19.392 180.683,21.182 178.900,23.661 176.574 C 24.856 175.454,26.333 173.966,26.944 173.269 C 27.556 172.571,28.347 171.717,28.704 171.370 C 34.238 165.986,43.944 156.398,45.735 154.545 C 47.011 153.225,49.222 151.019,50.648 149.643 C 52.074 148.266,54.282 146.059,55.556 144.738 C 56.829 143.416,59.079 141.167,60.556 139.740 C 62.032 138.313,64.246 136.100,65.475 134.823 C 66.704 133.545,67.954 132.263,68.253 131.974 C 68.948 131.301,77.504 122.791,78.241 122.040 C 78.546 121.729,80.796 119.481,83.241 117.045 C 85.685 114.609,87.894 112.404,88.148 112.145 C 89.498 110.771,118.822 81.616,120.000 80.476 C 120.764 79.737,122.985 77.515,124.935 75.538 C 126.886 73.562,136.219 64.258,145.676 54.864 C 155.133 45.470,163.704 36.945,164.722 35.920 C 167.838 32.784,171.909 28.723,174.206 26.460 C 175.406 25.277,177.657 23.027,179.207 21.460 C 181.710 18.930,183.988 16.663,187.655 13.056 C 188.276 12.444,189.287 11.406,189.901 10.747 C 190.516 10.088,191.394 9.214,191.852 8.805 C 192.898 7.870,195.963 4.809,196.960 3.704 C 197.373 3.245,198.145 2.495,198.675 2.037 C 199.347 1.456,199.672 1.022,199.750 0.602 L 199.861 -0.000 198.832 -0.000 C 197.850 -0.000,197.800 0.023,197.744 0.503 M245.136 179.607 C 243.870 179.938,240.842 182.526,239.043 184.815 C 238.763 185.171,237.492 186.463,236.219 187.685 C 234.946 188.907,232.838 190.972,231.535 192.274 C 230.233 193.576,228.022 195.784,226.623 197.181 C 225.224 198.579,223.016 200.790,221.716 202.096 C 220.416 203.401,218.197 205.609,216.785 207.003 C 215.373 208.397,213.104 210.662,211.743 212.037 C 209.069 214.737,209.021 214.786,207.004 216.849 C 206.258 217.611,205.366 218.486,205.021 218.793 C 204.226 219.502,199.694 224.022,199.060 224.739 C 198.620 225.236,196.347 227.512,195.131 228.673 C 194.407 229.364,189.503 234.273,189.087 234.722 C 188.898 234.926,188.183 235.551,187.497 236.111 C 186.811 236.671,186.073 237.329,185.856 237.572 C 185.640 237.815,185.255 238.215,185.000 238.460 C 184.745 238.705,183.399 240.048,182.008 241.444 C 180.618 242.839,179.269 244.190,179.012 244.444 C 178.754 244.699,177.921 245.532,177.161 246.296 C 175.187 248.278,174.882 248.571,173.343 249.954 C 172.585 250.635,171.402 251.820,170.715 252.587 C 169.296 254.170,169.326 254.139,167.159 256.246 C 166.277 257.103,165.556 257.878,165.556 257.967 C 165.556 258.057,165.201 258.376,164.769 258.676 C 164.336 258.976,163.023 260.202,161.852 261.401 C 160.681 262.601,158.921 264.393,157.941 265.386 C 156.961 266.378,155.976 267.448,155.751 267.764 C 155.525 268.080,155.119 268.455,154.847 268.596 C 154.574 268.738,153.352 269.877,152.130 271.129 C 150.907 272.380,148.282 275.003,146.296 276.957 C 141.920 281.264,142.731 280.453,138.350 284.907 C 136.347 286.944,133.669 289.619,132.400 290.852 C 131.131 292.084,128.925 294.292,127.497 295.759 C 126.069 297.226,123.819 299.477,122.497 300.762 C 121.175 302.047,118.926 304.298,117.500 305.764 C 116.074 307.230,114.265 309.034,113.480 309.772 C 111.159 311.954,111.206 313.597,113.655 315.823 C 114.446 316.542,115.551 317.593,116.111 318.160 C 116.671 318.727,117.345 319.296,117.608 319.425 C 117.870 319.553,118.234 319.911,118.416 320.219 C 118.598 320.527,119.033 320.947,119.382 321.153 C 119.730 321.359,120.174 321.838,120.368 322.217 C 120.561 322.596,120.912 323.033,121.147 323.187 C 121.382 323.342,122.890 324.771,124.498 326.364 C 126.107 327.956,127.501 329.259,127.598 329.259 C 127.694 329.259,127.977 329.583,128.227 329.978 C 128.476 330.373,128.980 330.881,129.346 331.107 C 129.712 331.334,130.173 331.836,130.371 332.224 C 130.569 332.612,130.824 332.960,130.938 332.998 C 131.209 333.088,138.827 340.479,140.648 342.418 C 140.852 342.634,143.102 344.887,145.648 347.423 C 148.194 349.959,150.444 352.202,150.648 352.408 C 150.852 352.613,151.971 353.676,153.135 354.770 C 154.300 355.864,155.466 357.007,155.728 357.309 C 155.990 357.611,156.484 358.111,156.826 358.420 C 157.168 358.729,158.104 359.648,158.906 360.463 C 159.708 361.278,160.469 362.052,160.599 362.182 C 160.728 362.313,161.125 362.695,161.481 363.030 C 161.838 363.365,162.299 363.841,162.506 364.088 C 162.712 364.335,163.587 365.217,164.450 366.047 C 165.313 366.878,166.227 367.771,166.481 368.032 C 166.736 368.292,171.524 373.029,177.120 378.558 C 193.898 395.133,198.148 399.408,198.148 399.711 C 198.148 399.918,198.333 400.000,198.796 400.000 C 200.156 400.000,199.748 399.432,195.061 394.797 C 192.650 392.413,190.463 390.220,190.200 389.922 C 189.561 389.199,175.226 374.913,162.498 362.315 C 156.839 356.713,149.021 348.963,145.125 345.093 C 124.131 324.235,118.550 318.743,118.030 318.436 C 117.715 318.250,117.315 317.857,117.141 317.561 C 116.966 317.266,116.120 316.326,115.261 315.472 C 112.657 312.886,112.607 312.269,114.836 310.185 C 115.653 309.421,116.939 308.171,117.693 307.407 C 118.448 306.644,120.653 304.435,122.592 302.500 C 124.532 300.565,126.805 298.285,127.643 297.434 C 128.481 296.583,130.689 294.374,132.551 292.527 C 134.412 290.679,137.078 288.012,138.476 286.600 C 139.875 285.189,142.123 282.939,143.473 281.600 C 144.823 280.262,147.031 278.051,148.380 276.688 C 149.730 275.325,151.905 273.158,153.214 271.873 C 154.524 270.588,156.774 268.352,158.214 266.904 C 161.608 263.493,163.302 261.802,176.390 248.759 C 182.633 242.538,187.786 237.553,188.411 237.130 C 189.573 236.344,194.399 231.587,225.595 200.480 C 240.746 185.372,245.329 180.903,245.872 180.711 C 247.194 180.244,397.172 180.354,397.515 180.822 C 397.909 181.362,397.882 181.410,396.451 182.745 C 395.721 183.425,382.575 196.497,367.238 211.793 C 351.901 227.089,339.156 239.798,338.917 240.034 C 338.587 240.360,331.137 247.827,329.116 249.858 C 328.940 250.034,326.713 252.259,324.167 254.801 C 321.620 257.342,319.370 259.591,319.167 259.796 C 317.829 261.147,311.927 267.050,311.435 267.529 C 311.104 267.851,310.563 268.393,310.232 268.733 C 309.901 269.073,308.961 270.019,308.143 270.833 C 307.325 271.648,305.164 273.815,303.341 275.648 C 301.518 277.481,299.791 279.198,299.504 279.464 C 299.217 279.729,298.773 280.176,298.519 280.457 C 298.264 280.738,297.347 281.660,296.481 282.505 C 295.616 283.349,294.304 284.652,293.566 285.400 C 292.828 286.148,291.953 287.014,291.621 287.325 C 291.290 287.637,290.852 288.082,290.648 288.314 C 290.444 288.546,289.465 289.522,288.472 290.481 C 287.479 291.441,286.667 292.297,286.667 292.383 C 286.667 292.469,286.223 292.835,285.681 293.194 C 285.139 293.554,284.327 294.286,283.876 294.821 C 283.425 295.356,282.639 296.233,282.130 296.771 C 281.620 297.308,280.981 297.983,280.708 298.272 C 280.436 298.560,279.227 299.729,278.023 300.870 C 275.464 303.293,274.222 304.526,270.774 308.065 C 269.380 309.495,267.976 310.822,267.654 311.012 C 266.724 311.561,266.527 312.172,266.874 313.426 C 267.064 314.111,291.030 338.428,308.205 355.362 C 311.340 358.453,315.525 362.646,333.818 381.022 C 336.862 384.079,340.019 387.209,340.833 387.976 C 341.648 388.744,343.398 390.497,344.722 391.873 C 346.046 393.248,348.234 395.426,349.583 396.711 C 351.489 398.526,352.037 399.154,352.037 399.524 C 352.037 399.929,352.119 400.000,352.593 400.000 C 353.625 400.000,353.250 398.451,352.032 397.682 C 351.614 397.418,351.112 396.931,350.917 396.600 C 350.721 396.268,350.226 395.809,349.818 395.579 C 349.409 395.350,349.074 395.086,349.074 394.993 C 349.074 394.901,347.657 393.409,345.926 391.677 C 344.194 389.946,342.778 388.449,342.778 388.351 C 342.778 388.252,342.458 387.992,342.067 387.772 C 341.676 387.552,341.211 387.127,341.033 386.827 C 340.856 386.527,340.385 386.066,339.985 385.802 C 339.586 385.537,339.259 385.245,339.259 385.152 C 339.259 384.973,337.437 383.142,334.821 380.693 C 333.959 379.886,333.113 378.995,332.942 378.714 C 332.771 378.432,332.351 378.029,332.010 377.817 C 331.668 377.606,331.242 377.183,331.062 376.878 C 330.883 376.573,330.443 376.143,330.086 375.922 C 329.728 375.701,329.309 375.276,329.156 374.978 C 328.870 374.427,327.354 372.860,324.695 370.370 C 323.880 369.606,323.135 368.856,323.041 368.703 C 322.947 368.549,322.562 368.194,322.185 367.913 C 321.808 367.632,321.360 367.167,321.190 366.879 C 321.021 366.592,320.568 366.163,320.185 365.926 C 319.802 365.689,319.348 365.257,319.176 364.966 C 319.004 364.675,318.611 364.251,318.303 364.024 C 317.995 363.797,317.522 363.315,317.251 362.952 C 316.981 362.590,316.051 361.644,315.185 360.851 C 314.319 360.058,313.469 359.188,313.296 358.917 C 313.123 358.647,312.654 358.225,312.254 357.979 C 311.853 357.734,311.384 357.293,311.211 357.000 C 311.038 356.707,310.570 356.262,310.171 356.009 C 309.771 355.757,309.444 355.459,309.444 355.347 C 309.444 355.234,308.882 354.589,308.194 353.914 C 307.506 353.238,306.469 352.185,305.889 351.574 C 305.309 350.963,304.517 350.171,304.130 349.813 C 303.743 349.456,303.301 349.019,303.148 348.843 C 302.858 348.508,301.633 347.275,300.801 346.481 C 300.535 346.227,300.099 345.780,299.834 345.489 C 299.238 344.836,295.060 340.670,294.223 339.896 C 293.887 339.585,293.444 339.143,293.241 338.916 C 293.037 338.688,292.537 338.178,292.130 337.784 C 291.722 337.389,291.264 336.938,291.111 336.782 C 290.958 336.625,290.542 336.205,290.185 335.847 C 289.829 335.489,288.495 334.144,287.222 332.858 C 285.949 331.572,284.727 330.398,284.508 330.250 C 284.288 330.101,283.922 329.709,283.696 329.378 C 283.469 329.047,282.998 328.589,282.648 328.360 C 282.299 328.131,281.856 327.677,281.663 327.352 C 281.470 327.026,280.974 326.552,280.562 326.298 C 280.149 326.044,279.766 325.692,279.710 325.516 C 279.621 325.237,276.589 322.131,274.498 320.178 C 274.112 319.817,273.630 319.334,273.426 319.104 C 273.093 318.729,272.144 317.784,271.072 316.759 C 270.858 316.556,270.467 316.160,270.203 315.881 C 269.939 315.602,269.368 315.001,268.935 314.545 C 267.919 313.476,267.942 313.208,269.167 311.835 C 269.727 311.208,270.185 310.622,270.185 310.533 C 270.185 310.445,270.539 310.119,270.972 309.809 C 271.668 309.310,299.429 281.685,376.259 205.034 C 392.800 188.533,399.104 182.355,399.482 182.280 C 399.997 182.177,400.000 182.166,400.000 180.718 L 400.000 179.259 323.194 179.270 C 250.417 179.280,246.323 179.298,245.136 179.607 " stroke="none" fill="#b4e7fa" fill-rule="evenodd"></path><path id="path3" d="M188.840 238.204 C 187.968 238.582,114.815 311.871,114.815 312.366 C 114.815 312.647,115.346 313.342,116.385 314.420 C 117.249 315.316,118.082 316.350,118.235 316.717 C 118.389 317.085,118.899 317.703,119.370 318.091 C 120.048 318.651,127.202 325.690,140.463 338.848 C 140.769 339.151,141.639 340.013,142.397 340.764 C 143.655 342.011,144.930 343.296,148.252 346.667 C 148.905 347.329,149.752 348.168,150.136 348.532 C 150.519 348.896,151.417 349.796,152.130 350.531 C 152.843 351.267,153.682 352.029,153.996 352.226 C 154.310 352.423,154.658 352.785,154.770 353.032 C 154.883 353.279,155.293 353.718,155.682 354.008 C 156.071 354.298,156.467 354.660,156.563 354.814 C 156.658 354.967,158.408 356.741,160.452 358.756 C 162.495 360.770,164.226 362.479,164.300 362.552 C 164.373 362.625,165.685 363.935,167.216 365.463 C 168.747 366.991,170.125 368.366,170.278 368.519 C 170.430 368.671,171.218 369.463,172.029 370.278 C 172.839 371.093,173.776 372.026,174.112 372.353 C 174.448 372.679,174.900 373.126,175.118 373.346 C 175.335 373.566,175.821 374.049,176.196 374.419 C 176.572 374.790,177.394 375.634,178.023 376.295 C 178.652 376.956,179.472 377.722,179.845 377.998 C 180.219 378.273,180.579 378.672,180.647 378.886 C 180.715 379.099,181.102 379.483,181.508 379.739 C 181.914 379.995,182.413 380.487,182.616 380.832 C 182.820 381.176,183.272 381.627,183.621 381.833 C 183.970 382.039,184.409 382.460,184.597 382.768 C 184.784 383.076,185.278 383.575,185.694 383.876 C 186.110 384.177,186.503 384.590,186.567 384.794 C 186.632 384.997,187.090 385.455,187.585 385.810 C 188.081 386.166,188.539 386.625,188.604 386.831 C 188.670 387.036,189.006 387.379,189.352 387.593 C 189.698 387.806,190.032 388.143,190.095 388.341 C 190.194 388.654,190.298 388.590,190.892 387.850 C 191.741 386.792,192.081 386.441,196.303 382.270 C 198.184 380.412,199.889 378.721,200.093 378.512 C 200.515 378.077,205.636 373.127,207.603 371.250 C 208.324 370.563,208.972 370.000,209.043 370.000 C 209.114 370.000,209.369 369.681,209.610 369.291 C 209.851 368.902,210.412 368.352,210.857 368.071 C 211.302 367.789,211.667 367.483,211.667 367.390 C 211.667 367.297,212.386 366.534,213.264 365.694 C 214.143 364.854,215.955 363.057,217.292 361.700 C 218.629 360.344,219.931 359.030,220.185 358.780 C 220.440 358.530,221.990 357.015,223.629 355.413 C 228.052 351.091,229.473 349.693,230.117 349.026 C 230.436 348.696,230.937 348.218,231.230 347.963 C 232.600 346.772,239.214 340.220,239.587 339.685 C 239.819 339.353,240.294 338.888,240.643 338.651 C 240.992 338.413,241.925 337.517,242.715 336.658 C 243.505 335.800,244.626 334.749,245.204 334.323 C 245.783 333.897,246.495 333.237,246.786 332.856 C 247.523 331.890,250.357 329.044,250.973 328.650 C 251.253 328.471,253.294 326.478,255.510 324.221 C 257.725 321.964,259.857 319.820,260.247 319.457 C 260.637 319.094,261.774 317.984,262.773 316.991 C 263.800 315.969,264.921 315.037,265.355 314.842 C 266.035 314.538,266.088 314.471,265.824 314.251 C 265.660 314.115,265.272 313.503,264.963 312.890 C 264.209 311.396,203.321 250.414,201.631 249.460 C 200.842 249.015,200.494 248.668,200.087 247.920 C 199.433 246.719,192.972 240.201,191.885 239.647 C 191.472 239.436,190.899 239.020,190.613 238.724 C 189.968 238.055,189.500 237.918,188.840 238.204 " stroke="none" fill="#04b4fb" fill-rule="evenodd"></path></g></svg>