<svg id="svg" version="1.1" xmlns="http://www.w3.org/2000/svg" xmlns:xlink="http://www.w3.org/1999/xlink" width="400" height="400" viewBox="0, 0, 400,400"><g id="svgg"><path id="path0" d="M65.910 257.701 L 35.140 281.341 37.551 285.885 C 89.712 384.170,218.882 414.398,306.445 348.812 C 312.050 344.614,319.336 338.437,319.336 337.884 C 319.336 337.689,315.732 334.745,311.328 331.341 C 298.814 321.669,270.614 299.840,265.450 295.828 L 260.783 292.202 259.395 293.023 C 234.157 307.974,199.025 312.238,169.972 303.878 C 137.669 294.582,110.555 269.576,98.855 238.291 C 98.014 236.041,97.180 234.168,97.002 234.130 C 96.825 234.092,82.833 244.699,65.910 257.701 " stroke="none" fill="#34ab54" fill-rule="evenodd"></path><path id="path1" d="M200.000 201.953 L 200.000 237.500 249.023 237.500 C 275.986 237.500,298.045 237.632,298.043 237.793 C 298.034 238.575,295.936 246.219,295.069 248.633 C 294.528 250.137,293.915 251.936,293.706 252.631 C 290.111 264.583,273.720 284.757,262.463 291.083 C 260.500 292.187,260.122 291.707,267.383 297.330 C 270.820 299.992,280.211 307.263,288.252 313.487 C 296.292 319.712,306.663 327.749,311.298 331.348 L 319.727 337.892 325.092 332.398 C 328.043 329.376,331.119 326.081,331.928 325.076 C 332.737 324.071,333.808 322.808,334.309 322.269 C 340.193 315.939,350.072 300.422,356.051 288.118 C 360.230 279.520,362.610 273.609,365.422 264.844 C 375.235 234.259,377.680 200.096,372.089 171.702 C 371.542 168.921,371.094 166.592,371.094 166.526 C 371.094 166.460,332.598 166.406,285.547 166.406 L 200.000 166.406 200.000 201.953 " stroke="none" fill="#4484f3" fill-rule="evenodd"></path><path id="path2" d="M34.604 119.857 C 14.404 158.919,10.973 213.861,25.945 258.522 C 29.009 267.661,34.626 281.118,35.332 281.009 C 35.494 280.984,49.351 270.437,66.126 257.572 C 82.900 244.706,96.755 234.090,96.914 233.981 C 97.073 233.871,96.768 232.289,96.236 230.465 C 90.358 210.304,90.710 183.312,97.068 166.749 C 97.255 166.261,90.252 160.712,66.751 142.725 C 31.122 115.457,35.331 118.451,34.604 119.857 " stroke="none" fill="#fbbb04" fill-rule="evenodd"></path><path id="path3" d="M188.867 16.814 C 124.345 20.500,65.252 58.968,36.548 115.968 L 35.209 118.626 66.069 142.223 C 83.042 155.202,97.049 165.735,97.195 165.630 C 97.341 165.526,98.121 163.680,98.927 161.529 C 124.061 94.452,208.969 70.256,265.010 114.201 C 266.283 115.199,267.426 116.016,267.550 116.016 C 268.171 116.016,321.223 62.479,320.888 62.191 C 283.184 29.705,237.581 14.031,188.867 16.814 " stroke="none" fill="#ec4434" fill-rule="evenodd"></path></g></svg>