<svg id="svg" version="1.1" xmlns="http://www.w3.org/2000/svg" xmlns:xlink="http://www.w3.org/1999/xlink" width="400" height="400" viewBox="0, 0, 400,400"><g id="svgg"><path id="path0" d="M209.443 15.833 C 209.125 16.660,209.125 193.340,209.443 194.167 C 209.663 194.742,217.965 194.800,299.443 194.800 L 389.200 194.800 389.200 105.000 L 389.200 15.200 299.443 15.200 C 217.965 15.200,209.663 15.258,209.443 15.833 M191.797 302.800 C 191.797 351.970,191.843 372.085,191.900 347.500 C 191.957 322.915,191.957 282.685,191.900 258.100 C 191.843 233.515,191.797 253.630,191.797 302.800 M209.396 302.600 C 209.396 351.660,209.443 371.789,209.500 347.332 C 209.557 322.875,209.557 282.735,209.500 258.132 C 209.443 233.529,209.396 253.540,209.396 302.600 M56.700 392.300 C 81.395 392.357,121.805 392.357,146.500 392.300 C 171.195 392.243,150.990 392.197,101.600 392.197 C 52.210 392.197,32.005 392.243,56.700 392.300 " stroke="none" fill="#8cc43c" fill-rule="evenodd"></path><path id="path1" d="M12.000 302.400 L 12.000 392.000 101.800 392.000 L 191.600 392.000 191.600 302.400 L 191.600 212.800 101.800 212.800 L 12.000 212.800 12.000 302.400 " stroke="none" fill="#04abeb" fill-rule="evenodd"></path><path id="path2" d="M12.000 104.920 C 12.000 174.169,12.110 194.750,12.480 195.120 C 13.224 195.864,190.319 195.788,191.300 195.043 C 191.963 194.540,192.000 189.773,192.000 104.856 L 192.000 15.200 102.000 15.200 L 12.000 15.200 12.000 104.920 M210.200 195.200 C 210.364 195.465,240.604 195.600,299.624 195.600 C 358.808 195.600,388.800 195.465,388.800 195.200 C 388.800 194.935,358.725 194.800,299.376 194.800 C 239.863 194.800,210.035 194.934,210.200 195.200 M12.200 212.400 C 12.035 212.666,41.929 212.800,101.576 212.800 C 161.059 212.800,191.200 212.665,191.200 212.400 C 191.200 211.846,12.543 211.846,12.200 212.400 M209.660 212.641 C 209.362 212.977,209.182 213.286,209.260 213.326 C 210.046 213.739,389.238 213.113,389.099 212.698 C 388.822 211.865,210.395 211.808,209.660 212.641 M209.333 392.200 C 209.422 392.465,239.895 392.634,299.414 392.701 C 359.117 392.768,389.228 392.668,388.963 392.403 C 388.411 391.851,209.149 391.647,209.333 392.200 M101.600 392.400 L 11.800 392.603 101.676 392.701 C 161.269 392.767,191.636 392.665,191.800 392.400 C 191.936 392.180,191.902 392.044,191.724 392.099 C 191.546 392.153,150.990 392.289,101.600 392.400 " stroke="none" fill="#f46424" fill-rule="evenodd"></path><path id="path3" d="M209.785 213.700 C 209.680 213.975,209.641 254.160,209.697 303.000 L 209.800 391.800 299.500 391.901 L 389.200 392.002 389.200 302.601 L 389.200 213.200 299.587 213.200 C 228.265 213.200,209.936 213.302,209.785 213.700 " stroke="none" fill="#fcc40c" fill-rule="evenodd"></path></g></svg>