<svg id="svg" version="1.1" xmlns="http://www.w3.org/2000/svg" xmlns:xlink="http://www.w3.org/1999/xlink" width="400" height="550" viewBox="0, 0, 400,550">
  <g id="svgg">
    <path id="path0" d="M31.306 0.337 C 15.842 2.954,3.430 15.130,0.474 30.583 C -0.240 34.312,-0.240 515.688,0.474 519.417 C 3.197 533.652,13.693 544.950,27.877 548.914 L 31.167 549.833 200.000 549.833 L 368.833 549.833 372.167 548.909 C 385.164 545.304,395.021 535.502,398.904 522.322 L 399.833 519.167 399.919 328.169 L 400.004 137.171 331.419 68.586 L 262.834 -0.000 147.834 0.039 C 84.583 0.061,32.146 0.195,31.306 0.337 M399.667 137.416 C 399.667 137.554,368.842 137.667,331.167 137.667 L 262.667 137.667 262.667 68.917 L 262.667 0.167 331.167 68.667 C 368.842 106.341,399.667 137.279,399.667 137.416 M325.000 303.167 L 325.000 390.667 200.000 390.667 L 75.000 390.667 75.000 303.167 L 75.000 215.667 200.000 215.667 L 325.000 215.667 325.000 303.167 M106.223 246.888 C 106.100 247.011,106.000 272.361,106.000 303.222 L 106.000 359.333 200.001 359.333 L 294.002 359.333 293.918 303.083 L 293.833 246.833 200.139 246.749 C 148.608 246.703,106.345 246.766,106.223 246.888 " stroke="none" fill="#fbbc0b" fill-rule="evenodd"></path>
    <path id="path1" d="M262.667 68.917 L 262.667 137.667 331.167 137.667 C 368.842 137.667,399.667 137.554,399.667 137.416 C 399.667 137.279,368.842 106.341,331.167 68.667 L 262.667 0.167 262.667 68.917 " stroke="none" fill="#f49404" fill-rule="evenodd"></path>
  </g>
</svg>
