<svg id="svg" xmlns="http://www.w3.org/2000/svg" xmlns:xlink="http://www.w3.org/1999/xlink" width="400" height="400" viewBox="0, 0, 400,400"><g id="svgg"><path id="path0" d="M188.962 0.581 C 73.478 7.045,-12.225 109.574,1.784 224.509 C 12.836 315.187,84.813 387.164,175.491 398.216 C 294.859 412.765,399.626 320.114,399.626 200.000 C 399.626 85.281,303.384 -5.823,188.962 0.581 M222.405 108.858 C 246.899 125.189,246.407 124.827,247.791 127.575 C 252.329 136.586,244.277 146.743,234.563 144.258 C 232.540 143.741,232.548 143.746,221.813 136.592 C 216.453 133.021,211.983 130.049,211.880 129.988 C 211.756 129.914,211.711 146.761,211.747 180.420 C 211.804 234.521,211.829 232.991,210.840 235.537 C 207.083 245.212,192.917 245.212,189.160 235.537 C 188.172 232.992,188.197 234.517,188.254 180.420 C 188.289 146.761,188.244 129.914,188.120 129.988 C 188.017 130.049,183.547 133.021,178.187 136.592 C 166.219 144.567,166.114 144.621,162.582 144.621 C 152.366 144.621,147.067 132.308,154.122 124.962 C 155.113 123.930,199.073 94.168,199.954 93.932 C 199.980 93.925,210.083 100.642,222.405 108.858 M130.662 183.905 C 142.922 187.040,142.092 205.099,129.609 206.822 C 128.829 206.930,107.388 208.419,106.618 208.419 C 106.035 208.419,105.167 207.194,124.060 233.024 C 145.468 262.293,143.784 259.648,143.773 263.985 C 143.750 272.745,134.812 278.222,126.870 274.343 C 124.334 273.105,124.301 273.063,104.748 246.305 C 83.236 216.867,85.108 219.413,85.028 219.493 C 84.992 219.529,83.529 225.815,81.776 233.461 C 78.077 249.600,78.192 249.255,75.698 251.753 C 68.329 259.133,55.777 254.006,55.756 243.608 C 55.753 242.227,67.905 188.234,68.328 187.749 C 68.485 187.568,124.714 183.599,127.706 183.557 C 128.666 183.544,129.748 183.671,130.662 183.905 M300.000 186.717 C 315.641 187.752,328.640 188.660,328.888 188.734 C 329.577 188.939,344.971 240.694,345.129 243.334 C 345.798 254.544,331.587 260.064,324.441 251.370 C 323.016 249.636,322.667 248.656,318.702 235.267 C 316.568 228.064,314.782 222.098,314.731 222.010 C 314.681 221.922,314.392 222.365,314.090 222.994 C 313.338 224.562,276.569 272.448,274.886 274.052 C 268.663 279.983,258.401 277.143,255.750 268.756 C 254.809 265.779,255.372 261.864,257.116 259.265 C 257.983 257.972,293.693 211.444,294.450 210.619 C 294.709 210.337,294.866 210.051,294.797 209.983 C 294.729 209.915,288.758 209.457,281.528 208.966 C 265.561 207.882,265.560 207.882,262.423 204.876 C 255.838 198.566,258.585 187.806,267.446 185.202 C 269.190 184.690,269.822 184.719,300.000 186.717 " stroke="none" fill="#000000" fill-rule="evenodd"></path></g></svg>