<svg id="svg" xmlns="http://www.w3.org/2000/svg" xmlns:xlink="http://www.w3.org/1999/xlink" width="400" height="229.00763358778627" viewBox="0, 0, 400,229.00763358778627">
  <g id="svgg">
    <path id="path0" d="M90.840 2.428 C -4.607 23.784,-32.482 143.988,43.967 204.552 C 107.118 254.581,201.734 222.224,222.457 143.511 C 243.476 63.672,169.850 -15.250,90.840 2.428 M286.003 7.571 C 225.012 22.099,219.063 189.487,278.516 218.267 C 337.802 246.967,375.774 100.090,327.471 28.905 C 315.684 11.535,301.025 3.993,286.003 7.571 M373.364 24.046 C 352.972 54.947,357.949 210.687,379.328 210.687 C 391.903 210.687,399.982 172.703,399.995 113.521 C 400.009 44.947,387.440 2.716,373.364 24.046 " stroke="none" fill="#000000" fill-rule="evenodd"></path>
  </g>
</svg>
