<svg id="svg" version="1.1" xmlns="http://www.w3.org/2000/svg" xmlns:xlink="http://www.w3.org/1999/xlink" width="400" height="400" viewBox="0, 0, 400,400"><g id="svgg"><path id="path0" d="M125.112 127.988 C 69.001 143.115,50.424 211.778,91.415 252.533 C 138.053 298.903,216.374 265.976,216.374 200.000 C 216.374 151.907,170.540 115.741,125.112 127.988 M254.634 130.978 C 233.523 137.690,219.666 179.321,225.501 218.500 C 233.353 271.220,267.959 287.388,287.587 247.507 C 311.593 198.729,289.315 119.950,254.634 130.978 M315.326 139.250 C 298.854 157.578,304.431 278.554,320.932 260.843 C 333.808 247.022,333.851 153.025,320.988 139.218 C 318.411 136.451,317.839 136.454,315.326 139.250 " stroke="none" fill="#000000" fill-rule="evenodd"></path></g></svg>