<svg id="svg" version="1.1" xmlns="http://www.w3.org/2000/svg" xmlns:xlink="http://www.w3.org/1999/xlink" width="400" height="371.875" viewBox="0, 0, 400,371.875">
  <g id="svgg">
    <path id="path0" d="M194.791 0.342 C 193.153 0.484,191.563 0.703,191.256 0.830 C 190.949 0.956,189.149 1.160,187.256 1.283 C 185.363 1.406,183.407 1.662,182.908 1.851 C 182.410 2.041,181.237 2.235,180.303 2.284 C 179.369 2.332,178.605 2.485,178.605 2.623 C 178.605 2.760,177.642 2.975,176.465 3.099 C 173.750 3.385,173.107 3.513,172.786 3.834 C 172.644 3.977,171.969 4.093,171.287 4.093 C 170.605 4.093,170.047 4.238,170.047 4.416 C 170.047 4.705,168.360 5.094,166.064 5.336 C 165.614 5.383,165.125 5.541,164.979 5.688 C 164.833 5.834,164.249 5.953,163.681 5.953 C 163.113 5.953,162.545 6.121,162.419 6.326 C 162.292 6.530,161.706 6.698,161.116 6.698 C 160.526 6.698,159.949 6.851,159.834 7.037 C 159.627 7.373,156.752 8.028,156.158 7.875 C 155.990 7.831,155.958 7.967,156.087 8.177 C 156.228 8.405,155.874 8.558,155.207 8.558 C 154.593 8.558,153.980 8.737,153.845 8.956 C 153.710 9.174,153.365 9.263,153.079 9.153 C 152.792 9.043,152.558 9.116,152.558 9.314 C 152.558 9.512,152.327 9.674,152.045 9.674 C 151.763 9.674,150.884 9.955,150.092 10.298 C 149.300 10.641,148.349 10.976,147.980 11.043 C 147.611 11.110,146.824 11.415,146.231 11.722 C 145.638 12.028,144.894 12.279,144.577 12.279 C 144.259 12.279,144.000 12.447,144.000 12.651 C 144.000 12.856,143.679 13.023,143.286 13.023 C 142.893 13.023,142.098 13.259,141.519 13.547 C 140.939 13.835,140.047 14.232,139.535 14.429 C 139.023 14.626,137.681 15.228,136.553 15.766 C 135.424 16.304,134.374 16.744,134.220 16.744 C 134.065 16.744,133.276 17.163,132.465 17.674 C 131.655 18.186,130.837 18.605,130.648 18.605 C 130.459 18.605,129.283 19.182,128.036 19.887 C 126.788 20.592,125.767 21.086,125.767 20.985 C 125.767 20.884,125.027 21.311,124.121 21.934 C 123.216 22.557,122.085 23.230,121.610 23.430 C 121.134 23.630,119.907 24.298,118.884 24.915 C 117.860 25.532,116.772 26.155,116.465 26.300 C 115.346 26.827,110.694 29.913,110.574 30.208 C 110.505 30.375,110.253 30.512,110.012 30.512 C 109.771 30.512,109.122 30.930,108.571 31.442 C 108.019 31.953,107.482 32.372,107.377 32.372 C 107.096 32.372,99.010 38.239,97.436 39.585 C 94.955 41.708,94.078 42.419,93.941 42.419 C 93.867 42.419,93.337 42.860,92.763 43.400 C 92.190 43.939,91.219 44.692,90.605 45.073 C 89.991 45.453,89.631 45.765,89.805 45.766 C 89.980 45.767,89.319 46.479,88.337 47.349 C 87.354 48.219,85.723 49.804,84.710 50.873 C 83.698 51.941,82.746 52.738,82.594 52.644 C 82.442 52.550,82.226 52.823,82.114 53.251 C 82.002 53.679,81.732 53.918,81.513 53.783 C 81.295 53.648,81.116 53.713,81.116 53.927 C 81.116 54.142,79.961 55.533,78.549 57.019 C 77.136 58.505,75.085 60.710,73.990 61.920 C 72.896 63.129,71.665 64.469,71.255 64.896 C 70.845 65.324,69.924 66.422,69.208 67.336 C 68.493 68.249,67.530 69.404,67.070 69.902 C 66.609 70.399,66.233 71.043,66.233 71.332 C 66.233 71.621,66.065 71.754,65.860 71.628 C 65.656 71.501,65.488 71.633,65.488 71.920 C 65.488 72.208,65.150 72.749,64.735 73.124 C 64.160 73.645,64.094 73.877,64.456 74.106 C 64.717 74.272,97.437 74.410,137.167 74.413 C 215.966 74.419,212.538 74.329,213.662 76.430 C 213.955 76.978,214.125 92.815,214.251 131.380 L 214.429 185.561 220.796 185.803 C 224.298 185.936,266.077 186.045,313.638 186.045 L 400.114 186.047 399.907 174.936 C 399.782 168.255,399.544 163.545,399.308 163.122 C 399.093 162.735,398.809 160.619,398.678 158.418 C 398.547 156.218,398.289 154.325,398.104 154.210 C 397.919 154.096,397.767 153.175,397.767 152.164 C 397.767 151.153,397.620 150.326,397.439 150.326 C 397.258 150.326,396.993 149.071,396.849 147.537 C 396.706 146.004,396.435 144.654,396.248 144.539 C 396.060 144.423,395.907 143.752,395.907 143.048 C 395.907 142.344,395.763 141.767,395.588 141.767 C 395.412 141.767,395.160 140.728,395.027 139.458 C 394.895 138.188,394.620 136.982,394.416 136.779 C 394.213 136.576,394.047 135.940,394.047 135.367 C 394.047 134.794,393.891 134.326,393.701 134.326 C 393.511 134.326,393.241 133.402,393.100 132.274 C 392.959 131.146,392.695 130.131,392.515 130.020 C 392.334 129.908,392.186 129.408,392.186 128.908 C 392.186 128.409,392.034 128.000,391.849 128.000 C 391.663 128.000,391.397 127.163,391.256 126.140 C 391.115 125.116,390.848 124.279,390.663 124.279 C 390.477 124.279,390.326 123.860,390.326 123.349 C 390.326 122.837,390.177 122.419,389.996 122.419 C 389.814 122.419,389.553 121.665,389.415 120.744 C 389.277 119.823,389.007 119.070,388.814 119.070 C 388.622 119.070,388.465 118.651,388.465 118.140 C 388.465 117.628,388.298 117.209,388.093 117.209 C 387.888 117.209,387.721 116.942,387.721 116.614 C 387.721 116.287,387.490 115.492,387.207 114.847 C 386.924 114.202,386.444 113.088,386.140 112.372 C 385.837 111.656,385.357 110.526,385.075 109.860 C 384.793 109.195,384.436 108.651,384.281 108.651 C 384.127 108.651,384.000 108.426,384.000 108.150 C 384.000 107.875,383.770 107.163,383.488 106.569 C 383.207 105.975,382.747 104.944,382.467 104.279 C 382.187 103.614,381.850 103.070,381.718 103.070 C 381.586 103.070,381.368 102.484,381.234 101.767 C 381.099 101.051,380.830 100.465,380.634 100.465 C 380.439 100.465,380.279 100.214,380.279 99.907 C 380.279 99.600,380.112 99.349,379.907 99.349 C 379.702 99.349,379.535 99.092,379.535 98.778 C 379.535 98.239,378.530 96.405,378.012 96.000 C 377.882 95.898,377.648 95.409,377.493 94.913 C 377.339 94.418,376.646 93.128,375.955 92.047 C 375.263 90.967,374.698 89.907,374.698 89.692 C 374.698 89.478,374.530 89.302,374.326 89.302 C 374.121 89.302,373.953 89.063,373.953 88.771 C 373.953 88.478,373.744 88.011,373.488 87.732 C 372.938 87.131,372.189 85.989,371.835 85.209 C 371.695 84.902,371.026 83.858,370.349 82.888 C 369.671 81.918,369.116 80.955,369.116 80.748 C 369.116 80.541,368.985 80.372,368.824 80.372 C 368.664 80.372,368.216 79.828,367.829 79.163 C 367.442 78.498,367.029 77.870,366.910 77.767 C 366.508 77.422,364.651 74.842,364.651 74.629 C 364.651 74.513,364.358 74.118,364.000 73.751 C 363.642 73.384,363.014 72.612,362.605 72.036 C 362.195 71.459,361.651 70.767,361.395 70.497 C 361.140 70.227,360.930 69.886,360.930 69.739 C 360.930 69.591,360.344 68.901,359.628 68.206 C 358.912 67.510,358.326 66.793,358.326 66.613 C 358.326 66.433,357.614 65.536,356.744 64.619 C 355.874 63.703,354.637 62.309,353.995 61.523 C 352.517 59.713,342.323 49.479,339.784 47.256 C 338.732 46.335,336.914 44.702,335.744 43.628 C 334.573 42.553,333.495 41.674,333.348 41.674 C 333.201 41.674,332.607 41.214,332.029 40.651 C 331.450 40.088,330.498 39.293,329.912 38.884 C 329.327 38.474,328.627 37.930,328.357 37.674 C 328.088 37.419,327.688 37.209,327.468 37.209 C 327.249 37.209,327.070 37.066,327.070 36.891 C 327.070 36.716,326.023 35.846,324.744 34.957 C 323.465 34.069,322.335 33.249,322.233 33.136 C 321.784 32.640,318.455 30.512,318.129 30.512 C 317.930 30.512,317.767 30.379,317.767 30.218 C 317.767 30.056,316.930 29.435,315.907 28.837 C 314.884 28.240,314.047 27.656,314.047 27.540 C 314.047 27.424,313.295 26.999,312.376 26.595 C 311.457 26.191,310.703 25.735,310.701 25.581 C 310.699 25.428,310.533 25.302,310.331 25.302 C 310.130 25.302,309.167 24.812,308.192 24.213 C 305.650 22.650,300.950 20.084,300.186 19.841 C 299.828 19.727,299.535 19.486,299.535 19.305 C 299.535 19.125,299.321 18.977,299.060 18.977 C 298.798 18.977,297.616 18.474,296.433 17.860 C 295.249 17.247,293.956 16.744,293.559 16.744 C 293.162 16.744,292.837 16.616,292.837 16.460 C 292.837 16.161,290.121 14.884,289.486 14.884 C 289.283 14.884,289.116 14.716,289.116 14.512 C 289.116 14.307,288.698 14.140,288.186 14.140 C 287.674 14.140,287.256 13.992,287.256 13.811 C 287.256 13.630,286.879 13.389,286.419 13.276 C 284.680 12.846,282.791 12.087,282.791 11.816 C 282.791 11.661,282.475 11.535,282.089 11.535 C 281.703 11.535,280.908 11.285,280.322 10.979 C 279.735 10.673,278.973 10.422,278.627 10.421 C 278.281 10.420,277.894 10.251,277.767 10.047 C 277.641 9.842,277.139 9.674,276.651 9.674 C 276.164 9.674,275.667 9.517,275.548 9.324 C 275.429 9.131,274.582 8.861,273.666 8.723 C 272.750 8.586,272.000 8.325,272.000 8.144 C 272.000 7.962,271.591 7.814,271.092 7.814 C 270.592 7.814,270.087 7.658,269.970 7.468 C 269.852 7.278,268.837 7.007,267.715 6.867 C 266.593 6.727,265.674 6.464,265.674 6.283 C 265.674 6.102,265.182 5.953,264.580 5.953 C 263.978 5.953,263.392 5.803,263.278 5.618 C 263.164 5.433,262.066 5.166,260.838 5.023 C 259.610 4.881,258.605 4.613,258.605 4.429 C 258.605 4.244,258.091 4.093,257.464 4.093 C 256.837 4.093,256.015 3.928,255.639 3.727 C 255.263 3.525,253.767 3.250,252.315 3.115 C 250.862 2.980,249.674 2.726,249.674 2.551 C 249.674 2.376,248.931 2.233,248.022 2.233 C 247.113 2.233,246.276 2.082,246.162 1.897 C 246.048 1.713,243.987 1.440,241.582 1.292 C 239.069 1.137,237.097 0.846,236.946 0.608 C 236.645 0.134,199.870 -0.098,194.791 0.342 M59.335 129.581 C 59.237 129.837,59.201 155.330,59.254 186.233 L 59.351 242.419 59.443 186.140 L 59.535 129.860 85.209 129.860 C 102.078 129.860,110.884 129.733,110.884 129.488 C 110.884 128.891,59.562 128.983,59.335 129.581 M113.674 129.860 C 113.540 130.078,113.926 130.233,114.605 130.233 C 115.283 130.233,115.669 130.078,115.535 129.860 C 115.408 129.656,114.990 129.488,114.605 129.488 C 114.220 129.488,113.801 129.656,113.674 129.860 M117.209 130.605 C 117.209 130.809,117.544 130.977,117.953 130.977 C 118.363 130.977,118.698 130.809,118.698 130.605 C 118.698 130.400,118.363 130.233,117.953 130.233 C 117.544 130.233,117.209 130.400,117.209 130.605 M119.814 131.349 C 119.814 131.553,120.065 131.721,120.372 131.721 C 120.679 131.721,120.930 131.553,120.930 131.349 C 120.930 131.144,120.679 130.977,120.372 130.977 C 120.065 130.977,119.814 131.144,119.814 131.349 M123.535 132.465 C 123.535 132.670,123.786 132.837,124.093 132.837 C 124.400 132.837,124.651 132.670,124.651 132.465 C 124.651 132.260,124.400 132.093,124.093 132.093 C 123.786 132.093,123.535 132.260,123.535 132.465 M125.023 133.209 C 125.023 133.414,125.274 133.581,125.581 133.581 C 125.888 133.581,126.140 133.414,126.140 133.209 C 126.140 133.005,125.888 132.837,125.581 132.837 C 125.274 132.837,125.023 133.005,125.023 133.209 M132.093 136.890 C 132.093 137.073,132.358 137.324,132.682 137.449 C 133.592 137.798,133.682 137.722,133.076 137.116 C 132.444 136.484,132.093 136.403,132.093 136.890 M134.326 138.004 C 134.326 138.495,138.835 142.963,139.082 142.716 C 139.200 142.599,138.178 141.417,136.811 140.090 C 135.444 138.763,134.326 137.824,134.326 138.004 M140.121 144.696 C 140.947 145.499,141.138 145.475,140.806 144.611 C 140.677 144.275,140.309 144.000,139.988 144.000 C 139.506 144.000,139.529 144.120,140.121 144.696 M81.287 146.257 C 80.935 146.826,80.278 146.807,93.023 146.605 C 100.496 146.486,104.002 146.319,102.698 146.143 C 99.414 145.700,81.572 145.796,81.287 146.257 M106.791 146.977 C 106.791 147.181,107.293 147.349,107.907 147.349 C 108.521 147.349,109.023 147.181,109.023 146.977 C 109.023 146.772,108.521 146.605,107.907 146.605 C 107.293 146.605,106.791 146.772,106.791 146.977 M109.767 147.721 C 109.767 147.926,110.186 148.093,110.698 148.093 C 111.209 148.093,111.628 147.926,111.628 147.721 C 111.628 147.516,111.209 147.349,110.698 147.349 C 110.186 147.349,109.767 147.516,109.767 147.721 M113.488 148.837 C 113.488 149.042,113.740 149.209,114.047 149.209 C 114.353 149.209,114.605 149.377,114.605 149.581 C 114.605 149.786,114.774 149.953,114.980 149.953 C 115.202 149.953,115.166 149.650,114.890 149.209 C 114.406 148.434,113.488 148.191,113.488 148.837 M144.000 153.488 C 144.000 153.795,144.167 154.047,144.372 154.047 C 144.577 154.047,144.744 153.795,144.744 153.488 C 144.744 153.181,144.577 152.930,144.372 152.930 C 144.167 152.930,144.000 153.181,144.000 153.488 M119.442 153.887 C 119.442 154.004,119.701 154.359,120.018 154.676 C 120.734 155.392,121.209 155.016,120.566 154.242 C 120.101 153.682,119.442 153.474,119.442 153.887 M144.744 155.721 C 144.744 156.233,144.912 156.651,145.116 156.651 C 145.321 156.651,145.488 156.233,145.488 155.721 C 145.488 155.209,145.321 154.791,145.116 154.791 C 144.912 154.791,144.744 155.209,144.744 155.721 M120.930 156.093 C 120.930 156.400,121.098 156.651,121.302 156.651 C 121.507 156.651,121.674 156.400,121.674 156.093 C 121.674 155.786,121.507 155.535,121.302 155.535 C 121.098 155.535,120.930 155.786,120.930 156.093 M145.500 163.721 C 145.500 167.459,145.623 169.294,145.849 168.936 C 146.265 168.278,146.216 159.081,145.793 158.416 C 145.632 158.161,145.500 160.549,145.500 163.721 M122.047 159.792 C 122.047 160.316,122.214 160.744,122.419 160.744 C 122.623 160.744,122.791 160.419,122.791 160.022 C 122.791 159.625,122.623 159.196,122.419 159.070 C 122.208 158.939,122.047 159.252,122.047 159.792 M122.791 165.975 C 122.791 168.128,122.925 169.263,123.163 169.116 C 123.367 168.990,123.535 167.473,123.535 165.745 C 123.535 163.900,123.381 162.605,123.163 162.605 C 122.942 162.605,122.791 163.976,122.791 165.975 M122.047 171.535 C 122.047 171.944,122.214 172.279,122.419 172.279 C 122.623 172.279,122.791 171.944,122.791 171.535 C 122.791 171.126,122.623 170.791,122.419 170.791 C 122.214 170.791,122.047 171.126,122.047 171.535 M144.744 172.093 C 144.744 172.605,144.912 173.023,145.116 173.023 C 145.321 173.023,145.488 172.605,145.488 172.093 C 145.488 171.581,145.321 171.163,145.116 171.163 C 144.912 171.163,144.744 171.581,144.744 172.093 M144.198 174.621 C 144.038 174.988,144.012 175.392,144.140 175.520 C 144.518 175.898,144.823 175.367,144.649 174.634 C 144.494 173.984,144.474 173.983,144.198 174.621 M118.940 178.084 C 118.562 178.603,118.323 179.098,118.409 179.184 C 118.630 179.405,120.186 177.907,120.186 177.474 C 120.186 176.847,119.650 177.110,118.940 178.084 M142.884 178.419 C 142.884 178.726,143.051 178.977,143.256 178.977 C 143.460 178.977,143.628 178.726,143.628 178.419 C 143.628 178.112,143.460 177.860,143.256 177.860 C 143.051 177.860,142.884 178.112,142.884 178.419 M116.104 180.823 C 115.803 181.013,115.669 181.282,115.807 181.419 C 115.945 181.557,116.329 181.399,116.660 181.068 C 117.315 180.413,116.983 180.267,116.104 180.823 M140.748 183.053 C 140.462 183.510,140.429 183.863,140.659 184.005 C 140.859 184.129,141.023 183.969,141.023 183.650 C 141.023 183.331,141.191 183.070,141.395 183.070 C 141.600 183.070,141.767 182.902,141.767 182.698 C 141.767 182.088,141.235 182.274,140.748 183.053 M112.372 183.070 C 112.372 183.274,112.623 183.442,112.930 183.442 C 113.237 183.442,113.488 183.274,113.488 183.070 C 113.488 182.865,113.237 182.698,112.930 182.698 C 112.623 182.698,112.372 182.865,112.372 183.070 M108.837 184.558 C 108.964 184.763,109.308 184.930,109.603 184.930 C 109.898 184.930,110.140 184.763,110.140 184.558 C 110.140 184.353,109.795 184.186,109.373 184.186 C 108.952 184.186,108.711 184.353,108.837 184.558 M106.047 184.930 C 105.612 185.211,105.714 185.292,106.512 185.297 C 107.074 185.300,107.535 185.135,107.535 184.930 C 107.535 184.460,106.775 184.460,106.047 184.930 M101.023 185.674 C 101.150 185.879,101.652 186.047,102.140 186.047 C 102.627 186.047,103.129 185.879,103.256 185.674 C 103.393 185.453,102.942 185.302,102.140 185.302 C 101.337 185.302,100.886 185.453,101.023 185.674 M138.235 186.788 C 137.863 187.199,137.681 187.535,137.829 187.535 C 138.222 187.535,139.282 186.414,139.081 186.213 C 138.987 186.119,138.606 186.378,138.235 186.788 M135.237 190.311 C 134.651 190.814,134.272 191.326,134.395 191.449 C 134.601 191.655,136.558 189.950,136.558 189.564 C 136.558 189.250,136.305 189.393,135.237 190.311 M131.360 193.474 C 131.059 193.664,130.937 193.945,131.089 194.097 C 131.242 194.250,131.650 194.091,131.996 193.745 C 132.668 193.073,132.266 192.901,131.360 193.474 M128.000 195.699 C 128.000 195.916,127.749 196.093,127.442 196.093 C 127.135 196.093,126.884 196.260,126.884 196.465 C 126.884 197.007,127.598 196.920,128.215 196.303 C 128.550 195.969,128.609 195.682,128.375 195.537 C 128.169 195.409,128.000 195.482,128.000 195.699 M124.279 197.581 C 124.279 197.786,124.530 197.953,124.837 197.953 C 125.144 197.953,125.395 197.786,125.395 197.581 C 125.395 197.377,125.144 197.209,124.837 197.209 C 124.530 197.209,124.279 197.377,124.279 197.581 M122.791 198.326 C 122.791 198.530,123.042 198.698,123.349 198.698 C 123.656 198.698,123.907 198.530,123.907 198.326 C 123.907 198.121,123.656 197.953,123.349 197.953 C 123.042 197.953,122.791 198.121,122.791 198.326 M117.209 200.186 C 117.209 200.391,117.544 200.558,117.953 200.558 C 118.363 200.558,118.698 200.391,118.698 200.186 C 118.698 199.981,118.363 199.814,117.953 199.814 C 117.544 199.814,117.209 199.981,117.209 200.186 M114.977 200.930 C 114.977 201.135,115.312 201.302,115.721 201.302 C 116.130 201.302,116.465 201.135,116.465 200.930 C 116.465 200.726,116.130 200.558,115.721 200.558 C 115.312 200.558,114.977 200.726,114.977 200.930 M111.814 201.302 C 111.684 201.513,111.996 201.674,112.536 201.674 C 113.060 201.674,113.488 201.507,113.488 201.302 C 113.488 201.098,113.163 200.930,112.766 200.930 C 112.369 200.930,111.940 201.098,111.814 201.302 M81.116 202.047 C 81.116 202.288,86.147 202.419,95.464 202.419 C 104.934 202.419,109.733 202.292,109.581 202.047 C 109.435 201.809,104.244 201.674,95.234 201.674 C 86.070 201.674,81.116 201.805,81.116 202.047 " stroke="none" fill="#fb8b6b" fill-rule="evenodd"></path>
    <path id="path1" d="M190.512 0.744 C 190.512 1.210,190.907 1.210,191.628 0.744 C 192.079 0.453,192.026 0.382,191.349 0.378 C 190.888 0.375,190.512 0.540,190.512 0.744 M181.767 1.860 C 181.495 2.301,181.860 2.301,182.884 1.860 C 183.601 1.552,183.599 1.540,182.813 1.515 C 182.364 1.500,181.894 1.656,181.767 1.860 M159.070 6.963 C 157.930 7.237,157.580 7.747,158.675 7.537 C 159.205 7.436,159.730 7.206,159.841 7.025 C 159.953 6.845,159.992 6.717,159.929 6.741 C 159.866 6.765,159.479 6.865,159.070 6.963 M122.057 22.683 C 121.756 22.874,121.601 23.120,121.712 23.232 C 121.824 23.343,122.237 23.190,122.632 22.892 C 123.416 22.298,122.940 22.125,122.057 22.683 M118.490 24.732 C 118.092 25.033,117.935 25.279,118.140 25.279 C 118.344 25.279,118.837 25.033,119.234 24.732 C 119.631 24.432,119.789 24.186,119.584 24.186 C 119.379 24.186,118.887 24.432,118.490 24.732 M105.664 33.010 C 104.617 33.736,104.363 33.932,103.070 35.004 L 102.140 35.775 103.256 35.164 C 104.428 34.522,107.118 32.399,106.780 32.382 C 106.673 32.377,106.170 32.659,105.664 33.010 M97.697 38.977 C 97.100 39.540,96.181 40.292,95.654 40.649 C 95.128 41.006,94.875 41.299,95.092 41.300 C 95.309 41.301,96.369 40.549,97.448 39.628 C 98.527 38.707,99.269 37.953,99.096 37.953 C 98.924 37.953,98.294 38.414,97.697 38.977 M83.721 51.163 C 83.033 51.873,82.553 52.538,82.656 52.640 C 82.758 52.742,83.405 52.245,84.093 51.535 C 84.781 50.825,85.261 50.160,85.158 50.058 C 85.056 49.955,84.409 50.453,83.721 51.163 M80.066 54.716 C 79.317 55.414,79.069 55.814,79.385 55.814 C 79.705 55.814,81.216 54.301,81.056 54.141 C 80.957 54.042,80.512 54.301,80.066 54.716 M77.640 57.302 C 77.093 57.916,76.783 58.419,76.951 58.419 C 77.119 58.419,77.737 57.916,78.326 57.302 C 78.914 56.688,79.224 56.186,79.015 56.186 C 78.806 56.186,78.187 56.688,77.640 57.302 M72.833 62.609 C 72.068 63.452,71.442 64.273,71.442 64.434 C 71.442 64.596,72.136 63.974,72.985 63.054 C 73.833 62.133,74.459 61.312,74.376 61.229 C 74.293 61.145,73.598 61.767,72.833 62.609 M64.428 72.783 C 64.151 73.095,63.999 73.425,64.089 73.515 C 64.179 73.605,64.557 73.343,64.928 72.933 C 65.300 72.522,65.452 72.192,65.267 72.200 C 65.082 72.208,64.704 72.470,64.428 72.783 M62.953 75.056 C 62.506 75.510,62.140 76.054,62.140 76.266 C 62.140 76.478,61.983 76.651,61.793 76.651 C 61.602 76.651,61.352 76.944,61.237 77.302 C 61.122 77.660,60.608 78.440,60.095 79.035 C 59.582 79.629,59.163 80.341,59.163 80.616 C 59.163 80.891,59.024 81.116,58.854 81.116 C 58.684 81.116,58.326 81.524,58.059 82.023 L 57.574 82.930 35.205 83.046 C 13.137 83.161,12.815 83.174,11.163 83.970 C 10.242 84.414,9.112 84.886,8.651 85.018 C 8.191 85.151,7.814 85.416,7.814 85.606 C 7.814 85.797,7.620 85.953,7.382 85.953 C 6.835 85.953,2.233 90.577,2.233 91.126 C 2.233 91.351,2.078 91.535,1.890 91.535 C 1.702 91.535,1.429 92.079,1.285 92.744 C 1.141 93.409,0.835 94.073,0.604 94.219 C 0.005 94.600,0.005 277.493,0.604 277.874 C 0.835 278.020,1.141 278.684,1.285 279.349 C 1.429 280.014,1.702 280.558,1.890 280.558 C 2.078 280.558,2.233 280.733,2.233 280.946 C 2.233 281.752,6.620 286.140,7.426 286.140 C 7.639 286.140,7.814 286.296,7.814 286.487 C 7.814 286.677,8.191 286.939,8.651 287.068 C 9.695 287.360,11.118 287.956,12.093 288.509 C 12.618 288.806,19.422 288.964,35.205 289.047 L 57.574 289.163 58.059 290.070 C 58.326 290.569,58.684 290.977,58.854 290.977 C 59.024 290.977,59.163 291.220,59.163 291.518 C 59.163 291.816,59.561 292.458,60.048 292.945 C 60.536 293.432,61.049 294.193,61.190 294.636 C 61.330 295.079,61.602 295.442,61.793 295.442 C 61.983 295.442,62.140 295.617,62.140 295.831 C 62.140 296.045,62.558 296.638,63.070 297.150 C 63.581 297.662,64.000 298.248,64.000 298.452 C 64.000 298.657,64.419 299.243,64.930 299.755 C 65.442 300.266,65.860 300.819,65.860 300.983 C 65.860 301.147,66.447 301.885,67.163 302.622 C 67.879 303.360,68.465 304.075,68.465 304.211 C 68.465 304.348,69.135 305.129,69.953 305.948 C 70.772 306.767,71.442 307.572,71.442 307.739 C 71.442 307.905,72.656 309.306,74.140 310.852 C 75.623 312.398,77.507 314.430,78.326 315.368 C 79.144 316.305,80.960 318.192,82.361 319.560 C 85.758 322.876,85.868 322.977,86.108 322.977 C 86.223 322.977,87.286 323.940,88.471 325.116 C 90.316 326.949,92.303 328.684,95.396 331.162 C 95.779 331.469,96.612 332.181,97.246 332.744 C 97.880 333.307,98.511 333.767,98.648 333.767 C 98.786 333.767,99.436 334.270,100.093 334.884 C 100.750 335.498,101.481 336.000,101.717 336.000 C 101.953 336.000,102.356 336.335,102.611 336.744 C 102.867 337.153,103.317 337.488,103.613 337.488 C 103.908 337.488,104.283 337.713,104.447 337.988 C 104.610 338.263,105.247 338.803,105.860 339.189 C 106.474 339.574,107.060 339.977,107.163 340.084 C 107.477 340.413,108.792 341.192,109.684 341.577 C 110.150 341.778,110.628 342.196,110.747 342.506 C 110.866 342.816,111.262 343.070,111.628 343.070 C 111.993 343.070,112.389 343.321,112.507 343.628 C 112.624 343.935,113.061 344.186,113.477 344.186 C 113.892 344.186,114.233 344.327,114.233 344.500 C 114.233 344.672,114.856 345.132,115.618 345.523 C 116.380 345.913,117.339 346.532,117.750 346.898 C 118.161 347.264,118.877 347.659,119.341 347.776 C 119.806 347.892,120.186 348.137,120.186 348.319 C 120.186 348.502,120.521 348.651,120.930 348.651 C 121.340 348.651,121.674 348.807,121.674 348.998 C 121.674 349.189,122.051 349.463,122.512 349.606 C 122.972 349.750,123.433 349.979,123.535 350.116 C 123.794 350.462,126.349 351.628,126.847 351.628 C 127.072 351.628,127.256 351.795,127.256 352.000 C 127.256 352.205,127.507 352.372,127.814 352.372 C 128.121 352.372,128.372 352.521,128.372 352.703 C 128.372 352.885,128.958 353.143,129.674 353.278 C 130.391 353.412,130.977 353.682,130.977 353.877 C 130.977 354.073,131.228 354.233,131.535 354.233 C 131.842 354.233,132.093 354.381,132.093 354.563 C 132.093 354.745,132.679 355.004,133.395 355.138 C 134.112 355.273,134.698 355.542,134.698 355.738 C 134.698 355.933,135.033 356.093,135.442 356.093 C 135.851 356.093,136.186 356.260,136.186 356.465 C 136.186 356.670,136.439 356.837,136.749 356.837 C 137.059 356.837,137.603 356.997,137.959 357.191 C 138.314 357.386,139.233 357.805,140.000 358.122 C 140.767 358.438,141.965 358.949,142.661 359.256 C 143.357 359.563,144.278 359.814,144.707 359.814 C 145.137 359.814,145.488 359.948,145.488 360.113 C 145.488 360.466,148.736 361.679,149.674 361.676 C 150.033 361.675,150.326 361.842,150.326 362.047 C 150.326 362.251,150.744 362.419,151.256 362.419 C 151.767 362.419,152.186 362.570,152.186 362.756 C 152.186 362.941,153.023 363.208,154.047 363.349 C 155.070 363.490,155.907 363.756,155.907 363.942 C 155.907 364.127,156.292 364.279,156.763 364.279 C 157.233 364.279,157.790 364.451,158.001 364.661 C 158.211 364.871,159.249 365.146,160.308 365.271 C 161.366 365.396,162.233 365.643,162.233 365.819 C 162.233 365.995,162.641 366.140,163.141 366.140 C 163.640 366.140,164.144 366.294,164.261 366.482 C 164.378 366.671,165.560 366.942,166.888 367.084 C 168.216 367.226,169.302 367.490,169.302 367.671 C 169.302 367.852,169.972 368.000,170.791 368.000 C 171.609 368.000,172.279 368.153,172.279 368.340 C 172.279 368.528,173.537 368.799,175.075 368.943 C 176.613 369.087,177.962 369.352,178.074 369.533 C 178.185 369.713,179.010 369.860,179.907 369.860 C 180.804 369.860,181.630 370.010,181.742 370.192 C 181.855 370.374,183.832 370.644,186.136 370.791 C 188.440 370.938,190.561 371.250,190.848 371.483 C 191.579 372.077,236.561 372.089,236.944 371.496 C 237.094 371.262,239.061 370.970,241.488 370.821 C 243.842 370.676,245.927 370.401,246.121 370.209 C 246.315 370.017,247.194 369.860,248.074 369.860 C 248.954 369.860,249.674 369.715,249.674 369.536 C 249.674 369.358,251.011 369.096,252.645 368.953 C 254.278 368.811,255.711 368.538,255.829 368.347 C 255.947 368.156,256.620 368.000,257.324 368.000 C 258.028 368.000,258.605 367.852,258.605 367.671 C 258.605 367.490,259.693 367.226,261.023 367.083 C 262.353 366.941,263.442 366.670,263.442 366.482 C 263.442 366.294,264.028 366.140,264.744 366.140 C 265.460 366.140,266.047 365.984,266.047 365.794 C 266.047 365.604,266.967 365.334,268.093 365.193 C 269.219 365.053,270.140 364.789,270.140 364.608 C 270.140 364.427,270.548 364.279,271.048 364.279 C 271.547 364.279,272.046 364.134,272.156 363.956 C 272.266 363.778,273.036 363.524,273.868 363.391 C 274.701 363.258,275.709 362.985,276.109 362.784 C 276.510 362.583,277.151 362.263,277.536 362.072 C 277.920 361.881,278.841 361.612,279.582 361.472 C 280.324 361.333,280.930 361.071,280.930 360.889 C 280.930 360.707,281.349 360.558,281.860 360.558 C 282.372 360.558,282.791 360.405,282.791 360.219 C 282.791 360.032,283.460 359.766,284.279 359.628 C 285.098 359.490,285.767 359.224,285.767 359.037 C 285.767 358.850,286.092 358.698,286.490 358.698 C 286.887 358.698,287.304 358.549,287.416 358.368 C 287.528 358.186,288.208 357.928,288.926 357.793 C 289.645 357.658,290.233 357.388,290.233 357.192 C 290.233 356.997,290.567 356.837,290.977 356.837 C 291.386 356.837,291.721 356.711,291.721 356.556 C 291.721 356.262,293.103 355.608,294.698 355.146 C 295.209 354.998,295.712 354.765,295.814 354.628 C 296.073 354.283,298.628 353.116,299.126 353.116 C 299.351 353.116,299.535 352.949,299.535 352.744 C 299.535 352.540,299.870 352.372,300.279 352.372 C 300.688 352.372,301.023 352.205,301.023 352.000 C 301.023 351.795,301.236 351.628,301.495 351.628 C 301.754 351.628,302.570 351.218,303.308 350.717 C 304.045 350.216,305.089 349.695,305.627 349.560 C 306.165 349.425,306.605 349.165,306.605 348.983 C 306.605 348.800,306.856 348.651,307.163 348.651 C 307.470 348.651,307.721 348.502,307.721 348.319 C 307.721 348.137,308.140 347.883,308.651 347.754 C 309.163 347.626,309.581 347.356,309.581 347.156 C 309.581 346.955,309.916 346.791,310.326 346.791 C 310.735 346.791,311.070 346.661,311.070 346.503 C 311.070 346.345,311.698 345.886,312.465 345.484 C 313.233 345.081,313.944 344.659,314.047 344.546 C 314.149 344.433,315.028 343.845,315.999 343.240 C 316.971 342.635,317.766 342.014,317.767 341.860 C 317.767 341.707,317.993 341.581,318.268 341.581 C 318.543 341.581,319.254 341.162,319.849 340.649 C 320.444 340.136,321.223 339.622,321.581 339.508 C 321.940 339.393,322.233 339.143,322.233 338.952 C 322.233 338.761,322.484 338.605,322.791 338.605 C 323.098 338.605,323.349 338.448,323.349 338.258 C 323.349 338.067,323.654 337.814,324.027 337.695 C 324.401 337.577,325.029 337.189,325.424 336.833 C 325.819 336.477,327.146 335.437,328.374 334.522 C 329.601 333.606,331.157 332.309,331.832 331.638 C 332.507 330.967,333.177 330.416,333.320 330.413 C 333.464 330.410,334.335 329.736,335.256 328.915 C 336.177 328.095,337.406 327.051,337.989 326.596 C 339.691 325.264,353.301 311.638,354.469 310.097 C 355.055 309.324,356.163 308.047,356.930 307.261 C 357.698 306.474,358.326 305.597,358.326 305.312 C 358.326 305.027,358.652 304.691,359.051 304.564 C 359.450 304.438,359.879 304.008,360.006 303.609 C 360.133 303.210,360.392 302.884,360.583 302.884 C 360.774 302.884,360.930 302.647,360.930 302.357 C 360.930 302.067,361.057 301.774,361.212 301.705 C 361.367 301.637,362.074 300.828,362.784 299.907 C 363.493 298.986,364.174 298.149,364.297 298.047 C 364.421 297.944,364.838 297.316,365.225 296.651 C 365.611 295.986,366.059 295.442,366.220 295.442 C 366.380 295.442,366.512 295.191,366.512 294.884 C 366.512 294.577,366.668 294.326,366.859 294.326 C 367.050 294.326,367.303 294.020,367.421 293.647 C 367.539 293.274,367.948 292.634,368.328 292.226 C 368.708 291.818,369.745 290.323,370.633 288.905 C 371.520 287.486,372.337 286.242,372.448 286.140 C 372.750 285.862,373.478 284.631,374.208 283.163 C 374.564 282.447,375.071 281.639,375.335 281.369 C 375.598 281.098,375.814 280.638,375.814 280.346 C 375.814 280.053,375.981 279.814,376.186 279.814 C 376.391 279.814,376.558 279.563,376.558 279.256 C 376.558 278.949,376.726 278.698,376.930 278.698 C 377.135 278.698,377.303 278.405,377.304 278.047 C 377.305 277.688,377.806 276.642,378.419 275.721 C 379.031 274.800,379.532 273.837,379.533 273.581 C 379.534 273.326,379.702 273.116,379.907 273.116 C 380.112 273.116,380.279 272.781,380.279 272.372 C 380.279 271.963,380.447 271.628,380.651 271.628 C 380.856 271.628,381.023 271.462,381.023 271.258 C 381.023 270.643,382.296 267.907,382.583 267.907 C 382.730 267.907,382.960 267.321,383.094 266.605 C 383.229 265.888,383.487 265.302,383.669 265.302 C 383.851 265.302,384.000 264.884,384.000 264.372 C 384.000 263.860,384.126 263.440,384.279 263.438 C 384.433 263.435,384.870 262.724,385.250 261.856 C 385.631 260.989,386.091 259.988,386.273 259.633 C 386.456 259.278,386.605 258.733,386.605 258.424 C 386.605 258.114,386.757 257.860,386.944 257.860 C 387.131 257.860,387.397 257.191,387.535 256.372 C 387.673 255.553,387.939 254.884,388.126 254.884 C 388.312 254.884,388.465 254.465,388.465 253.953 C 388.465 253.442,388.622 253.023,388.814 253.023 C 389.007 253.023,389.277 252.270,389.415 251.349 C 389.553 250.428,389.814 249.674,389.996 249.674 C 390.177 249.674,390.326 249.256,390.326 248.744 C 390.326 248.233,390.477 247.814,390.663 247.814 C 390.848 247.814,391.115 246.977,391.256 245.953 C 391.397 244.930,391.663 244.093,391.849 244.093 C 392.034 244.093,392.186 243.674,392.186 243.163 C 392.186 242.651,392.337 242.233,392.522 242.233 C 392.706 242.233,392.974 241.228,393.116 240.000 C 393.259 238.772,393.526 237.767,393.711 237.767 C 393.896 237.767,394.047 237.265,394.047 236.651 C 394.047 236.037,394.201 235.535,394.389 235.535 C 394.577 235.535,394.848 234.447,394.990 233.116 C 395.133 231.786,395.397 230.698,395.578 230.698 C 395.759 230.698,395.907 230.122,395.907 229.417 C 395.907 228.713,396.057 228.044,396.240 227.931 C 396.423 227.818,396.692 226.385,396.837 224.746 C 396.982 223.108,397.251 221.767,397.434 221.767 C 397.617 221.767,397.767 221.047,397.767 220.167 C 397.767 219.287,397.924 218.408,398.116 218.214 C 398.308 218.020,398.583 215.935,398.728 213.581 C 398.873 211.228,399.147 209.201,399.338 209.077 C 399.532 208.950,399.780 203.825,399.900 197.449 L 400.115 186.047 313.639 186.045 C 266.077 186.045,224.298 185.936,220.796 185.803 L 214.429 185.561 214.251 131.380 C 214.124 92.520,213.957 76.980,213.659 76.424 C 212.541 74.336,215.841 74.426,136.534 74.325 L 63.766 74.233 62.953 75.056 M110.884 129.541 C 110.884 129.838,111.551 129.897,113.099 129.735 C 114.408 129.598,115.406 129.653,115.540 129.868 C 115.663 130.068,116.425 130.233,117.231 130.233 C 118.038 130.233,118.698 130.400,118.698 130.605 C 118.698 130.809,119.200 130.977,119.814 130.977 C 120.428 130.977,120.930 131.164,120.930 131.392 C 120.930 131.624,121.258 131.722,121.674 131.613 C 122.083 131.506,122.512 131.570,122.626 131.756 C 122.741 131.941,123.243 132.093,123.743 132.093 C 124.275 132.093,124.651 132.310,124.651 132.616 C 124.651 132.956,124.912 133.072,125.395 132.945 C 125.811 132.836,126.140 132.934,126.140 133.166 C 126.140 133.394,126.391 133.581,126.698 133.581 C 127.005 133.581,127.256 133.760,127.256 133.979 C 127.256 134.206,127.573 134.275,128.000 134.140 C 128.427 134.004,128.744 134.073,128.744 134.301 C 128.744 134.519,128.927 134.698,129.150 134.698 C 129.373 134.698,129.888 135.074,130.294 135.535 C 130.701 135.995,130.928 136.165,130.800 135.911 C 130.646 135.608,130.763 135.526,131.143 135.672 C 131.461 135.794,131.721 136.043,131.721 136.226 C 131.721 136.409,131.911 136.558,132.143 136.558 C 132.375 136.558,132.961 137.019,133.445 137.581 C 133.929 138.144,134.325 138.396,134.325 138.141 C 134.325 137.886,135.414 138.734,136.744 140.025 C 138.074 141.317,139.163 142.671,139.163 143.035 C 139.163 143.400,139.500 143.786,139.911 143.893 C 140.323 144.001,140.759 144.488,140.882 144.975 C 141.004 145.462,141.265 145.860,141.461 145.860 C 141.657 145.860,141.705 146.216,141.567 146.651 C 141.398 147.183,141.450 147.359,141.728 147.187 C 141.979 147.032,142.140 147.239,142.140 147.721 C 142.140 148.154,142.307 148.406,142.512 148.279 C 142.716 148.153,142.884 148.394,142.884 148.815 C 142.884 149.237,143.069 149.581,143.296 149.581 C 143.522 149.581,143.613 149.827,143.498 150.128 C 143.383 150.428,143.448 150.773,143.644 150.894 C 143.840 151.015,144.000 151.522,144.000 152.022 C 144.000 152.522,144.167 152.930,144.372 152.930 C 144.577 152.930,144.744 153.349,144.744 153.860 C 144.744 154.372,144.895 154.791,145.080 154.791 C 145.577 154.791,145.873 158.050,145.892 163.721 C 145.911 169.339,145.590 173.023,145.082 173.023 C 144.896 173.023,144.744 173.609,144.744 174.326 C 144.744 175.042,144.577 175.628,144.372 175.628 C 144.167 175.628,144.000 176.047,144.000 176.558 C 144.000 177.070,143.848 177.488,143.663 177.488 C 143.477 177.488,143.413 177.823,143.520 178.233 C 143.629 178.649,143.532 178.977,143.299 178.977 C 143.071 178.977,142.884 179.312,142.884 179.721 C 142.884 180.130,142.716 180.465,142.512 180.465 C 142.307 180.465,142.140 180.800,142.140 181.209 C 142.140 181.619,141.977 181.953,141.779 181.953 C 141.581 181.953,141.515 182.205,141.633 182.512 C 141.751 182.819,141.662 183.070,141.435 183.070 C 141.209 183.070,141.023 183.331,141.023 183.650 C 141.023 183.998,140.849 184.122,140.588 183.961 C 140.301 183.783,140.229 183.890,140.376 184.274 C 140.522 184.654,140.349 184.922,139.881 185.045 C 139.486 185.148,139.163 185.543,139.163 185.923 C 139.163 186.303,138.744 186.928,138.233 187.313 C 137.721 187.697,137.289 188.365,137.273 188.796 C 137.257 189.228,137.157 189.365,137.051 189.101 C 136.903 188.734,136.736 188.722,136.340 189.050 C 136.055 189.286,135.919 189.637,136.038 189.829 C 136.286 190.230,134.739 191.698,134.333 191.447 C 134.186 191.355,133.508 191.945,132.827 192.757 C 132.146 193.568,131.295 194.233,130.936 194.233 C 130.577 194.233,130.174 194.574,130.042 194.992 C 129.859 195.568,129.605 195.692,128.993 195.504 C 128.549 195.368,128.304 195.381,128.447 195.533 C 128.864 195.974,127.770 196.834,126.678 196.924 C 126.128 196.970,125.597 197.220,125.497 197.480 C 125.397 197.740,124.999 197.953,124.611 197.953 C 124.224 197.953,123.907 198.121,123.907 198.326 C 123.907 198.530,123.572 198.698,123.163 198.698 C 122.753 198.698,122.419 198.868,122.419 199.077 C 122.419 199.296,122.025 199.357,121.488 199.223 C 120.915 199.079,120.558 199.147,120.558 199.402 C 120.558 199.628,120.140 199.814,119.628 199.814 C 119.116 199.814,118.698 199.981,118.698 200.186 C 118.698 200.391,118.195 200.558,117.581 200.558 C 116.967 200.558,116.465 200.726,116.465 200.930 C 116.465 201.135,116.130 201.302,115.721 201.302 C 115.312 201.302,114.977 201.151,114.977 200.965 C 114.977 200.780,114.642 200.715,114.233 200.822 C 113.823 200.929,113.488 201.165,113.488 201.346 C 113.488 201.527,112.558 201.674,111.420 201.674 C 110.136 201.674,109.439 201.815,109.581 202.047 C 109.733 202.292,104.934 202.419,95.464 202.419 L 81.116 202.419 81.116 222.326 L 81.116 242.233 70.140 242.233 L 59.163 242.233 59.163 185.922 C 59.163 154.952,59.274 129.501,59.411 129.364 C 59.877 128.898,110.884 129.073,110.884 129.541 M81.767 146.861 C 81.158 147.020,81.116 148.255,81.116 166.167 L 81.116 185.302 93.192 185.302 C 101.999 185.302,105.541 185.178,106.279 184.842 C 107.018 184.505,107.327 184.494,107.430 184.802 C 107.507 185.034,107.896 185.138,108.293 185.034 C 108.690 184.931,108.923 184.697,108.811 184.516 C 108.699 184.334,109.119 184.186,109.745 184.186 C 110.372 184.186,110.884 184.019,110.884 183.814 C 110.884 183.609,111.219 183.442,111.628 183.442 C 112.037 183.442,112.372 183.256,112.372 183.029 C 112.372 182.765,112.740 182.709,113.395 182.874 C 113.957 183.015,114.300 183.013,114.156 182.870 C 113.898 182.611,114.703 181.581,115.163 181.581 C 115.294 181.581,115.653 181.330,115.960 181.023 C 116.267 180.716,116.825 180.465,117.199 180.465 C 117.605 180.465,118.030 180.051,118.249 179.442 C 118.451 178.879,118.970 178.049,119.402 177.597 C 119.833 177.145,120.186 176.601,120.186 176.388 C 120.186 176.174,120.353 176.000,120.558 176.000 C 120.763 176.000,120.930 175.655,120.930 175.234 C 120.930 174.768,121.092 174.568,121.342 174.722 C 121.617 174.892,121.674 174.724,121.513 174.217 C 121.381 173.800,121.446 173.350,121.659 173.219 C 121.872 173.087,122.047 172.501,122.047 171.916 C 122.047 171.331,122.209 170.797,122.407 170.729 C 122.929 170.549,122.976 160.992,122.456 160.819 C 122.231 160.744,122.047 160.124,122.047 159.442 C 122.047 158.760,121.837 158.131,121.581 158.045 C 121.219 157.923,121.229 157.752,121.627 157.270 C 122.066 156.737,122.054 156.651,121.534 156.651 C 121.202 156.651,120.930 156.378,120.930 156.044 C 120.930 155.710,120.580 155.132,120.152 154.761 C 119.724 154.390,119.479 153.916,119.607 153.708 C 119.959 153.138,116.966 150.300,116.288 150.560 C 115.976 150.679,115.721 150.592,115.721 150.365 C 115.721 150.139,115.470 149.953,115.163 149.953 C 114.856 149.953,114.605 149.786,114.605 149.581 C 114.605 149.377,114.353 149.209,114.047 149.209 C 113.740 149.209,113.488 149.022,113.488 148.794 C 113.488 148.556,113.157 148.465,112.715 148.581 C 112.166 148.724,111.997 148.637,112.135 148.279 C 112.283 147.893,112.029 147.823,111.048 147.983 C 110.221 148.117,109.767 148.041,109.767 147.770 C 109.767 147.527,109.138 147.349,108.279 147.349 C 107.460 147.349,106.791 147.181,106.791 146.977 C 106.791 146.607,83.157 146.498,81.767 146.861 " stroke="none" fill="#cc4a2a" fill-rule="evenodd"></path>
  </g>
</svg>
