<svg id="svg" version="1.1" xmlns="http://www.w3.org/2000/svg" xmlns:xlink="http://www.w3.org/1999/xlink" width="400" height="400" viewBox="0, 0, 400,400"><g id="svgg"><path id="path0" d="M75.333 286.833 L 75.333 338.333 191.167 338.333 L 307.000 338.333 307.000 286.833 L 307.000 235.333 294.167 235.333 L 281.333 235.333 281.333 274.000 L 281.333 312.667 191.167 312.667 L 101.000 312.667 101.000 274.000 L 101.000 235.333 88.167 235.333 L 75.333 235.333 75.333 286.833 " stroke="none" fill="#bcbcbc" fill-rule="evenodd"></path><path id="path1" d="M232.000 57.023 C 226.592 61.045,222.031 64.538,221.866 64.785 C 221.551 65.257,297.721 168.333,298.385 168.333 C 298.880 168.333,319.000 153.321,319.000 152.952 C 319.000 152.386,242.624 49.666,242.220 49.688 C 242.008 49.700,237.408 53.000,232.000 57.023 M186.354 100.662 C 181.943 105.976,178.333 110.466,178.333 110.639 C 178.333 111.016,276.857 193.000,277.310 193.000 C 277.688 193.000,293.667 173.813,293.667 173.359 C 293.667 172.980,195.150 91.000,194.693 91.000 C 194.518 91.000,190.766 95.348,186.354 100.662 M151.224 155.917 C 148.350 162.287,145.999 167.662,146.000 167.861 C 146.000 168.059,156.987 173.339,170.417 179.593 C 183.846 185.848,209.833 197.964,228.167 206.519 C 246.500 215.074,261.807 222.144,262.183 222.230 C 262.813 222.373,273.344 200.565,273.335 199.135 C 273.333 198.785,157.546 144.330,156.808 144.332 C 156.610 144.333,154.097 149.546,151.224 155.917 M131.895 214.917 C 130.482 221.654,129.328 227.394,129.330 227.672 C 129.333 228.119,252.950 254.342,255.019 254.335 C 255.482 254.334,260.682 231.312,260.670 229.317 C 260.667 228.858,137.039 202.640,134.981 202.661 C 134.568 202.666,133.938 205.168,131.895 214.917 M126.667 273.833 L 126.667 286.667 191.000 286.667 L 255.333 286.667 255.333 273.833 L 255.333 261.000 191.000 261.000 L 126.667 261.000 126.667 273.833 " stroke="none" fill="#f4841c" fill-rule="evenodd"></path></g></svg>