<svg id="svg" version="1.1" xmlns="http://www.w3.org/2000/svg"
  xmlns:xlink="http://www.w3.org/1999/xlink" width="400" height="400" viewBox="0, 0, 400,400">
  <g id="svgg">
    <path id="path0"
      d="M192.724 65.646 C 191.252 65.836,188.552 66.548,186.724 67.230 C 183.732 68.344,182.741 68.501,176.800 68.798 C 169.578 69.160,168.614 69.361,165.459 71.166 C 164.287 71.837,162.174 72.628,160.764 72.924 C 157.985 73.508,157.046 73.927,154.678 75.643 C 153.827 76.259,152.177 77.041,151.012 77.379 C 149.813 77.728,148.068 78.677,146.996 79.563 C 145.952 80.425,144.330 81.324,143.391 81.560 C 139.958 82.425,119.579 101.882,117.165 106.600 C 116.490 107.920,115.694 109.270,115.397 109.600 C 115.100 109.930,114.508 111.010,114.081 112.000 C 113.655 112.990,112.580 114.675,111.693 115.744 C 110.645 117.007,109.841 118.544,109.394 120.134 C 108.982 121.603,108.176 123.202,107.375 124.137 C 105.946 125.807,104.800 129.670,104.800 132.815 C 104.800 134.127,104.512 134.809,103.421 136.083 C 100.911 139.016,100.799 140.252,100.804 165.079 C 100.809 189.504,100.863 190.008,103.980 194.600 C 104.428 195.260,104.797 196.430,104.800 197.200 C 104.809 199.269,106.156 203.333,107.353 204.903 C 107.929 205.658,108.763 207.329,109.206 208.617 C 109.649 209.904,110.621 211.867,111.367 212.979 C 112.113 214.090,113.026 215.949,113.397 217.109 C 113.767 218.268,114.678 219.862,115.421 220.649 C 116.164 221.437,117.380 223.188,118.124 224.541 C 118.868 225.893,120.900 228.456,122.639 230.235 C 124.377 232.015,126.237 234.062,126.771 234.784 C 127.305 235.507,128.880 236.993,130.271 238.086 C 133.306 240.471,133.603 241.821,131.644 244.323 C 129.994 246.433,129.095 249.596,128.830 254.234 C 128.613 258.040,128.529 258.349,127.336 259.707 C 125.657 261.619,124.800 264.740,124.800 268.948 C 124.800 272.073,124.694 272.539,123.588 274.283 C 121.827 277.059,120.800 280.896,120.800 284.694 C 120.800 287.124,120.647 288.029,120.171 288.424 C 118.322 289.958,116.807 295.463,116.786 300.725 C 116.773 303.826,116.664 304.329,115.777 305.400 C 112.038 309.913,112.118 320.147,115.941 326.400 C 116.435 327.208,116.799 328.477,116.803 329.400 C 116.812 331.883,118.378 336.432,119.901 338.400 C 120.327 338.950,121.014 340.297,121.428 341.394 C 122.922 345.353,131.962 353.838,135.947 355.021 C 137.055 355.350,138.466 356.040,139.081 356.554 C 142.263 359.209,145.097 359.634,159.600 359.630 C 174.498 359.625,177.315 359.180,180.916 356.264 C 181.842 355.513,183.230 354.585,184.000 354.200 C 186.595 352.903,192.680 348.016,193.836 346.301 C 194.467 345.366,195.546 343.880,196.233 343.000 C 196.921 342.120,197.972 340.410,198.569 339.200 C 199.165 337.990,200.256 336.148,200.992 335.107 C 202.399 333.117,203.083 330.722,203.481 326.400 C 203.656 324.500,204.013 323.369,204.808 322.200 C 206.140 320.241,207.600 314.664,207.600 311.536 C 207.600 309.621,207.805 308.929,208.790 307.512 C 210.276 305.376,211.117 302.153,211.459 297.284 C 211.673 294.237,211.893 293.311,212.603 292.457 C 214.441 290.245,215.600 285.877,215.600 281.159 C 215.600 279.124,215.797 278.490,216.984 276.694 C 218.599 274.250,219.600 270.761,219.600 267.577 C 219.600 265.352,219.631 265.292,221.900 263.132 C 225.118 260.069,225.801 259.726,229.215 259.460 C 232.909 259.172,235.266 258.376,237.040 256.819 C 237.782 256.167,239.157 255.435,240.095 255.193 C 241.033 254.951,242.098 254.666,242.463 254.561 C 242.827 254.456,243.907 253.746,244.863 252.984 C 245.829 252.214,247.652 251.301,248.971 250.927 C 251.055 250.336,251.838 249.783,255.450 246.353 C 257.709 244.206,259.973 242.235,260.479 241.972 C 262.775 240.780,268.800 235.838,269.832 234.301 C 270.460 233.366,271.655 231.839,272.487 230.909 C 273.319 229.979,274.000 229.033,274.000 228.807 C 274.000 228.581,275.700 226.429,277.778 224.026 C 281.289 219.964,283.200 217.116,283.200 215.944 C 283.200 215.675,283.904 214.363,284.764 213.028 C 285.624 211.693,286.612 209.746,286.959 208.702 C 287.305 207.658,288.214 205.858,288.978 204.702 C 290.316 202.678,291.600 198.851,291.600 196.888 C 291.600 196.369,292.117 195.192,292.748 194.272 C 295.376 190.445,295.600 188.169,295.597 165.424 C 295.593 141.608,295.269 138.469,292.524 135.724 C 291.999 135.199,291.626 133.905,291.302 131.481 C 290.805 127.770,289.803 125.006,288.504 123.762 C 288.066 123.343,287.389 122.010,287.000 120.800 C 286.102 118.012,285.394 116.612,284.423 115.707 C 284.000 115.313,283.106 113.887,282.437 112.538 C 281.768 111.189,280.799 109.571,280.284 108.943 C 279.769 108.314,278.967 107.170,278.500 106.400 C 278.034 105.630,277.236 104.558,276.727 104.018 C 276.217 103.478,275.260 102.290,274.600 101.378 C 273.940 100.466,272.006 98.432,270.302 96.858 C 268.598 95.284,265.628 92.402,263.702 90.453 C 260.315 87.025,256.130 83.895,252.400 82.000 C 251.410 81.497,249.837 80.416,248.905 79.597 C 247.818 78.642,246.364 77.871,244.850 77.446 C 243.552 77.082,241.794 76.228,240.945 75.549 C 239.098 74.073,238.261 73.728,234.715 72.982 C 233.228 72.669,231.036 71.863,229.843 71.189 C 226.669 69.398,225.635 69.174,218.800 68.799 C 213.210 68.492,212.321 68.340,209.768 67.249 C 205.188 65.292,199.568 64.764,192.724 65.646 M211.230 91.767 C 236.406 96.266,263.191 119.124,268.809 140.904 C 269.049 141.837,269.861 144.760,270.612 147.400 C 277.222 170.628,269.684 198.208,251.605 216.943 C 239.060 229.943,223.939 237.224,203.621 240.050 C 197.556 240.894,196.699 241.877,194.222 250.836 C 193.224 254.446,191.662 260.100,190.751 263.400 C 189.840 266.700,188.666 271.290,188.142 273.600 C 187.617 275.910,186.745 279.150,186.204 280.800 C 185.662 282.450,184.575 286.470,183.787 289.733 C 182.999 292.996,182.169 296.146,181.942 296.733 C 181.715 297.320,180.844 300.500,180.006 303.800 C 177.424 313.964,175.532 320.528,174.703 322.200 C 166.241 339.253,142.205 333.128,143.313 314.200 C 143.521 310.638,144.005 308.541,147.792 294.800 C 148.793 291.170,150.591 284.370,151.789 279.689 C 152.987 275.008,154.081 270.993,154.220 270.767 C 154.360 270.541,155.357 266.901,156.437 262.678 C 159.909 249.092,161.840 241.852,162.586 239.625 C 164.481 233.966,163.301 231.240,157.200 227.183 C 142.037 217.100,131.331 202.532,126.406 185.282 C 114.638 144.066,140.866 100.747,182.868 92.028 C 189.105 90.733,204.644 90.590,211.230 91.767 M160.660 358.706 C 160.913 358.868,159.882 359.001,158.370 359.002 C 156.857 359.003,155.930 358.881,156.310 358.730 C 157.246 358.359,160.092 358.343,160.660 358.706 "
      stroke="none" fill="#fcfbfa" fill-rule="evenodd"></path>
    <path id="path1"
      d="M188.803 91.218 C 144.713 95.464,113.987 141.784,126.406 185.282 C 131.331 202.532,142.037 217.100,157.200 227.183 C 163.301 231.240,164.481 233.966,162.586 239.625 C 161.840 241.852,159.909 249.092,156.437 262.678 C 155.357 266.901,154.360 270.541,154.220 270.767 C 154.081 270.993,152.987 275.008,151.789 279.689 C 150.591 284.370,148.793 291.170,147.792 294.800 C 144.005 308.541,143.521 310.638,143.313 314.200 C 142.205 333.128,166.241 339.253,174.703 322.200 C 175.532 320.528,177.424 313.964,180.006 303.800 C 180.844 300.500,181.715 297.320,181.942 296.733 C 182.169 296.146,182.999 292.996,183.787 289.733 C 184.575 286.470,185.662 282.450,186.204 280.800 C 186.745 279.150,187.617 275.910,188.142 273.600 C 188.666 271.290,189.840 266.700,190.751 263.400 C 197.258 239.827,196.597 241.027,203.621 240.050 C 223.939 237.224,239.060 229.943,251.605 216.943 C 269.684 198.208,277.222 170.628,270.612 147.400 C 269.861 144.760,269.049 141.837,268.809 140.904 C 267.457 135.664,262.010 125.777,257.397 120.190 C 239.310 98.285,216.306 88.569,188.803 91.218 M208.704 93.622 C 255.301 100.973,283.475 151.593,264.401 193.691 C 252.386 220.210,231.659 234.289,199.442 237.812 C 187.108 239.160,173.932 236.257,166.058 230.455 C 164.596 229.378,162.320 227.817,161.000 226.988 C 143.645 216.077,132.199 200.403,127.855 181.600 C 124.911 168.853,124.995 160.286,128.192 147.116 C 136.711 112.025,172.908 87.974,208.704 93.622 M173.800 112.286 C 168.031 113.680,158.158 120.472,153.631 126.161 C 144.651 137.447,145.415 146.739,154.440 136.000 C 160.388 128.922,168.025 122.412,175.996 117.623 C 180.479 114.930,181.233 114.033,180.029 112.829 C 179.209 112.009,176.076 111.736,173.800 112.286 M156.310 358.730 C 155.930 358.881,156.857 359.003,158.370 359.002 C 159.882 359.001,160.913 358.868,160.660 358.706 C 160.092 358.343,157.246 358.359,156.310 358.730 "
      stroke="none" fill="#fcc465" fill-rule="evenodd"></path>
    <path id="path2"
      d="M192.600 93.042 C 162.050 95.385,135.298 117.844,128.192 147.116 C 124.995 160.286,124.911 168.853,127.855 181.600 C 132.199 200.403,143.645 216.077,161.000 226.988 C 162.320 227.817,164.596 229.378,166.058 230.455 C 183.169 243.063,219.208 239.555,241.055 223.155 C 268.342 202.672,277.914 166.198,264.029 135.614 C 251.729 108.525,221.973 90.789,192.600 93.042 M180.029 112.829 C 181.233 114.033,180.479 114.930,175.996 117.623 C 168.025 122.412,160.388 128.922,154.440 136.000 C 145.415 146.739,144.651 137.447,153.631 126.161 C 160.976 116.931,176.361 109.161,180.029 112.829 "
      stroke="none" fill="#fb0453" fill-rule="evenodd"></path>
  </g>
</svg>