<svg id="svg" version="1.1" xmlns="http://www.w3.org/2000/svg" xmlns:xlink="http://www.w3.org/1999/xlink" width="400" height="276.71875" viewBox="0, 0, 400,276.71875">
  <g id="svgg">
    <path id="path0" d="M178.750 1.200 C 120.104 1.590,68.394 4.819,46.578 9.452 C 29.212 13.140,14.291 28.744,10.492 47.188 C 0.648 94.990,0.726 184.725,10.651 229.531 C 14.535 247.066,25.911 260.254,42.247 266.160 C 52.812 269.980,86.648 273.034,135.781 274.602 C 221.773 277.347,314.085 274.696,347.422 268.524 C 369.574 264.423,384.125 250.207,388.516 228.378 C 398.659 177.947,398.578 94.409,388.341 48.232 C 383.096 24.569,367.464 10.670,342.109 7.126 C 313.563 3.135,247.582 0.742,178.750 1.200 M213.340 109.179 C 241.173 125.147,263.942 138.281,263.937 138.364 C 263.931 138.482,164.622 195.576,162.148 196.884 L 161.563 197.194 161.563 138.359 L 161.563 79.525 162.148 79.835 C 162.471 80.005,185.507 93.210,213.340 109.179 " stroke="none" fill="#000000" fill-rule="evenodd"></path>
  </g>
</svg>
