<?xml version="1.0"?>
<svg width="200" height="200" xmlns="http://www.w3.org/2000/svg" xmlns:svg="http://www.w3.org/2000/svg">
  <title>Logo</title>
  <g id="svg_46">
   <ellipse cx="101" cy="96.324074" fill="#ffffff" fill-opacity="0.1" id="svg_4" rx="49" ry="56" stroke="#fabc02" stroke-dasharray="null" stroke-linecap="round" stroke-linejoin="round" stroke-width="13"/>
   <ellipse cx="101" cy="96.324074" fill="#ffffff" fill-opacity="0.1" id="svg_8" rx="68" ry="75" stroke="#000000" stroke-dasharray="null" stroke-linecap="round" stroke-linejoin="round" stroke-width="25"/>
   <path d="m23.01484,68.034664a80,80 0 0 1 45.35218,-54.09312" fill="#ffffff" fill-opacity="0.1" id="svg_9" stroke="#fabc02" stroke-dasharray="null" stroke-linecap="round" stroke-linejoin="round" stroke-width="10"/>
   <path d="m7.704981,153.728327a80,82.457867 0 0 1 48.60218,-47.251573" fill="#ffffff" fill-opacity="0.1" id="svg_2" stroke="#fabc02" stroke-dasharray="null" stroke-linecap="round" stroke-linejoin="round" stroke-width="10" transform="rotate(-68 32.0061 130.103)"/>
   <path d="m145.169765,154.291704a80,82.45787 0 0 1 48.60218,-47.25157" fill="#ffffff" fill-opacity="0.1" id="svg_3" stroke="#fabc02" stroke-dasharray="null" stroke-linecap="round" stroke-linejoin="round" stroke-width="10" transform="rotate(157 169.471 130.666)"/>
   <path d="m127.578355,61.806246a83.995484,77.655603 0 0 1 58.510377,-41.084697" fill="#ffffff" fill-opacity="0.1" id="svg_5" stroke="#fabc02" stroke-dasharray="null" stroke-linecap="round" stroke-linejoin="round" stroke-width="10" transform="rotate(85 156.834 41.2639)"/>
   <path d="m77.939049,200.533924a80,82.45787 0 0 1 47.10446,-50.18886" fill="#ffffff" fill-opacity="0.1" id="svg_6" stroke="#fabc02" stroke-dasharray="null" stroke-linecap="round" stroke-linejoin="round" stroke-width="10" transform="rotate(-133 101.491 175.439)"/>
   <path d="m79.111103,212.79963a77.167184,77.878232 0 0 1 45.436481,-47.401415" fill="#ffffff" fill-opacity="0.1" id="svg_23" stroke="#fabc02" stroke-dasharray="null" stroke-linecap="round" stroke-linejoin="round" stroke-width="4" transform="rotate(-133 101.829 189.099)"/>
   <path d="m-0.357576,171.184314a91.622223,75.14808 0 0 1 53.947692,-45.739679" fill="#ffffff" fill-opacity="0.1" id="svg_24" stroke="#fabc02" stroke-dasharray="null" stroke-linecap="round" stroke-linejoin="round" stroke-width="4" transform="rotate(-83 26.6163 148.314)"/>
   <path d="m151.537071,167.934996a86.033542,66.937757 0 0 1 50.657044,-40.742379" fill="#ffffff" fill-opacity="0.1" id="svg_25" stroke="#fabc02" stroke-dasharray="null" stroke-linecap="round" stroke-linejoin="round" stroke-width="4" transform="rotate(160 176.866 147.564)"/>
   <line fill="none" fill-opacity="0.1" id="svg_35" stroke="#fabc02" stroke-dasharray="null" stroke-linecap="round" stroke-linejoin="round" stroke-width="4" x1="20.375" x2="16.875" y1="59.949074" y2="53.199074"/>
   <line fill="none" fill-opacity="0.1" id="svg_37" stroke="#fabc02" stroke-dasharray="null" stroke-linecap="round" stroke-linejoin="round" stroke-width="4" x1="17.875" x2="29.375" y1="52.199074" y2="43.199074"/>
   <line fill="none" fill-opacity="0.1" id="svg_38" stroke="#fabc02" stroke-dasharray="null" stroke-linecap="round" stroke-linejoin="round" stroke-width="4" x1="184.375" x2="172.625" y1="51.449074" y2="43.699074"/>
   <line fill="none" fill-opacity="0.1" id="svg_39" stroke="#fabc02" stroke-dasharray="null" stroke-linecap="round" stroke-linejoin="round" stroke-width="4" x1="20.625" x2="23.875" y1="57.199074" y2="48.949074"/>
   <path d="m19.125,54.449074c0,-1.099998 0.291107,-2.238819 0.660706,-1.749084c0.560112,0.74218 -0.491737,2.310394 -0.908035,1.628418c-0.441223,-0.722813 0.56987,-1.583794 0.74733,-1.384708l0,0.887501l-0.109001,-0.545124l-0.599335,0.162998" fill="none" fill-opacity="0.1" id="svg_41" stroke="#fabc02" stroke-dasharray="null" stroke-linecap="round" stroke-linejoin="round" stroke-width="4"/>
   <line fill="none" fill-opacity="0.1" id="svg_36" stroke="#fabc02" stroke-dasharray="null" stroke-linecap="round" stroke-linejoin="round" stroke-width="4" x1="181.375" x2="185.125" y1="60.949074" y2="52.949074"/>
   <line fill="none" fill-opacity="0.1" id="svg_40" stroke="#fabc02" stroke-dasharray="null" stroke-linecap="round" stroke-linejoin="round" stroke-width="4" x1="180.125" x2="178.875" y1="57.449074" y2="50.199074"/>
   <path d="m182.375,54.199074c0.25,0.382332 0.343262,-0.436287 0.106323,-1.362999c-0.110046,-0.430477 0.62326,1.184002 -0.347321,1.250999c-0.411102,0.028378 -0.191406,-0.943729 -0.365326,-0.169666c-0.098053,0.436398 -0.646454,-0.741043 -0.143677,-1.248001c0.038971,-0.039288 0.12915,-0.860653 0.178986,-1.569332c0.077118,-1.096565 0.071014,-0.576416 0.071014,0.400665c0,0.793335 0,0.944752 0,0.073334l-0.014282,-0.857124" fill="none" fill-opacity="0.1" id="svg_42" stroke="#fabc02" stroke-dasharray="null" stroke-linecap="round" stroke-linejoin="round" stroke-width="4"/>
  </g>
 </g>
</svg>