<svg id="svg" version="1.1" xmlns="http://www.w3.org/2000/svg" xmlns:xlink="http://www.w3.org/1999/xlink" width="400" height="400" viewBox="0, 0, 400,400"><g id="svgg"><path id="path0" d="M185.800 0.453 C 183.820 0.642,181.905 0.967,181.545 1.174 C 181.185 1.381,179.790 1.674,178.445 1.827 C 177.100 1.979,176.000 2.254,176.000 2.438 C 176.000 2.622,175.100 2.892,174.000 3.038 C 172.900 3.184,172.000 3.439,172.000 3.606 C 172.000 3.773,171.190 4.031,170.200 4.179 C 169.210 4.328,168.400 4.595,168.400 4.773 C 168.400 4.952,167.680 5.213,166.800 5.354 C 165.920 5.494,165.200 5.767,165.200 5.960 C 165.200 6.153,164.570 6.429,163.800 6.574 C 163.030 6.718,162.400 6.994,162.400 7.186 C 162.400 7.379,161.860 7.655,161.201 7.800 C 160.039 8.055,156.277 9.927,153.000 11.881 C 152.120 12.406,151.085 12.938,150.700 13.064 C 150.315 13.190,150.000 13.433,150.000 13.603 C 150.000 13.774,149.550 14.026,149.000 14.164 C 148.450 14.302,148.000 14.592,148.000 14.808 C 148.000 15.023,147.724 15.200,147.387 15.200 C 147.051 15.200,146.671 15.470,146.545 15.800 C 146.418 16.130,146.062 16.400,145.753 16.400 C 145.445 16.400,144.884 16.760,144.507 17.200 C 144.130 17.640,143.671 18.000,143.486 18.000 C 143.300 18.000,142.665 18.436,142.074 18.969 C 141.484 19.502,139.993 20.852,138.761 21.969 C 137.530 23.086,136.407 24.000,136.266 24.000 C 135.929 24.000,24.000 135.926,24.000 136.263 C 24.000 136.406,23.086 137.530,21.969 138.761 C 20.852 139.993,19.502 141.484,18.969 142.074 C 18.436 142.665,18.000 143.258,18.000 143.391 C 18.000 143.783,16.244 146.172,15.700 146.520 C 15.425 146.696,15.200 147.101,15.200 147.420 C 15.200 147.739,15.032 148.000,14.827 148.000 C 14.622 148.000,14.328 148.405,14.173 148.900 C 14.019 149.395,13.781 149.890,13.646 150.000 C 13.246 150.325,12.406 151.719,11.898 152.900 C 11.638 153.505,11.284 154.000,11.112 154.000 C 10.941 154.000,10.794 154.225,10.787 154.500 C 10.781 154.775,10.332 155.900,9.791 157.000 C 9.250 158.100,8.806 159.225,8.804 159.500 C 8.802 159.775,8.634 160.000,8.432 160.000 C 8.229 160.000,7.945 160.540,7.800 161.200 C 7.655 161.860,7.379 162.400,7.186 162.400 C 6.994 162.400,6.718 163.030,6.574 163.800 C 6.429 164.570,6.174 165.200,6.007 165.200 C 5.839 165.200,5.587 165.920,5.446 166.800 C 5.306 167.680,5.024 168.400,4.820 168.400 C 4.616 168.400,4.328 169.210,4.179 170.200 C 4.031 171.190,3.770 172.000,3.601 172.000 C 3.431 172.000,3.169 172.987,3.018 174.194 C 2.867 175.400,2.593 176.480,2.409 176.594 C 2.225 176.708,1.948 177.746,1.793 178.900 C 1.637 180.055,1.369 181.180,1.196 181.400 C -0.337 183.348,-0.321 216.693,1.214 218.604 C 1.393 218.826,1.666 220.131,1.821 221.504 C 1.976 222.877,2.243 224.000,2.414 224.000 C 2.585 224.000,2.849 224.900,3.000 226.000 C 3.151 227.100,3.418 228.000,3.592 228.000 C 3.766 228.000,4.031 228.810,4.179 229.800 C 4.328 230.790,4.595 231.600,4.773 231.600 C 4.952 231.600,5.213 232.320,5.354 233.200 C 5.494 234.080,5.767 234.800,5.960 234.800 C 6.153 234.800,6.429 235.430,6.574 236.200 C 6.718 236.970,6.994 237.600,7.186 237.600 C 7.379 237.600,7.655 238.140,7.800 238.800 C 7.945 239.460,8.229 240.000,8.432 240.000 C 8.634 240.000,8.800 240.363,8.800 240.806 C 8.800 241.519,9.779 243.469,12.110 247.400 C 12.502 248.060,12.928 248.915,13.058 249.300 C 13.187 249.685,13.433 250.000,13.603 250.000 C 13.774 250.000,14.026 250.450,14.164 251.000 C 14.302 251.550,14.592 252.000,14.808 252.000 C 15.023 252.000,15.200 252.276,15.200 252.613 C 15.200 252.949,15.470 253.329,15.800 253.455 C 16.130 253.582,16.400 253.938,16.400 254.247 C 16.400 254.555,16.760 255.116,17.200 255.493 C 17.640 255.870,18.000 256.332,18.000 256.520 C 18.000 256.708,18.540 257.402,19.200 258.062 C 19.860 258.722,20.400 259.385,20.400 259.536 C 20.400 259.687,21.204 260.618,22.187 261.605 C 23.170 262.592,23.980 263.538,23.987 263.706 C 24.003 264.091,135.886 376.000,136.254 376.000 C 136.402 376.000,137.530 376.914,138.761 378.031 C 139.993 379.148,141.484 380.498,142.074 381.031 C 142.665 381.564,143.258 382.000,143.391 382.000 C 143.783 382.000,146.172 383.756,146.520 384.300 C 146.696 384.575,147.101 384.800,147.420 384.800 C 147.739 384.800,148.000 384.968,148.000 385.173 C 148.000 385.378,148.405 385.672,148.900 385.827 C 149.395 385.981,149.890 386.219,150.000 386.354 C 150.325 386.754,151.719 387.594,152.900 388.102 C 153.505 388.362,154.000 388.702,154.000 388.856 C 154.000 389.010,154.540 389.255,155.200 389.400 C 155.860 389.545,156.400 389.806,156.400 389.980 C 156.400 390.154,157.210 390.523,158.200 390.800 C 159.190 391.077,160.000 391.446,160.000 391.620 C 160.000 391.794,160.540 392.055,161.200 392.200 C 161.860 392.345,162.400 392.621,162.400 392.814 C 162.400 393.006,163.030 393.282,163.800 393.426 C 164.570 393.571,165.200 393.826,165.200 393.993 C 165.200 394.161,165.920 394.413,166.800 394.554 C 167.680 394.694,168.400 394.976,168.400 395.180 C 168.400 395.384,169.210 395.672,170.200 395.821 C 171.190 395.969,172.000 396.230,172.000 396.399 C 172.000 396.569,172.990 396.832,174.200 396.983 C 175.410 397.134,176.400 397.404,176.400 397.583 C 176.400 397.762,177.435 398.036,178.700 398.192 C 179.965 398.349,181.180 398.622,181.400 398.798 C 183.316 400.336,216.688 400.325,218.604 398.786 C 218.826 398.607,220.131 398.334,221.504 398.179 C 222.877 398.024,224.000 397.757,224.000 397.586 C 224.000 397.415,224.900 397.151,226.000 397.000 C 227.100 396.849,228.000 396.582,228.000 396.408 C 228.000 396.234,228.810 395.969,229.800 395.821 C 230.790 395.672,231.600 395.405,231.600 395.227 C 231.600 395.048,232.320 394.787,233.200 394.646 C 234.080 394.506,234.800 394.233,234.800 394.040 C 234.800 393.847,235.430 393.571,236.200 393.426 C 236.970 393.282,237.600 393.006,237.600 392.814 C 237.600 392.621,238.140 392.345,238.800 392.200 C 239.460 392.055,240.000 391.771,240.000 391.568 C 240.000 391.366,240.378 391.200,240.841 391.200 C 241.563 391.200,245.413 389.403,246.000 388.792 C 246.110 388.677,246.650 388.364,247.200 388.095 C 248.428 387.494,249.732 386.684,250.000 386.354 C 250.110 386.219,250.605 385.981,251.100 385.827 C 251.595 385.672,252.000 385.378,252.000 385.173 C 252.000 384.968,252.276 384.800,252.613 384.800 C 252.949 384.800,253.329 384.530,253.455 384.200 C 253.582 383.870,253.938 383.600,254.247 383.600 C 254.555 383.600,255.116 383.240,255.493 382.800 C 255.870 382.360,256.332 382.000,256.520 382.000 C 256.708 382.000,257.402 381.460,258.062 380.800 C 258.722 380.140,259.431 379.600,259.637 379.600 C 259.844 379.600,260.790 378.790,261.738 377.800 C 262.687 376.810,263.592 376.000,263.750 376.000 C 264.125 376.000,376.000 264.125,376.000 263.750 C 376.000 263.592,376.810 262.687,377.800 261.738 C 378.790 260.790,379.600 259.844,379.600 259.637 C 379.600 259.431,380.105 258.753,380.723 258.131 C 381.341 257.509,381.965 256.685,382.111 256.300 C 382.256 255.915,382.561 255.600,382.787 255.600 C 383.014 255.600,383.200 255.328,383.200 254.996 C 383.200 254.664,383.560 254.084,384.000 253.707 C 384.440 253.330,384.800 252.792,384.800 252.511 C 384.800 252.230,384.968 252.000,385.173 252.000 C 385.378 252.000,385.672 251.595,385.827 251.100 C 385.981 250.605,386.219 250.110,386.354 250.000 C 386.754 249.675,387.594 248.281,388.102 247.100 C 388.362 246.495,388.702 246.000,388.856 246.000 C 389.010 246.000,389.255 245.460,389.400 244.800 C 389.545 244.140,389.806 243.600,389.980 243.600 C 390.154 243.600,390.523 242.790,390.800 241.800 C 391.077 240.810,391.446 240.000,391.620 240.000 C 391.794 240.000,392.055 239.460,392.200 238.800 C 392.345 238.140,392.621 237.600,392.814 237.600 C 393.006 237.600,393.282 236.970,393.426 236.200 C 393.571 235.430,393.826 234.800,393.993 234.800 C 394.161 234.800,394.413 234.080,394.554 233.200 C 394.694 232.320,394.976 231.600,395.180 231.600 C 395.384 231.600,395.672 230.790,395.821 229.800 C 395.969 228.810,396.237 228.000,396.417 228.000 C 396.596 228.000,396.866 227.010,397.017 225.800 C 397.168 224.590,397.431 223.600,397.600 223.600 C 397.769 223.600,398.036 222.565,398.192 221.300 C 398.349 220.035,398.622 218.820,398.798 218.600 C 400.336 216.684,400.325 183.312,398.786 181.396 C 398.607 181.174,398.334 179.869,398.179 178.496 C 398.024 177.123,397.746 176.000,397.562 176.000 C 397.378 176.000,397.108 175.100,396.962 174.000 C 396.816 172.900,396.561 172.000,396.394 172.000 C 396.227 172.000,395.969 171.190,395.821 170.200 C 395.672 169.210,395.405 168.400,395.227 168.400 C 395.048 168.400,394.787 167.680,394.646 166.800 C 394.506 165.920,394.233 165.200,394.040 165.200 C 393.847 165.200,393.571 164.570,393.426 163.800 C 393.282 163.030,393.006 162.400,392.814 162.400 C 392.621 162.400,392.345 161.860,392.200 161.200 C 392.055 160.540,391.771 160.000,391.568 160.000 C 391.366 160.000,391.200 159.688,391.200 159.306 C 391.200 158.682,389.309 154.495,388.804 154.000 C 388.411 153.615,387.149 151.393,386.929 150.700 C 386.807 150.315,386.567 150.000,386.397 150.000 C 386.226 150.000,385.974 149.550,385.836 149.000 C 385.698 148.450,385.408 148.000,385.192 148.000 C 384.977 148.000,384.800 147.724,384.800 147.387 C 384.800 147.051,384.530 146.671,384.200 146.545 C 383.870 146.418,383.600 146.062,383.600 145.753 C 383.600 145.445,383.240 144.884,382.800 144.507 C 382.360 144.130,382.000 143.671,382.000 143.486 C 382.000 143.300,381.564 142.665,381.031 142.074 C 380.498 141.484,379.148 139.993,378.031 138.761 C 376.914 137.530,376.000 136.401,376.000 136.251 C 376.000 135.883,264.091 24.003,263.706 23.987 C 263.538 23.980,262.592 23.170,261.605 22.187 C 260.618 21.204,259.687 20.400,259.536 20.400 C 259.385 20.400,258.722 19.860,258.062 19.200 C 257.402 18.540,256.750 18.000,256.615 18.000 C 256.219 18.000,253.830 16.248,253.480 15.700 C 253.304 15.425,252.899 15.200,252.580 15.200 C 252.261 15.200,252.000 15.032,252.000 14.827 C 252.000 14.622,251.595 14.328,251.100 14.173 C 250.605 14.019,250.110 13.781,250.000 13.646 C 249.675 13.246,248.281 12.406,247.100 11.898 C 246.495 11.638,246.000 11.284,246.000 11.112 C 246.000 10.941,245.775 10.794,245.500 10.787 C 245.225 10.781,244.100 10.332,243.000 9.791 C 241.900 9.250,240.775 8.806,240.500 8.804 C 240.225 8.802,240.000 8.634,240.000 8.432 C 240.000 8.229,239.460 7.945,238.800 7.800 C 238.140 7.655,237.600 7.379,237.600 7.186 C 237.600 6.994,236.970 6.718,236.200 6.574 C 235.430 6.429,234.800 6.174,234.800 6.007 C 234.800 5.839,234.080 5.587,233.200 5.446 C 232.320 5.306,231.600 5.024,231.600 4.820 C 231.600 4.616,230.790 4.328,229.800 4.179 C 228.810 4.031,228.000 3.763,228.000 3.583 C 228.000 3.404,227.010 3.134,225.800 2.983 C 224.590 2.832,223.600 2.569,223.600 2.400 C 223.600 2.231,222.565 1.964,221.300 1.808 C 220.035 1.651,218.820 1.378,218.600 1.202 C 217.299 0.158,194.352 -0.367,185.800 0.453 M211.266 135.875 C 211.560 136.111,213.375 136.535,215.300 136.817 C 217.225 137.098,218.800 137.469,218.800 137.640 C 218.800 137.811,219.610 138.072,220.600 138.221 C 221.590 138.369,222.400 138.630,222.400 138.801 C 222.400 138.971,223.030 139.229,223.800 139.374 C 224.570 139.518,225.200 139.794,225.200 139.986 C 225.200 140.179,225.740 140.455,226.400 140.600 C 227.060 140.745,227.600 141.015,227.600 141.200 C 227.600 141.385,228.140 141.655,228.800 141.800 C 229.460 141.945,230.000 142.215,230.000 142.400 C 230.000 142.585,230.540 142.855,231.200 143.000 C 231.860 143.145,232.400 143.429,232.400 143.632 C 232.400 143.834,232.587 144.000,232.816 144.000 C 233.290 144.000,235.731 145.645,235.933 146.100 C 236.007 146.265,236.327 146.400,236.646 146.400 C 236.964 146.400,237.329 146.670,237.455 147.000 C 237.582 147.330,237.922 147.600,238.212 147.600 C 238.502 147.600,239.278 148.140,239.938 148.800 C 240.598 149.460,241.292 150.000,241.480 150.000 C 241.668 150.000,242.107 150.315,242.456 150.700 C 242.804 151.085,244.163 152.428,245.476 153.685 C 246.788 154.942,248.478 156.716,249.231 157.628 C 249.984 158.539,251.005 159.742,251.500 160.301 C 251.995 160.860,252.400 161.541,252.400 161.816 C 252.400 162.090,252.670 162.418,253.000 162.545 C 253.330 162.671,253.600 163.036,253.600 163.354 C 253.600 163.673,253.735 163.993,253.900 164.067 C 254.355 164.269,256.000 166.710,256.000 167.184 C 256.000 167.413,256.166 167.600,256.368 167.600 C 256.571 167.600,256.855 168.140,257.000 168.800 C 257.145 169.460,257.415 170.000,257.600 170.000 C 257.785 170.000,258.055 170.540,258.200 171.200 C 258.345 171.860,258.615 172.400,258.800 172.400 C 258.985 172.400,259.255 172.940,259.400 173.600 C 259.545 174.260,259.809 174.800,259.987 174.800 C 260.165 174.800,260.429 175.430,260.574 176.200 C 260.718 176.970,260.988 177.600,261.173 177.600 C 261.358 177.600,261.631 178.410,261.779 179.400 C 261.928 180.390,262.188 181.200,262.358 181.200 C 262.529 181.200,262.885 182.415,263.149 183.900 C 263.414 185.385,263.903 188.130,264.236 190.000 C 264.946 193.989,264.775 209.508,263.991 212.200 C 263.735 213.080,263.333 214.925,263.097 216.300 C 262.861 217.675,262.529 218.800,262.358 218.800 C 262.188 218.800,261.928 219.610,261.779 220.600 C 261.631 221.590,261.370 222.400,261.199 222.400 C 261.029 222.400,260.771 223.030,260.626 223.800 C 260.482 224.570,260.206 225.200,260.014 225.200 C 259.821 225.200,259.545 225.740,259.400 226.400 C 259.255 227.060,258.985 227.600,258.800 227.600 C 258.615 227.600,258.345 228.140,258.200 228.800 C 258.055 229.460,257.785 230.000,257.600 230.000 C 257.415 230.000,257.145 230.540,257.000 231.200 C 256.855 231.860,256.571 232.400,256.368 232.400 C 256.166 232.400,256.000 232.587,256.000 232.816 C 256.000 233.290,254.355 235.731,253.900 235.933 C 253.735 236.007,253.600 236.248,253.600 236.470 C 253.600 236.850,253.295 237.297,251.088 240.147 C 248.210 243.864,243.864 248.210,240.147 251.088 C 237.297 253.295,236.850 253.600,236.470 253.600 C 236.248 253.600,236.007 253.735,235.933 253.900 C 235.731 254.355,233.290 256.000,232.816 256.000 C 232.587 256.000,232.400 256.166,232.400 256.368 C 232.400 256.571,231.860 256.855,231.200 257.000 C 230.540 257.145,230.000 257.415,230.000 257.600 C 230.000 257.785,229.460 258.055,228.800 258.200 C 228.140 258.345,227.600 258.615,227.600 258.800 C 227.600 258.985,227.060 259.255,226.400 259.400 C 225.740 259.545,225.200 259.809,225.200 259.987 C 225.200 260.165,224.570 260.429,223.800 260.574 C 223.030 260.718,222.400 260.988,222.400 261.173 C 222.400 261.358,221.590 261.631,220.600 261.779 C 219.610 261.928,218.800 262.200,218.800 262.385 C 218.800 262.570,217.720 262.847,216.400 263.000 C 215.080 263.153,214.000 263.415,214.000 263.583 C 214.000 264.119,206.163 264.800,200.000 264.800 C 193.837 264.800,186.000 264.119,186.000 263.583 C 186.000 263.415,184.920 263.153,183.600 263.000 C 182.280 262.847,181.200 262.570,181.200 262.385 C 181.200 262.200,180.390 261.928,179.400 261.779 C 178.410 261.631,177.600 261.370,177.600 261.199 C 177.600 261.029,176.970 260.771,176.200 260.626 C 175.430 260.482,174.800 260.206,174.800 260.014 C 174.800 259.821,174.260 259.545,173.600 259.400 C 172.940 259.255,172.400 258.985,172.400 258.800 C 172.400 258.615,171.860 258.345,171.200 258.200 C 170.540 258.055,170.000 257.785,170.000 257.600 C 170.000 257.415,169.460 257.145,168.800 257.000 C 168.140 256.855,167.600 256.571,167.600 256.368 C 167.600 256.166,167.413 256.000,167.184 256.000 C 166.710 256.000,164.269 254.355,164.067 253.900 C 163.993 253.735,163.673 253.600,163.354 253.600 C 163.036 253.600,162.671 253.330,162.545 253.000 C 162.418 252.670,162.090 252.400,161.816 252.400 C 161.541 252.400,160.860 251.995,160.301 251.500 C 159.742 251.005,158.539 249.984,157.628 249.231 C 156.716 248.478,154.942 246.788,153.685 245.476 C 152.428 244.163,151.085 242.804,150.700 242.456 C 150.315 242.107,150.000 241.668,150.000 241.480 C 150.000 241.292,149.460 240.598,148.800 239.938 C 148.140 239.278,147.600 238.502,147.600 238.212 C 147.600 237.922,147.330 237.582,147.000 237.455 C 146.670 237.329,146.400 236.964,146.400 236.646 C 146.400 236.327,146.265 236.007,146.100 235.933 C 145.645 235.731,144.000 233.290,144.000 232.816 C 144.000 232.587,143.834 232.400,143.632 232.400 C 143.429 232.400,143.145 231.860,143.000 231.200 C 142.855 230.540,142.585 230.000,142.400 230.000 C 142.215 230.000,141.945 229.460,141.800 228.800 C 141.655 228.140,141.385 227.600,141.200 227.600 C 141.015 227.600,140.745 227.060,140.600 226.400 C 140.455 225.740,140.191 225.200,140.013 225.200 C 139.835 225.200,139.571 224.570,139.426 223.800 C 139.282 223.030,139.012 222.400,138.827 222.400 C 138.642 222.400,138.369 221.590,138.221 220.600 C 138.072 219.610,137.811 218.800,137.640 218.800 C 137.469 218.800,137.098 217.225,136.817 215.300 C 136.535 213.375,136.101 211.547,135.852 211.239 C 135.220 210.453,135.220 189.547,135.852 188.761 C 136.101 188.453,136.535 186.625,136.817 184.700 C 137.098 182.775,137.469 181.200,137.640 181.200 C 137.811 181.200,138.072 180.390,138.221 179.400 C 138.369 178.410,138.630 177.600,138.801 177.600 C 138.971 177.600,139.229 176.970,139.374 176.200 C 139.518 175.430,139.794 174.800,139.986 174.800 C 140.179 174.800,140.455 174.260,140.600 173.600 C 140.745 172.940,141.015 172.400,141.200 172.400 C 141.385 172.400,141.655 171.860,141.800 171.200 C 141.945 170.540,142.215 170.000,142.400 170.000 C 142.585 170.000,142.855 169.460,143.000 168.800 C 143.145 168.140,143.429 167.600,143.632 167.600 C 143.834 167.600,144.000 167.324,144.000 166.987 C 144.000 166.651,144.254 166.278,144.564 166.159 C 144.874 166.039,145.237 165.505,145.372 164.971 C 145.506 164.437,145.792 164.000,146.008 164.000 C 146.223 164.000,146.400 163.724,146.400 163.387 C 146.400 163.051,146.670 162.671,147.000 162.545 C 147.330 162.418,147.600 162.078,147.600 161.788 C 147.600 161.498,148.140 160.722,148.800 160.062 C 149.460 159.402,150.002 158.713,150.004 158.531 C 150.010 158.113,158.142 150.000,158.555 150.000 C 158.724 150.000,159.402 149.460,160.062 148.800 C 160.722 148.140,161.498 147.600,161.788 147.600 C 162.078 147.600,162.418 147.330,162.545 147.000 C 162.671 146.670,163.036 146.400,163.354 146.400 C 163.673 146.400,163.993 146.265,164.067 146.100 C 164.269 145.645,166.710 144.000,167.184 144.000 C 167.413 144.000,167.600 143.834,167.600 143.632 C 167.600 143.429,168.140 143.145,168.800 143.000 C 169.460 142.855,170.000 142.585,170.000 142.400 C 170.000 142.215,170.540 141.945,171.200 141.800 C 171.860 141.655,172.400 141.385,172.400 141.200 C 172.400 141.015,172.940 140.745,173.600 140.600 C 174.260 140.455,174.800 140.191,174.800 140.013 C 174.800 139.835,175.430 139.571,176.200 139.426 C 176.970 139.282,177.600 139.012,177.600 138.827 C 177.600 138.642,178.410 138.369,179.400 138.221 C 180.390 138.072,181.200 137.811,181.200 137.640 C 181.200 137.469,182.775 137.098,184.700 136.817 C 186.625 136.535,188.384 136.158,188.608 135.980 C 189.631 135.165,210.265 135.070,211.266 135.875 " stroke="none" fill-rule="evenodd"></path><path id="path1" d="" stroke="none" fill="#3064fc" fill-rule="evenodd"></path><path id="path2" d="" stroke="none" fill="#3064fc" fill-rule="evenodd"></path><path id="path3" d="" stroke="none" fill="#3064fc" fill-rule="evenodd"></path><path id="path4" d="" stroke="none" fill="#3064fc" fill-rule="evenodd"></path></g></svg>
