<?xml version="1.0" encoding="utf-8"?>
<!-- Generator: Adobe Illustrator 24.1.1, SVG Export Plug-In . SVG Version: 6.00 Build 0)  -->
<svg version="1.1" id="Layer_1" xmlns="http://www.w3.org/2000/svg" xmlns:xlink="http://www.w3.org/1999/xlink" x="0px" y="0px"
	 viewBox="0 0 512 512" style="enable-background:new 0 0 512 512;" xml:space="preserve" fill="#919191">
<g>
	<path d="M393.2,0H118.8C53.2,0.1,0.1,53.2,0,118.8v274.3C0.1,458.8,53.2,511.9,118.8,512h274.3c65.6-0.1,118.8-53.2,118.8-118.8
		V118.8C511.9,53.2,458.8,0.1,393.2,0z M475.4,393.2c0,45.4-36.8,82.3-82.3,82.3H118.8c-45.4,0-82.3-36.8-82.3-82.3V118.8
		c0-45.4,36.8-82.3,82.3-82.3h274.3c45.4,0,82.3,36.8,82.3,82.3V393.2z"/>
	<path d="M256,128c-75.8,0-137.1,61.4-137.1,137.1S180.3,402.3,256,402.3s137.1-61.4,137.1-137.1c0-37.9-15.4-72.2-40.2-97
		c-24.7-24.8-58.9-40.2-96.6-40.2H256L256,128z M256,365.7c-55.5,0-100.6-45-100.6-100.6s45-100.6,100.6-100.6s100.6,45,100.6,100.6
		S311.5,365.7,256,365.7z"/>
	<circle cx="402.3" cy="109.7" r="36.6"/>
</g>
</svg>
