<?xml version="1.0" encoding="utf-8"?>
<!-- Generator: Adobe Illustrator 24.1.1, SVG Export Plug-In . SVG Version: 6.00 Build 0)  -->
<svg version="1.1" id="Layer_1" xmlns="http://www.w3.org/2000/svg" xmlns:xlink="http://www.w3.org/1999/xlink" x="0px" y="0px"
	 viewBox="0 0 512 512" style="enable-background:new 0 0 512 512;" xml:space="preserve">
<g>
<circle cx="256" cy="256" r="240" stroke="#919191" stroke-width="24" fill-opacity="0" />
	<path d="M122.2,171.2c0.4-4.2-1.2-8.4-4.3-11.2l-32.1-38.7v-5.8h99.7l77.1,169l67.8-169h95.1v5.8l-27.5,26.3
		c-2.4,1.8-3.5,4.8-3.1,7.7v193.4c-0.5,2.9,0.7,5.9,3.1,7.7l26.8,26.3v5.8H289.8v-5.8l27.8-27c2.7-2.7,2.7-3.5,2.7-7.7V191.8
		L243.1,388h-10.4l-89.9-196.2v131.5c-0.7,5.5,1.1,11.1,5,15.1l36.1,43.8v5.8H81.4v-5.8l36.1-43.8c3.9-4,5.6-9.6,4.7-15.1V171.2z"/>
</g>
</svg>
