<?xml version="1.0" encoding="utf-8"?>
<!-- Generator: Adobe Illustrator 21.0.0, SVG Export Plug-In . SVG Version: 6.00 Build 0)  -->
<svg version="1.1" id="Layer_1" xmlns="http://www.w3.org/2000/svg" xmlns:xlink="http://www.w3.org/1999/xlink" x="0px" y="0px"
	 viewBox="0 0 512 512" style="enable-background:new 0 0 512 512;" xml:space="preserve">
<g>
	<path fill="#919191" d="M256,0C114.6,0,0,114.6,0,256c0,141.4,114.6,256,256,256c141.4,0,256-114.6,256-256C512,114.6,397.4,0,256,0z M379,193
		c0.2,2.7,0.2,5.5,0.2,8.2c0,83.9-63.9,180.5-180.6,180.5c-36,0-69.4-10.5-97.5-28.5c5.1,0.6,10.1,0.8,15.3,0.8
		c29.7,0,57-10.1,78.8-27.1c-27.9-0.6-51.3-18.9-59.3-44c9.8,1.4,18.6,1.4,28.6-1.1c-29.6-6-50.9-32.1-50.8-62.3v-0.8
		c8.4,4.7,18.3,7.7,28.6,8.1c-17.7-11.8-28.3-31.6-28.3-52.8c0-11.8,3.1-22.6,8.6-32c32.2,39.7,79.8,63.8,130.9,66.3
		c-9-43.1,23.3-78.1,62-78.1c18.3,0,34.7,7.7,46.3,20c14.3-2.7,28.1-8.1,40.3-15.3c-4.7,14.7-14.7,27.1-27.9,34.9
		c12.8-1.4,25.1-4.9,36.6-9.9C402.2,172.7,391.4,184,379,193z"/>
</g>
</svg>
